<?xml version="1.0" encoding="UTF-8"?>
<svg version="1.1" xmlns="http://www.w3.org/2000/svg" width="512" height="512">
<path d="M0 0 C14.90025764 11.43059868 24.98026681 27.37194594 27.54296875 46.15234375 C27.78858631 49.21260579 27.96260226 52.24741623 28.01953125 55.31640625 C28.74914062 55.35378906 29.47875 55.39117187 30.23046875 55.4296875 C45.19722437 56.37203878 63.44900467 57.61944397 76.41796875 65.8359375 C79.00385741 69.8409114 78.43882989 73.91720515 78.26953125 78.56640625 C78.25148438 79.50226563 78.2334375 80.438125 78.21484375 81.40234375 C78.16778798 83.7080764 78.10206838 86.0117157 78.01953125 88.31640625 C78.35984375 87.67574219 78.70015625 87.03507812 79.05078125 86.375 C83.93698418 77.65520701 89.58406623 71.39195312 99.1796875 67.9765625 C108.26665686 65.86418585 117.04269303 66.36952984 125.01953125 71.31640625 C125.7053125 71.72890625 126.39109375 72.14140625 127.09765625 72.56640625 C135.50409481 78.21347948 140.71264167 86.62291406 143.359375 96.3046875 C147.82775013 119.38026674 141.15296672 142.117719 128.41015625 161.40234375 C122.38980978 170.04247305 115.34869868 177.77958352 108.01953125 185.31640625 C106.90384766 186.47462891 106.90384766 186.47462891 105.765625 187.65625 C101.38540358 192.12219004 96.77696585 196.25859439 92.01953125 200.31640625 C89.72705032 202.27378802 87.43548192 204.23223367 85.14453125 206.19140625 C84.53834961 206.70952881 83.93216797 207.22765137 83.30761719 207.76147461 C78.8939537 211.54317635 74.55179828 215.39587569 70.25 219.3046875 C68.17764959 221.17379514 66.074333 222.99860495 63.95703125 224.81640625 C46.30471208 240.18980043 46.30471208 240.18980043 36.72265625 260.73046875 C36.65035193 263.00805477 36.61923184 265.07286771 37.01953125 267.31640625 C39.15807975 269.45495475 40.15228439 269.74295688 43.01953125 270.31640625 C43.30828125 269.51203125 43.59703125 268.70765625 43.89453125 267.87890625 C45.01953125 265.31640625 45.01953125 265.31640625 47.01953125 264.31640625 C50.85568082 263.96120722 53.16582759 263.76916031 56.45703125 265.87890625 C58.67072977 269.33227594 58.63634298 271.27286269 58.01953125 275.31640625 C56.17890457 279.13081133 53.82167115 281.70991023 50.45703125 284.25390625 C44.23828252 286.17606495 37.85847251 286.21014702 31.64453125 284.25390625 C26.07480685 280.1429192 21.7923937 275.19907843 20.6875 268.21875 C20.14611498 263.89488828 19.98189289 259.67618238 20.01953125 255.31640625 C19.2203125 256.01765625 18.42109375 256.71890625 17.59765625 257.44140625 C16.48975916 258.40144777 15.38026189 259.35964446 14.26953125 260.31640625 C13.68550537 260.81970459 13.10147949 261.32300293 12.49975586 261.84155273 C8.7034124 265.05384335 4.83547066 267.77987865 0.58203125 270.37890625 C-8.9494188 276.62018514 -12.0118097 285.41898485 -14.28515625 296.21484375 C-16.36064663 307.48406644 -15.58652236 316.91251105 -9.5078125 326.68359375 C-2.41044756 336.65010621 7.5021509 341.28011702 18.48046875 345.8359375 C21.06032105 346.91514724 23.54778966 348.01715746 26.01953125 349.31640625 C26.01953125 350.96640625 26.01953125 352.61640625 26.01953125 354.31640625 C30.63953125 354.31640625 35.25953125 354.31640625 40.01953125 354.31640625 C43.6411746 365.18133629 44.27674705 374.57944439 44.14453125 385.87890625 C44.13448048 387.37955131 44.12535834 388.8802029 44.1171875 390.38085938 C44.09705786 394.02633746 44.05788263 397.67089429 44.01953125 401.31640625 C49.29953125 401.31640625 54.57953125 401.31640625 60.01953125 401.31640625 C64.9973879 412.93140509 68.47652896 423.42805425 68.58203125 436.12890625 C68.59645264 436.98250732 68.61087402 437.8361084 68.62573242 438.71557617 C68.60603394 439.91984253 68.60603394 439.91984253 68.5859375 441.1484375 C68.5696228 442.21155151 68.5696228 442.21155151 68.55297852 443.29614258 C67.758653 446.30440055 66.4662621 447.40510803 64.01953125 449.31640625 C61.36276217 449.70738534 59.12060658 449.85335867 56.46618652 449.81761169 C55.7019668 449.82314609 54.93774707 449.82868049 54.15036917 449.83438259 C51.5875463 449.84800462 49.02569472 449.83301207 46.46289062 449.81811523 C44.62644537 449.82189786 42.79000297 449.82739743 40.9535675 449.83448792 C35.96390453 449.8484672 30.97458542 449.83725538 25.98494148 449.8207767 C20.76709843 449.80694223 15.54927566 449.81338445 10.3314209 449.81690979 C1.56838428 449.81961318 -7.19451547 449.80612521 -15.95751953 449.78295898 C-26.09364841 449.75634846 -36.22954841 449.75460168 -46.36570024 449.76634735 C-56.1100562 449.77712072 -65.85432923 449.77094151 -75.59867859 449.75679207 C-79.74852963 449.75102845 -83.89832006 449.75111791 -88.048172 449.75585747 C-92.93359484 449.76062431 -97.81876656 449.75053769 -102.70414162 449.72890282 C-104.49884507 449.72333079 -106.29357263 449.72287346 -108.08827782 449.72785568 C-110.53484003 449.73379653 -112.98063134 449.721327 -115.42712402 449.7040863 C-116.49696525 449.71310137 -116.49696525 449.71310137 -117.58841944 449.72229856 C-120.62707677 449.68325703 -122.71069746 449.46606336 -125.3900528 447.97967625 C-129.23235462 443.96136561 -128.65333351 437.6803919 -128.54296875 432.4296875 C-127.95640052 424.19940206 -124.95394346 407.28988096 -118.98046875 401.31640625 C-116.44997473 401.24327058 -113.94742038 401.22393098 -111.41796875 401.25390625 C-110.3515918 401.26067383 -110.3515918 401.26067383 -109.26367188 401.26757812 C-107.50256862 401.27939761 -105.74150839 401.29733362 -103.98046875 401.31640625 C-104.01188965 400.07890625 -104.01188965 400.07890625 -104.04394531 398.81640625 C-104.72912981 367.73158035 -104.72912981 367.73158035 -99.98046875 355.31640625 C-98.98046875 354.31640625 -98.98046875 354.31640625 -95.8203125 354.21875 C-94.53253906 354.23035156 -93.24476563 354.24195313 -91.91796875 354.25390625 C-90.62761719 354.26292969 -89.33726562 354.27195312 -88.0078125 354.28125 C-86.50927734 354.29865234 -86.50927734 354.29865234 -84.98046875 354.31640625 C-84.98046875 352.66640625 -84.98046875 351.01640625 -84.98046875 349.31640625 C-84.39144775 349.08042725 -83.80242676 348.84444824 -83.19555664 348.60131836 C-80.47181126 347.50024116 -77.757597 346.37726348 -75.04296875 345.25390625 C-74.11677734 344.88330078 -73.19058594 344.51269531 -72.23632812 344.13085938 C-62.88539722 340.22643559 -54.88892983 334.64972708 -48.98046875 326.31640625 C-48.49320313 325.64609375 -48.0059375 324.97578125 -47.50390625 324.28515625 C-41.6937435 314.80712539 -42.82316989 302.30700924 -45.16796875 291.81640625 C-49.08470049 278.62031472 -55.80770603 272.65764231 -66.76953125 265.15429688 C-70.95767572 262.22536324 -74.4492785 259.01446677 -77.98046875 255.31640625 C-77.93921875 256.61578125 -77.89796875 257.91515625 -77.85546875 259.25390625 C-77.87949544 266.89439399 -79.03606953 273.27325165 -83.98046875 279.31640625 C-89.63680577 284.79459093 -94.18236308 285.72941986 -101.89453125 285.6640625 C-107.6633022 285.01416299 -111.31391773 282.29543559 -114.98046875 277.94140625 C-116.29913271 274.47991337 -116.44803024 271.9901037 -115.98046875 268.31640625 C-114.41796875 265.87890625 -114.41796875 265.87890625 -111.98046875 264.31640625 C-108.48046875 263.81640625 -108.48046875 263.81640625 -104.98046875 264.31640625 C-102.54296875 266.19140625 -102.54296875 266.19140625 -100.98046875 268.31640625 C-100.98046875 268.97640625 -100.98046875 269.63640625 -100.98046875 270.31640625 C-97.25432722 269.19786039 -97.25432722 269.19786039 -94.98046875 266.31640625 C-94.11485235 256.27525607 -98.53999376 250.43480086 -104.7734375 242.89453125 C-113.23925573 233.00525686 -121.89037851 223.89837539 -132.046875 215.7421875 C-136.24236823 212.27294477 -140.21149728 208.57835255 -144.203125 204.87890625 C-146.47698098 202.7809463 -148.77073623 200.72079146 -151.10546875 198.69140625 C-167.99734914 184.00281461 -182.60946709 169.30071082 -192.98046875 149.31640625 C-193.46257812 148.3934375 -193.9446875 147.47046875 -194.44140625 146.51953125 C-202.41592799 130.1838443 -205.26996393 110.75254663 -200.41796875 93.00390625 C-196.48526538 82.56711653 -189.83190997 74.37250134 -179.86328125 69.22265625 C-171.92510039 66.08227701 -162.68213743 66.0184645 -154.66796875 68.87890625 C-146.42600894 72.69215064 -141.32243795 78.49993268 -136.98046875 86.31640625 C-137.03847656 85.14722656 -137.09648437 83.97804688 -137.15625 82.7734375 C-137.20316324 81.22530045 -137.24866173 79.67712008 -137.29296875 78.12890625 C-137.33486328 77.35998047 -137.37675781 76.59105469 -137.41992188 75.79882812 C-137.51000393 71.60100458 -137.38533993 69.85264521 -134.77734375 66.3984375 C-132.12466848 64.42375046 -130.03546879 63.23527504 -126.91796875 62.19140625 C-125.97179687 61.87429687 -125.025625 61.5571875 -124.05078125 61.23046875 C-119.06919467 59.74740099 -114.04472175 58.48304045 -108.98046875 57.31640625 C-108.9546875 56.46820313 -108.92890625 55.62 -108.90234375 54.74609375 C-107.92712394 34.57677503 -100.62996128 18.15203808 -85.98046875 4.31640625 C-61.41659892 -16.79428188 -26.51849126 -18.48464795 0 0 Z M-181.8828125 90.45703125 C-188.57930105 101.80054922 -188.68384065 114.85143399 -185.48046875 127.37890625 C-177.1999581 152.68530898 -158.96614424 172.36396988 -138.98046875 189.31640625 C-136.70765646 191.25159325 -134.43746866 193.18983628 -132.16796875 195.12890625 C-131.56637939 195.64171143 -130.96479004 196.1545166 -130.3449707 196.68286133 C-125.57994742 200.7604924 -120.95659216 204.9659299 -116.3828125 209.2578125 C-114.03337627 211.27106924 -111.67758986 212.81159536 -108.98046875 214.31640625 C-110.33851165 210.00669867 -111.9639078 205.86566186 -113.69580078 201.69799805 C-124.11534063 176.45556869 -129.34454868 150.31493595 -132.98046875 123.31640625 C-133.31046875 123.31640625 -133.64046875 123.31640625 -133.98046875 123.31640625 C-134.36138672 125.01410156 -134.36138672 125.01410156 -134.75 126.74609375 C-135.09703127 128.22801108 -135.44472188 129.70977411 -135.79296875 131.19140625 C-135.95861328 131.93777344 -136.12425781 132.68414062 -136.29492188 133.453125 C-137.640625 139.08984375 -137.640625 139.08984375 -140.98046875 141.31640625 C-143.2421875 141.29296875 -143.2421875 141.29296875 -145.66796875 140.94140625 C-146.47621094 140.83054688 -147.28445312 140.7196875 -148.1171875 140.60546875 C-148.73207031 140.51007813 -149.34695312 140.4146875 -149.98046875 140.31640625 C-150.34277027 133.86207169 -149.84083728 128.0206326 -148.48046875 121.69140625 C-146.20529346 111.03797884 -145.75527943 101.16834742 -151.60546875 91.56640625 C-154.70212546 87.26423842 -158.04381863 84.31801098 -162.98046875 82.31640625 C-170.38695112 81.12607873 -177.444729 84.3791135 -181.8828125 90.45703125 Z M95.25 89.3359375 C89.85765308 96.8274949 88.51910399 104.18308097 89.01953125 113.31640625 C89.46369155 115.95228614 89.94893741 118.52341966 90.51953125 121.12890625 C91.84529412 127.59323199 92.3980548 133.69925385 92.01953125 140.31640625 C90.60799026 140.59388867 89.18973326 140.83734141 87.76953125 141.06640625 C86.980625 141.205625 86.19171875 141.34484375 85.37890625 141.48828125 C83.01953125 141.31640625 83.01953125 141.31640625 80.83203125 139.78515625 C78.50509569 136.61570954 77.98299279 133.91909855 77.26953125 130.06640625 C77.0271875 128.803125 76.78484375 127.53984375 76.53515625 126.23828125 C76.365 125.2740625 76.19484375 124.30984375 76.01953125 123.31640625 C73.55915849 125.77677901 73.60023844 126.91683132 73.16015625 130.3203125 C72.94588989 131.87745972 72.94588989 131.87745972 72.72729492 133.46606445 C72.57623291 134.59230225 72.4251709 135.71854004 72.26953125 136.87890625 C68.67026921 161.72603561 62.8565892 186.66961367 51.42041016 209.16601562 C50.56829781 210.8576908 49.7864518 212.58444401 49.01953125 214.31640625 C49.34953125 214.97640625 49.67953125 215.63640625 50.01953125 216.31640625 C51.23576172 215.17365234 51.23576172 215.17365234 52.4765625 214.0078125 C57.7064072 209.12153424 62.93287864 204.29728124 68.51953125 199.81640625 C73.92120623 195.47929496 78.96462272 190.81909134 84.0234375 186.09375 C86.35093858 183.92291462 88.72244477 181.8193665 91.14453125 179.75390625 C109.58889109 163.62959167 127.57071535 141.5158107 129.39453125 116.05078125 C129.80976972 106.19404433 128.76134547 97.08464505 122.76953125 88.87890625 C118.43065532 84.83586277 114.38495342 82.69656339 108.51953125 81.75390625 C102.86480889 82.66270092 99.02333306 85.02950662 95.25 89.3359375 Z " fill="#E8A000" transform="translate(284.98046875,37.68359375)"/>
<path d="M0 0 C0.33 0 0.66 0 1 0 C1 4.29 1 8.58 1 13 C0.34 13 -0.32 13 -1 13 C-1.4021875 14.2375 -1.4021875 14.2375 -1.8125 15.5 C-3 19 -3 19 -4.5859375 22.33984375 C-6.86944946 28.40183373 -6.05392053 34.69911169 -5.8125 41.0625 C-5.6041819 52.73120665 -6.41028893 60.64646664 -12 71 C-12.6093596 72.33979065 -13.20650843 73.68518499 -13.79296875 75.03515625 C-32.45418363 117.57685632 -67.01223904 154.53581757 -110.625 171.75 C-112.74384625 172.51721286 -114.86884814 173.26766351 -117 174 C-118.01191406 174.35835937 -119.02382812 174.71671875 -120.06640625 175.0859375 C-129.15804236 178.11268995 -138.50148092 179.83829358 -148 181 C-149.08796875 181.14566406 -150.1759375 181.29132813 -151.296875 181.44140625 C-154 181 -154 181 -156.01953125 178.54296875 C-156.61121094 177.43566406 -157.20289063 176.32835937 -157.8125 175.1875 C-158.49765164 173.97820572 -159.18920418 172.77251833 -159.88671875 171.5703125 C-160.23653809 170.96477539 -160.58635742 170.35923828 -160.94677734 169.73535156 C-166.79652823 160.09695813 -175.50144394 152.26812433 -183.51708984 144.45117188 C-184.25113037 143.7328418 -184.25113037 143.7328418 -185 143 C-185.77331665 142.30112671 -185.77331665 142.30112671 -186.56225586 141.58813477 C-188.26194849 139.71065123 -189.07087787 137.9568087 -190.04296875 135.62109375 C-190.56987305 134.36329102 -190.56987305 134.36329102 -191.10742188 133.08007812 C-191.46384766 132.20802734 -191.82027344 131.33597656 -192.1875 130.4375 C-192.73954102 129.12362305 -192.73954102 129.12362305 -193.30273438 127.78320312 C-196 121.28274293 -196 121.28274293 -196 119 C-195.34 119 -194.68 119 -194 119 C-193.7525 118.38125 -193.505 117.7625 -193.25 117.125 C-191.77952822 114.62519797 -190.58596924 114.16683978 -188 113 C-187.62488281 113.61488281 -187.24976563 114.22976562 -186.86328125 114.86328125 C-186.35152344 115.67152344 -185.83976563 116.47976562 -185.3125 117.3125 C-184.56419922 118.51326172 -184.56419922 118.51326172 -183.80078125 119.73828125 C-181.79353986 122.25930677 -179.83279219 123.50880275 -177 125 C-178.16232689 116.93532973 -178.16232689 116.93532973 -180.1875 109.0625 C-181.09447489 105.64390233 -181.02850189 104.34625264 -180 101 C-178.55794661 98.785418 -177.09829431 96.71864082 -175.5 94.625 C-166.57969402 82.51405561 -159.40695562 69.59147147 -153 56 C-152.48824219 54.91847656 -151.97648437 53.83695313 -151.44921875 52.72265625 C-146.71239841 42.18929566 -143.28900118 31.18904425 -139.75268555 20.20800781 C-139 18 -139 18 -138 16 C-137.2013855 15.99191315 -136.402771 15.98382629 -135.57995605 15.97549438 C-127.93491385 15.89651107 -120.29003496 15.80894088 -112.64519501 15.71247292 C-108.71792392 15.66319866 -104.79067131 15.61688351 -100.86328125 15.578125 C-82.49573803 15.3944382 -64.28324944 14.95738405 -46 13 C-44.97539169 12.89086777 -43.95078339 12.78173553 -42.89512634 12.66929626 C-20.92446682 10.67455045 -20.92446682 10.67455045 -1 2 C-0.67 1.34 -0.34 0.68 0 0 Z " fill="#FEB905" transform="translate(362,108)"/>
<path d="M0 0 C1.39456452 0.00667256 2.78911118 0.01863093 4.18359375 0.03515625 C5.2499707 0.04192383 5.2499707 0.04192383 6.33789062 0.04882812 C8.09899388 0.06064761 9.86005411 0.07858362 11.62109375 0.09765625 C12.11609375 4.05765625 12.11609375 4.05765625 12.62109375 8.09765625 C16.4075267 9.77973334 19.89713841 10.59165312 23.99609375 11.16015625 C25.07632813 11.31613281 26.1565625 11.47210938 27.26953125 11.6328125 C40.84896396 13.20797273 54.46941166 13.33518578 68.12109375 13.34765625 C69.57494476 13.35016388 69.57494476 13.35016388 71.0581665 13.35272217 C95.75576701 13.65384388 95.75576701 13.65384388 119.62109375 8.09765625 C121.58932261 6.12942739 121.28357756 2.74956916 121.62109375 0.09765625 C126.24109375 0.09765625 130.86109375 0.09765625 135.62109375 0.09765625 C139.2427371 10.96258629 139.87830955 20.36069439 139.74609375 31.66015625 C139.73604298 33.16080131 139.72692084 34.6614529 139.71875 36.16210938 C139.69862036 39.80758746 139.65944513 43.45214429 139.62109375 47.09765625 C144.90109375 47.09765625 150.18109375 47.09765625 155.62109375 47.09765625 C160.5989504 58.71265509 164.07809146 69.20930425 164.18359375 81.91015625 C164.19801514 82.76375732 164.21243652 83.6173584 164.22729492 84.49682617 C164.2141626 85.29967041 164.20103027 86.10251465 164.1875 86.9296875 C164.17662354 87.63843018 164.16574707 88.34717285 164.15454102 89.07739258 C163.3602155 92.08565055 162.0678246 93.18635803 159.62109375 95.09765625 C156.96432467 95.48863534 154.72216908 95.63460867 152.06774902 95.59886169 C151.3035293 95.60439609 150.53930957 95.60993049 149.75193167 95.61563259 C147.1891088 95.62925462 144.62725722 95.61426207 142.06445312 95.59936523 C140.22800787 95.60314786 138.39156547 95.60864743 136.55513 95.61573792 C131.56546703 95.6297172 126.57614792 95.61850538 121.58650398 95.6020267 C116.36866093 95.58819223 111.15083816 95.59463445 105.9329834 95.59815979 C97.16994678 95.60086318 88.40704703 95.58737521 79.64404297 95.56420898 C69.50791409 95.53759846 59.37201409 95.53585168 49.23586226 95.54759735 C39.4915063 95.55837072 29.74723327 95.55219151 20.00288391 95.53804207 C15.85303287 95.53227845 11.70324244 95.53236791 7.5533905 95.53710747 C2.66796766 95.54187431 -2.21720406 95.53178769 -7.10257912 95.51015282 C-8.89728257 95.50458079 -10.69201013 95.50412346 -12.48671532 95.50910568 C-14.93327753 95.51504653 -17.37906884 95.502577 -19.82556152 95.4853363 C-20.53878901 95.49134635 -21.2520165 95.49735639 -21.98685694 95.50354856 C-25.02551427 95.46450703 -27.10913496 95.24731336 -29.7884903 93.76092625 C-33.63079212 89.74261561 -33.05177101 83.4616419 -32.94140625 78.2109375 C-32.35483802 69.98065206 -29.35238096 53.07113096 -23.37890625 47.09765625 C-20.84841223 47.02452058 -18.34585788 47.00518098 -15.81640625 47.03515625 C-15.10548828 47.03966797 -14.39457031 47.04417969 -13.66210938 47.04882812 C-11.90100612 47.06064761 -10.13994589 47.07858362 -8.37890625 47.09765625 C-8.39985352 46.27265625 -8.42080078 45.44765625 -8.44238281 44.59765625 C-9.12756731 13.51283035 -9.12756731 13.51283035 -4.37890625 1.09765625 C-3.37890625 0.09765625 -3.37890625 0.09765625 0 0 Z " fill="#A95342" transform="translate(189.37890625,391.90234375)"/>
<path d="M0 0 C13.70197711 11.57990856 20.13918549 23.73283733 21.77392578 41.26367188 C21.84853027 42.16666016 21.92313477 43.06964844 22 44 C22.08362793 45.00611328 22.16725586 46.01222656 22.25341797 47.04882812 C22.49650369 50.23975616 22.69639945 53.42984356 22.875 56.625 C22.96769165 58.11749268 22.96769165 58.11749268 23.06225586 59.64013672 C23.32128763 66.03461333 22.48681173 71.09451139 20 77 C3.93752693 79.98836708 3.93752693 79.98836708 -2.74609375 76.61328125 C-5.2396653 74.8199326 -7.63082259 72.95437193 -10 71 C-12.88131915 68.6518787 -15.31097817 66.73422279 -19 66 C-23.36178067 67.38571316 -27.06559611 69.69924045 -31 72 C-36.44126493 74.34522737 -41.08734422 75.37740356 -47 75 C-47.495 76.98 -47.495 76.98 -48 79 C-48.99 79 -49.98 79 -51 79 C-51.09023437 78.24074219 -51.18046875 77.48148437 -51.2734375 76.69921875 C-52.13485337 73.49901246 -53.01751188 72.77063297 -55.625 70.8125 C-62.29109626 65.32136315 -66.27929415 59.16211755 -69 51 C-77.58 51.99 -86.16 52.98 -95 54 C-95.9459465 60.16228003 -95.9459465 60.16228003 -96.88452148 66.32568359 C-97.00384033 67.09219238 -97.12315918 67.85870117 -97.24609375 68.6484375 C-97.36654053 69.43395996 -97.4869873 70.21948242 -97.61108398 71.02880859 C-98 73 -98 73 -99 75 C-101.64 75 -104.28 75 -107 75 C-109.77183664 70.16646668 -110.75036944 66.00656779 -111.3125 60.5625 C-111.39443604 59.77335205 -111.47637207 58.9842041 -111.56079102 58.17114258 C-113.08645764 40.74421119 -107.84657906 24.14328709 -96.96875 10.44140625 C-71.87074248 -18.5892116 -30.85703017 -23.67169326 0 0 Z " fill="#493D4B" transform="translate(288,40)"/>
<path d="M0 0 C5.1794729 7.76920936 5.58651813 16.90339895 6 26 C6.72960937 26.03738281 7.45921875 26.07476562 8.2109375 26.11328125 C44.63140832 28.40642201 44.63140832 28.40642201 54.4140625 37.16015625 C54.93742188 37.76730469 55.46078125 38.37445313 56 39 C55.5 41.25 55.5 41.25 54 44 C43.02017111 50.96796833 29.28529923 52.68725454 16.625 54.1875 C15.34367188 54.35185547 14.06234375 54.51621094 12.7421875 54.68554688 C-1.98357915 56.5114828 -16.61533164 57.15325278 -31.4375 57.09765625 C-32.9392085 57.09578392 -34.44091762 57.09436389 -35.94262695 57.09336853 C-39.83538595 57.08960737 -43.72810576 57.0798344 -47.62084961 57.06866455 C-51.61701935 57.05831019 -55.61319562 57.05384133 -59.609375 57.04882812 C-67.40626759 57.0382042 -75.20312824 57.02120806 -83 57 C-83.19358597 57.72508759 -83.38717194 58.45017517 -83.58662415 59.19723511 C-91.21267241 87.50706214 -102.81344767 114.87841351 -121.375 137.8125 C-124.77227264 142.11596441 -124.77227264 142.11596441 -125.1875 147.375 C-124.46759995 149.57258963 -123.72406469 151.76287998 -122.9375 153.9375 C-121.69183692 158.00666607 -121.83115391 161.77884771 -122 166 C-127.30380482 164.37939297 -129.65795973 161.48277451 -132.25 156.6875 C-132.4975 156.130625 -132.745 155.57375 -133 155 C-136.16115776 156.36983503 -136.9927092 156.9890638 -139 160 C-139.99 159.67 -140.98 159.34 -142 159 C-143.12231841 156.27751331 -144.00139014 153.69446743 -144.8125 150.875 C-145.06459229 150.01350342 -145.31668457 149.15200684 -145.57641602 148.2644043 C-147.92874296 139.86676413 -149.72862217 131.35904221 -151.4375 122.8125 C-151.57491608 122.14482605 -151.71233215 121.4771521 -151.85391235 120.78924561 C-153.38625247 113.27356464 -154.54206673 106.56753131 -153 99 C-152.82339844 97.94554687 -152.64679688 96.89109375 -152.46484375 95.8046875 C-152.29082031 94.83789062 -152.11679688 93.87109375 -151.9375 92.875 C-149.83516158 78.98339457 -149.98640012 66.02039982 -158 54 C-160.19965724 42.14224507 -160.19965724 42.14224507 -157.25 36.875 C-149.1023516 32.17443362 -139.45224138 29 -130 29 C-129.87882812 29.88042969 -129.75765625 30.76085937 -129.6328125 31.66796875 C-129.46523437 32.82941406 -129.29765625 33.99085937 -129.125 35.1875 C-128.96257812 36.33605469 -128.80015625 37.48460937 -128.6328125 38.66796875 C-128.05939755 41.68724625 -127.25240957 44.20575848 -126 47 C-123.36 47.33 -120.72 47.66 -118 48 C-117.91435791 47.36908447 -117.82871582 46.73816895 -117.74047852 46.08813477 C-117.35216286 43.24564319 -116.95741919 40.40408131 -116.5625 37.5625 C-116.42779297 36.56927734 -116.29308594 35.57605469 -116.15429688 34.55273438 C-116.02216797 33.60849609 -115.89003906 32.66425781 -115.75390625 31.69140625 C-115.57323608 30.37958374 -115.57323608 30.37958374 -115.38891602 29.04125977 C-115 27 -115 27 -114 26 C-105.33489604 24.3065346 -96.81119142 23.70952116 -88 24 C-87.67128906 24.67804688 -87.34257812 25.35609375 -87.00390625 26.0546875 C-82.36775315 35.12596809 -76.17547594 41.87322639 -69 49 C-69.33 49.99 -69.66 50.98 -70 52 C-69.01 52 -68.02 52 -67 52 C-66.67 50.68 -66.34 49.36 -66 48 C-64.80375 47.773125 -63.6075 47.54625 -62.375 47.3125 C-54.7082749 45.61148334 -46.6669519 43.19552943 -39.9140625 39.15234375 C-37 38 -37 38 -34.25390625 39.0625 C-33.36574219 39.701875 -32.47757812 40.34125 -31.5625 41 C-30.60214844 41.66128906 -29.64179688 42.32257813 -28.65234375 43.00390625 C-27.12795431 44.15112717 -25.62432769 45.33023462 -24.19140625 46.58984375 C-19.47926355 50.64393161 -15.2019494 50.4809588 -9.11328125 50.2421875 C-5.69280729 49.97610295 -2.37230798 49.62740614 1 49 C3.10205402 42.24108783 3.13687336 36.28361082 2.75 29.25 C2.6737439 27.65418091 2.6737439 27.65418091 2.59594727 26.02612305 C2.25654668 19.67100537 1.71428001 13.50362251 0.40234375 7.26953125 C-0.03430864 4.80647265 -0.06651059 2.49636418 0 0 Z " fill="#FEC636" transform="translate(307,67)"/>
<path d="M0 0 C1.48831242 0.00667405 2.97660807 0.01863442 4.46484375 0.03515625 C5.22345703 0.03966797 5.98207031 0.04417969 6.76367188 0.04882812 C8.64326246 0.06064945 10.52281274 0.07858547 12.40234375 0.09765625 C12.45132813 1.15726562 12.5003125 2.216875 12.55078125 3.30859375 C12.62581084 4.69664122 12.7013586 6.08466076 12.77734375 7.47265625 C12.80828125 8.17132813 12.83921875 8.87 12.87109375 9.58984375 C12.99733873 13.79951452 12.99733873 13.79951452 15.40234375 17.09765625 C17.93604233 17.40258661 17.93604233 17.40258661 20.93760681 17.35162354 C22.11400223 17.35726318 23.29039764 17.36290283 24.50244141 17.36871338 C25.79964111 17.36466492 27.09684082 17.36061646 28.43334961 17.35644531 C29.80807175 17.35915425 31.18279245 17.36271464 32.55751038 17.36706543 C36.29717955 17.37620414 40.0367387 17.3726389 43.77640986 17.36630726 C47.68546142 17.36125389 51.59450338 17.36593696 55.5035553 17.36907959 C62.0700144 17.37272161 68.63642857 17.36791443 75.20288086 17.35839844 C82.79869343 17.34751795 90.39439861 17.35103554 97.99020857 17.36205125 C104.50575014 17.37112283 111.02125936 17.3724099 117.53680521 17.36717391 C121.43083968 17.36405291 125.32482366 17.36364832 129.2188549 17.37024689 C132.88042293 17.3760177 136.54185235 17.37202837 140.20340538 17.36045837 C142.19117415 17.35654526 144.17895462 17.36250003 146.16671753 17.36871338 C147.34593277 17.36307373 148.52514801 17.35743408 149.74009705 17.35162354 C151.28066473 17.35049246 151.28066473 17.35049246 152.852355 17.34933853 C155.64502515 17.27552414 155.64502515 17.27552414 158.40234375 15.09765625 C158.78898149 12.47088078 159.00411974 10.10651944 159.08984375 7.47265625 C159.24453125 3.82203125 159.24453125 3.82203125 159.40234375 0.09765625 C164.68234375 0.09765625 169.96234375 0.09765625 175.40234375 0.09765625 C180.3802004 11.71265509 183.85934146 22.20930425 183.96484375 34.91015625 C183.97926514 35.76375732 183.99368652 36.6173584 184.00854492 37.49682617 C183.9954126 38.29967041 183.98228027 39.10251465 183.96875 39.9296875 C183.95787354 40.63843018 183.94699707 41.34717285 183.93579102 42.07739258 C183.1414655 45.08565055 181.8490746 46.18635803 179.40234375 48.09765625 C176.74557467 48.48863534 174.50341908 48.63460867 171.84899902 48.59886169 C171.0847793 48.60439609 170.32055957 48.60993049 169.53318167 48.61563259 C166.9703588 48.62925462 164.40850722 48.61426207 161.84570312 48.59936523 C160.00925787 48.60314786 158.17281547 48.60864743 156.33638 48.61573792 C151.34671703 48.6297172 146.35739792 48.61850538 141.36775398 48.6020267 C136.14991093 48.58819223 130.93208816 48.59463445 125.7142334 48.59815979 C116.95119678 48.60086318 108.18829703 48.58737521 99.42529297 48.56420898 C89.28916409 48.53759846 79.15326409 48.53585168 69.01711226 48.54759735 C59.2727563 48.55837072 49.52848327 48.55219151 39.78413391 48.53804207 C35.63428287 48.53227845 31.48449244 48.53236791 27.3346405 48.53710747 C22.44921766 48.54187431 17.56404594 48.53178769 12.67867088 48.51015282 C10.88396743 48.50458079 9.08923987 48.50412346 7.29453468 48.50910568 C4.84797247 48.51504653 2.40218116 48.502577 -0.04431152 48.4853363 C-1.11415275 48.49435137 -1.11415275 48.49435137 -2.20560694 48.50354856 C-5.24426427 48.46450703 -7.32788496 48.24731336 -10.0072403 46.76092625 C-13.84954212 42.74261561 -13.27052101 36.4616419 -13.16015625 31.2109375 C-12.60415463 23.40953976 -8.95971828 0.24320625 0 0 Z " fill="#453847" transform="translate(169.59765625,438.90234375)"/>
<path d="M0 0 C4.70869289 3.83899028 7.90436809 8.13203349 10.78125 13.45703125 C11.77125 11.97203125 11.77125 11.97203125 12.78125 10.45703125 C13.58080001 11.97373489 14.37046388 13.49565123 15.15625 15.01953125 C15.81753906 16.28990234 15.81753906 16.28990234 16.4921875 17.5859375 C22.45935726 30.87645196 19.79926931 44.78612237 16.78125 58.45703125 C15.79125 57.46703125 14.80125 56.47703125 13.78125 55.45703125 C13.61109375 56.21628906 13.4409375 56.97554687 13.265625 57.7578125 C12.90210938 59.24861328 12.90210938 59.24861328 12.53125 60.76953125 C12.29921875 61.75566406 12.0671875 62.74179688 11.828125 63.7578125 C10.62722709 66.85415749 9.68389866 67.89571746 6.78125 69.45703125 C0.79315217 69.24692255 0.79315217 69.24692255 -1.91015625 67.13671875 C-4.33784417 64.02058202 -3.61580031 60.18319574 -3.21875 56.45703125 C-2.74694013 53.95155815 -2.24473309 51.45169391 -1.71875 48.95703125 C0.54519125 38.20599269 1.02689336 28.3115995 -4.90625 18.64453125 C-7.9140211 14.46869371 -10.43753009 12.38629543 -15.21875 10.45703125 C-21.13861172 9.59596045 -25.35134343 11.24049562 -30.21875 14.45703125 C-35.72612591 19.50545917 -38.06338876 27.16441889 -38.609375 34.4609375 C-39.61785172 59.15445324 -26.65541904 79.52021563 -10.47265625 97.08203125 C-4.33222494 103.55236441 1.98716272 109.67867131 8.78125 115.45703125 C11.05358423 117.39277687 13.32427016 119.33043993 15.59375 121.26953125 C16.19743408 121.78515625 16.80111816 122.30078125 17.4230957 122.83203125 C22.13884358 126.87392042 26.74783039 131.01501645 31.3203125 135.21875 C33.52155735 137.2208346 35.76289116 139.1569681 38.03125 141.08203125 C42.02003153 144.56212202 45.38796457 148.40451859 48.78125 152.45703125 C49.56628906 153.35421875 50.35132813 154.25140625 51.16015625 155.17578125 C60.1807506 165.64242508 69.59180825 177.12260527 69.78125 191.45703125 C69.03465924 198.86368563 66.38882866 204.33107564 60.71875 209.26953125 C55.23469278 213.35340365 49.39709813 213.20236098 42.78125 212.45703125 C38.53959314 210.83442918 35.68762728 208.53335427 32.78125 205.08203125 C31.46258604 201.62053837 31.31368851 199.1307287 31.78125 195.45703125 C33.34375 193.01953125 33.34375 193.01953125 35.78125 191.45703125 C39.28125 190.95703125 39.28125 190.95703125 42.78125 191.45703125 C45.21875 193.33203125 45.21875 193.33203125 46.78125 195.45703125 C46.78125 196.11703125 46.78125 196.77703125 46.78125 197.45703125 C50.50739153 196.33848539 50.50739153 196.33848539 52.78125 193.45703125 C53.6468664 183.41588107 49.22172499 177.57542586 42.98828125 170.03515625 C34.52246302 160.14588186 25.87134024 151.03900039 15.71484375 142.8828125 C11.51935052 139.41356977 7.55022147 135.71897755 3.55859375 132.01953125 C1.28473777 129.9215713 -1.00901748 127.86141646 -3.34375 125.83203125 C-20.23563039 111.14343961 -34.84774834 96.44133582 -45.21875 76.45703125 C-45.70085937 75.5340625 -46.18296875 74.61109375 -46.6796875 73.66015625 C-54.65420924 57.3244693 -57.50824518 37.89317163 -52.65625 20.14453125 C-48.72354663 9.70774153 -42.07019122 1.51312634 -32.1015625 -3.63671875 C-21.35756714 -7.88709054 -9.41897895 -6.55017022 0 0 Z " fill="#FDD720" transform="translate(137.21875,110.54296875)"/>
<path d="M0 0 C0.68578125 0.4125 1.3715625 0.825 2.078125 1.25 C10.48456356 6.89707323 15.69311042 15.30650781 18.33984375 24.98828125 C22.80821888 48.06386049 16.13343547 70.80131275 3.390625 90.0859375 C-2.62972147 98.7260668 -9.67083257 106.46317727 -17 114 C-17.74378906 114.77214844 -18.48757813 115.54429687 -19.25390625 116.33984375 C-23.63412767 120.80578379 -28.2425654 124.94218814 -33 129 C-35.29248093 130.95738177 -37.58404933 132.91582742 -39.875 134.875 C-40.78427246 135.65218384 -40.78427246 135.65218384 -41.71191406 136.44506836 C-46.12557755 140.2267701 -50.46773297 144.07946944 -54.76953125 147.98828125 C-56.84188166 149.85738889 -58.94519825 151.6821987 -61.0625 153.5 C-78.71481917 168.87339418 -78.71481917 168.87339418 -88.296875 189.4140625 C-88.36917932 191.69164852 -88.40029941 193.75646146 -88 196 C-85.8614515 198.1385485 -84.86724686 198.42655063 -82 199 C-81.566875 197.7934375 -81.566875 197.7934375 -81.125 196.5625 C-80 194 -80 194 -78 193 C-74.16385043 192.64480097 -71.85370366 192.45275406 -68.5625 194.5625 C-66.34880148 198.01586969 -66.38318827 199.95645644 -67 204 C-68.84062668 207.81440508 -71.1978601 210.39350398 -74.5625 212.9375 C-80.78124873 214.8596587 -87.16105874 214.89374077 -93.375 212.9375 C-99.87350625 208.14098348 -103.52005671 202.73772162 -104.75 194.75 C-105.7716196 183.06884003 -100.02504172 173.52448441 -92.875 164.6875 C-91.25557314 162.78690387 -89.63016533 160.89139367 -88 159 C-87.07991291 157.88586059 -86.16202552 156.76990175 -85.24609375 155.65234375 C-75.83879999 144.2753433 -65.30235792 134.53723134 -53.7890625 125.31640625 C-49.36678067 121.64355874 -45.19988009 117.70394554 -41 113.78125 C-38.64983283 111.58932351 -36.25562396 109.46347694 -33.8125 107.375 C-15.78743242 91.6124932 1.5947912 69.59054042 3.375 44.734375 C3.79140553 34.82282762 2.39869624 26.70495441 -2.75 18.0625 C-6.85196281 14.30236743 -11.00998201 12.31982432 -16.5 11.4375 C-21.96208819 12.3153356 -25.92370439 14.58814146 -29.546875 18.796875 C-35.04655327 26.88463717 -36.14204679 36.46276142 -34.34375 45.96484375 C-34.06712801 47.29003699 -33.78580131 48.61425608 -33.5 49.9375 C-32.34326834 55.72720394 -31.39941024 61.09420073 -32 67 C-34.05729246 69.61447583 -35.05506045 70.01631421 -38.375 71 C-42 71 -42 71 -44.61328125 68.86328125 C-51.04841472 61.14322751 -50.28857411 49.39543236 -50.375 39.8125 C-50.39590698 38.31722778 -50.39590698 38.31722778 -50.41723633 36.79174805 C-50.34094888 24.78093297 -47.27854159 14.04816927 -39.18359375 4.9609375 C-28.53748085 -5.14749293 -12.78176249 -7.92667441 0 0 Z " fill="#FDD720" transform="translate(410,109)"/>
<path d="M0 0 C16.83 0 33.66 0 51 0 C47.535 5.94 47.535 5.94 44 12 C39.89960144 22.9960563 37.53436988 35.99537251 41.5625 47.3125 C48.21654454 61.45524276 59.60821255 67.77087933 73.4609375 73.51953125 C76.0407898 74.59874099 78.52825841 75.70075121 81 77 C81.08107583 78.93681161 81.13922475 80.8745934 81.1875 82.8125 C81.23970703 84.43091797 81.23970703 84.43091797 81.29296875 86.08203125 C81 89 81 89 79.73999023 90.62524414 C77.70524157 92.23288687 76.41910467 92.54836543 73.8671875 92.9140625 C72.65675781 93.09582031 72.65675781 93.09582031 71.421875 93.28125 C70.58140625 93.3946875 69.7409375 93.508125 68.875 93.625 C67.64910156 93.80675781 67.64910156 93.80675781 66.3984375 93.9921875 C63.93408162 94.35092285 61.47098523 94.68973978 59 95 C58.35279999 95.08520905 57.70559998 95.17041809 57.03878784 95.25820923 C51.34829703 95.95953264 45.75326842 96.14616039 40.0234375 96.1328125 C39.09512115 96.13376923 38.16680481 96.13472595 37.21035767 96.13571167 C35.25563489 96.13638825 33.30090979 96.13457062 31.34619141 96.13037109 C28.40391798 96.12505228 25.46179977 96.13031502 22.51953125 96.13671875 C8.65662147 96.14279515 -5.11522518 95.94092261 -18.8125 93.5625 C-19.58658203 93.44068359 -20.36066406 93.31886719 -21.15820312 93.19335938 C-26.74902344 92.25097656 -26.74902344 92.25097656 -29 90 C-29.4140625 86.9609375 -29.4140625 86.9609375 -29.625 83.375 C-29.69976562 82.18648438 -29.77453125 80.99796875 -29.8515625 79.7734375 C-29.90054688 78.85820312 -29.94953125 77.94296875 -30 77 C-29.410979 76.764021 -28.82195801 76.52804199 -28.21508789 76.28491211 C-25.49134251 75.18383491 -22.77712825 74.06085723 -20.0625 72.9375 C-18.67321289 72.3815918 -18.67321289 72.3815918 -17.25585938 71.81445312 C-7.90492847 67.91002934 0.09153892 62.33332083 6 54 C6.48726562 53.3296875 6.97453125 52.659375 7.4765625 51.96875 C13.28672525 42.49071914 12.15729886 29.99060299 9.8125 19.5 C7.69652244 12.27960266 4.5043355 6.00578067 0 0 Z " fill="#FDD720" transform="translate(230,310)"/>
<path d="M0 0 C5.1794729 7.76920936 5.58651813 16.90339895 6 26 C6.72960937 26.03738281 7.45921875 26.07476562 8.2109375 26.11328125 C44.63140832 28.40642201 44.63140832 28.40642201 54.4140625 37.16015625 C54.93742188 37.76730469 55.46078125 38.37445313 56 39 C55.5 41.25 55.5 41.25 54 44 C43.02017111 50.96796833 29.28529923 52.68725454 16.625 54.1875 C15.34367188 54.35185547 14.06234375 54.51621094 12.7421875 54.68554688 C-1.98357915 56.5114828 -16.61533164 57.15325278 -31.4375 57.09765625 C-32.9392085 57.09578392 -34.44091762 57.09436389 -35.94262695 57.09336853 C-39.83538595 57.08960737 -43.72810576 57.0798344 -47.62084961 57.06866455 C-51.61701935 57.05831019 -55.61319562 57.05384133 -59.609375 57.04882812 C-67.40626759 57.0382042 -75.20312824 57.02120806 -83 57 C-83.495 57.99 -83.495 57.99 -84 59 C-84 58.34 -84 57.68 -84 57 C-85.2375 56.96261719 -86.475 56.92523438 -87.75 56.88671875 C-142.77483964 54.92289099 -142.77483964 54.92289099 -157 44 C-158.25 41.84375 -158.25 41.84375 -159 40 C-153.06615473 32.63384725 -143.06739477 30.36459803 -134 29 C-132.68 29 -131.36 29 -130 29 C-129.87882812 29.88042969 -129.75765625 30.76085937 -129.6328125 31.66796875 C-129.46523437 32.82941406 -129.29765625 33.99085937 -129.125 35.1875 C-128.96257812 36.33605469 -128.80015625 37.48460937 -128.6328125 38.66796875 C-128.05939755 41.68724625 -127.25240957 44.20575848 -126 47 C-123.36 47.33 -120.72 47.66 -118 48 C-117.91435791 47.36908447 -117.82871582 46.73816895 -117.74047852 46.08813477 C-117.35216286 43.24564319 -116.95741919 40.40408131 -116.5625 37.5625 C-116.42779297 36.56927734 -116.29308594 35.57605469 -116.15429688 34.55273438 C-116.02216797 33.60849609 -115.89003906 32.66425781 -115.75390625 31.69140625 C-115.57323608 30.37958374 -115.57323608 30.37958374 -115.38891602 29.04125977 C-115 27 -115 27 -114 26 C-105.33489604 24.3065346 -96.81119142 23.70952116 -88 24 C-87.67128906 24.67804688 -87.34257812 25.35609375 -87.00390625 26.0546875 C-82.36775315 35.12596809 -76.17547594 41.87322639 -69 49 C-69.33 49.99 -69.66 50.98 -70 52 C-69.01 52 -68.02 52 -67 52 C-66.67 50.68 -66.34 49.36 -66 48 C-64.80375 47.773125 -63.6075 47.54625 -62.375 47.3125 C-54.7082749 45.61148334 -46.6669519 43.19552943 -39.9140625 39.15234375 C-37 38 -37 38 -34.25390625 39.0625 C-33.36574219 39.701875 -32.47757812 40.34125 -31.5625 41 C-30.60214844 41.66128906 -29.64179688 42.32257813 -28.65234375 43.00390625 C-27.12795431 44.15112717 -25.62432769 45.33023462 -24.19140625 46.58984375 C-19.47926355 50.64393161 -15.2019494 50.4809588 -9.11328125 50.2421875 C-5.69280729 49.97610295 -2.37230798 49.62740614 1 49 C3.10205402 42.24108783 3.13687336 36.28361082 2.75 29.25 C2.6737439 27.65418091 2.6737439 27.65418091 2.59594727 26.02612305 C2.25654668 19.67100537 1.71428001 13.50362251 0.40234375 7.26953125 C-0.03430864 4.80647265 -0.06651059 2.49636418 0 0 Z " fill="#FDD621" transform="translate(307,67)"/>
<path d="M0 0 C1.39456452 0.00667256 2.78911118 0.01863093 4.18359375 0.03515625 C4.89451172 0.03966797 5.60542969 0.04417969 6.33789062 0.04882812 C8.09899388 0.06064761 9.86005411 0.07858362 11.62109375 0.09765625 C11.95109375 2.73765625 12.28109375 5.37765625 12.62109375 8.09765625 C16.4075267 9.77973334 19.89713841 10.59165312 23.99609375 11.16015625 C25.07632813 11.31613281 26.1565625 11.47210938 27.26953125 11.6328125 C40.84896396 13.20797273 54.46941166 13.33518578 68.12109375 13.34765625 C69.57494476 13.35016388 69.57494476 13.35016388 71.0581665 13.35272217 C95.75576701 13.65384388 95.75576701 13.65384388 119.62109375 8.09765625 C121.58932261 6.12942739 121.28357756 2.74956916 121.62109375 0.09765625 C126.24109375 0.09765625 130.86109375 0.09765625 135.62109375 0.09765625 C138.59726025 9.02615576 139.93549884 16.74657909 139.95703125 26.15234375 C139.96701645 27.68739059 139.96701645 27.68739059 139.97720337 29.25344849 C139.98726678 31.39974178 139.99202236 33.54606596 139.99169922 35.69238281 C139.99610926 38.98423615 140.03259602 42.27478628 140.0703125 45.56640625 C140.07617452 47.65754752 140.08014802 49.74869512 140.08203125 51.83984375 C140.09640228 52.82419403 140.11077332 53.80854431 140.12557983 54.82272339 C140.11942657 55.73442291 140.11327332 56.64612244 140.10693359 57.58544922 C140.10978363 58.38659149 140.11263367 59.18773376 140.11557007 60.01315308 C139.62109375 62.09765625 139.62109375 62.09765625 137.95243645 63.70538998 C135.03632965 65.44687447 133.21133258 65.46752248 129.82513428 65.4584198 C128.04991394 65.46460579 128.04991394 65.46460579 126.23883057 65.47091675 C124.94410828 65.46013092 123.64938599 65.44934509 122.31542969 65.43823242 C120.93554706 65.43738602 119.55566309 65.43786155 118.17578125 65.43955994 C114.43221743 65.44042082 110.68894188 65.4227802 106.94544506 65.40183806 C103.03235014 65.38308668 99.11924864 65.38132204 95.20611572 65.37776184 C87.79716483 65.36843684 80.3883467 65.34381694 72.97945428 65.31371337 C64.54423241 65.2801835 56.1090042 65.26368691 47.67373228 65.24862707 C30.32277597 65.21726775 12.9719489 65.16449844 -4.37890625 65.09765625 C-2.01240472 62.73115472 -1.42748544 62.81552058 1.80078125 62.640625 C3.13629028 62.55409668 3.13629028 62.55409668 4.4987793 62.46582031 C5.48789307 62.40620117 6.47700684 62.34658203 7.49609375 62.28515625 C74.86728663 57.86924107 74.86728663 57.86924107 132.62109375 27.09765625 C134.60109375 24.78765625 136.58109375 22.47765625 138.62109375 20.09765625 C90.11109375 20.09765625 41.60109375 20.09765625 -8.37890625 20.09765625 C-5.05364004 0.14605896 -5.05364004 0.14605896 0 0 Z " fill="#994234" transform="translate(189.37890625,391.90234375)"/>
<path d="M0 0 C1.48831242 0.00667405 2.97660807 0.01863442 4.46484375 0.03515625 C5.22345703 0.03966797 5.98207031 0.04417969 6.76367188 0.04882812 C8.64326246 0.06064945 10.52281274 0.07858547 12.40234375 0.09765625 C12.45132813 1.15726562 12.5003125 2.216875 12.55078125 3.30859375 C12.62581084 4.69664122 12.7013586 6.08466076 12.77734375 7.47265625 C12.80828125 8.17132813 12.83921875 8.87 12.87109375 9.58984375 C12.99733873 13.79951452 12.99733873 13.79951452 15.40234375 17.09765625 C17.93604233 17.40258661 17.93604233 17.40258661 20.93760681 17.35162354 C22.11400223 17.35726318 23.29039764 17.36290283 24.50244141 17.36871338 C25.79964111 17.36466492 27.09684082 17.36061646 28.43334961 17.35644531 C29.80807175 17.35915425 31.18279245 17.36271464 32.55751038 17.36706543 C36.29717955 17.37620414 40.0367387 17.3726389 43.77640986 17.36630726 C47.68546142 17.36125389 51.59450338 17.36593696 55.5035553 17.36907959 C62.0700144 17.37272161 68.63642857 17.36791443 75.20288086 17.35839844 C82.79869343 17.34751795 90.39439861 17.35103554 97.99020857 17.36205125 C104.50575014 17.37112283 111.02125936 17.3724099 117.53680521 17.36717391 C121.43083968 17.36405291 125.32482366 17.36364832 129.2188549 17.37024689 C132.88042293 17.3760177 136.54185235 17.37202837 140.20340538 17.36045837 C142.19117415 17.35654526 144.17895462 17.36250003 146.16671753 17.36871338 C147.34593277 17.36307373 148.52514801 17.35743408 149.74009705 17.35162354 C151.28066473 17.35049246 151.28066473 17.35049246 152.852355 17.34933853 C155.64502515 17.27552414 155.64502515 17.27552414 158.40234375 15.09765625 C158.78898149 12.47088078 159.00411974 10.10651944 159.08984375 7.47265625 C159.24453125 3.82203125 159.24453125 3.82203125 159.40234375 0.09765625 C164.68234375 0.09765625 169.96234375 0.09765625 175.40234375 0.09765625 C178.78281425 7.98542074 178.78281425 7.98542074 179.7890625 11.39453125 C180.00498047 12.12542969 180.22089844 12.85632813 180.44335938 13.609375 C180.65669922 14.34800781 180.87003906 15.08664062 181.08984375 15.84765625 C181.42725586 16.97880859 181.42725586 16.97880859 181.77148438 18.1328125 C182.67037822 21.20926986 183.40234375 23.87569645 183.40234375 27.09765625 C119.05234375 27.09765625 54.70234375 27.09765625 -11.59765625 27.09765625 C-10.47158973 19.21519064 -10.47158973 19.21519064 -9.22265625 15.29296875 C-8.9596875 14.4628125 -8.69671875 13.63265625 -8.42578125 12.77734375 C-8.1525 11.93429687 -7.87921875 11.09125 -7.59765625 10.22265625 C-7.324375 9.35640625 -7.05109375 8.49015625 -6.76953125 7.59765625 C-4.37818667 0.11884329 -4.37818667 0.11884329 0 0 Z " fill="#1B0D1C" transform="translate(169.59765625,438.90234375)"/>
<path d="M0 0 C7.09791688 1.69520695 13.54827781 8.40080944 18 14 C20.14556304 18.32993472 20.6640781 22.20923687 21 27 C21.08652832 27.70495605 21.17305664 28.40991211 21.26220703 29.13623047 C22.91474333 42.85612487 22.91474333 42.85612487 18.6796875 48.7109375 C14.96271436 53.07032686 10.64047062 56.65223191 6 60 C3.32590177 58.71444659 0.85562515 57.31365824 -1.6015625 55.65234375 C-2.58382813 54.99202148 -2.58382813 54.99202148 -3.5859375 54.31835938 C-4.25882812 53.86267578 -4.93171875 53.40699219 -5.625 52.9375 C-6.97066263 52.02892286 -8.31698681 51.12132453 -9.6640625 50.21484375 C-10.55279053 49.61337524 -10.55279053 49.61337524 -11.45947266 48.99975586 C-13.03884713 47.93400598 -13.03884713 47.93400598 -15 47 C-14.98952637 46.35039307 -14.97905273 45.70078613 -14.96826172 45.03149414 C-14.92627038 42.04186999 -14.90053833 39.05230821 -14.875 36.0625 C-14.85824219 35.04091797 -14.84148437 34.01933594 -14.82421875 32.96679688 C-14.79274789 28.04160729 -14.91932716 23.88779344 -16.42578125 19.1796875 C-17.10491385 16.5033371 -17.30928663 15.52937181 -15.90039062 13.11791992 C-14.14506377 11.24837306 -12.31625924 9.66204268 -10.3125 8.0625 C-9.66087891 7.49982422 -9.00925781 6.93714844 -8.33789062 6.35742188 C-5.64182762 4.05241193 -2.95493524 1.96995683 0 0 Z " fill="#D9E1E3" transform="translate(286,56)"/>
<path d="M0 0 C7.80456687 5.05001386 11.16300581 13.36989751 13.40234375 22.04077148 C14.36153615 26.79010609 14.49057059 31.41687413 14.4375 36.25 C14.42775146 37.25579102 14.41800293 38.26158203 14.40795898 39.29785156 C13.73914138 67.58316841 -2.99901181 90.46066198 -22 110 C-22.74378906 110.77214844 -23.48757813 111.54429687 -24.25390625 112.33984375 C-28.63412767 116.80578379 -33.2425654 120.94218814 -38 125 C-40.29248093 126.95738177 -42.58404933 128.91582742 -44.875 130.875 C-45.48118164 131.39312256 -46.08736328 131.91124512 -46.71191406 132.44506836 C-51.12557755 136.2267701 -55.46773297 140.07946944 -59.76953125 143.98828125 C-61.84188166 145.85738889 -63.94519825 147.6821987 -66.0625 149.5 C-78.35909923 160.29340774 -92.77355728 173.82980186 -94 191 C-96.32758311 190.06896676 -97.74357132 189.34617872 -99.25 187.3125 C-101.02798937 181.8303661 -100.23271222 177.9140801 -97.6875 172.875 C-88.46596025 157.13404609 -73.82892949 143.32332698 -59.62109375 132.11328125 C-55.7791235 129.01565695 -52.17854976 125.67132541 -48.546875 122.33203125 C-46.41058251 120.37594748 -44.25219343 118.45812303 -42.0625 116.5625 C-16.15281913 93.93789114 5.62041024 68.21510706 8.1875 32.3828125 C8.4548151 21.92410929 6.68752735 13.1684064 1.2421875 4.1796875 C0 2 0 2 0 0 Z " fill="#FEBB06" transform="translate(415,113)"/>
<path d="M0 0 C1.37134601 2.72168671 2.72204712 5.4506488 4.0625 8.1875 C4.45244141 8.95642578 4.84238281 9.72535156 5.24414062 10.51757812 C7.98648918 16.17215523 7.98648918 16.17215523 8.04296875 19.6328125 C6.56365139 22.99036426 4.47112677 25.79554159 2.25 28.6875 C1.37264395 29.83147772 0.50294505 30.98136479 -0.359375 32.13671875 C-0.80772705 32.73484375 -1.2560791 33.33296875 -1.71801758 33.94921875 C-3.10751191 36.01836344 -3.10751191 36.01836344 -3.9753418 38.62890625 C-5.05700505 41.51817083 -5.99783985 43.64270732 -8 46 C-12.40536535 47.53218531 -16.67846577 47.58013038 -21.3125 47.625 C-22.53001953 47.67527344 -23.74753906 47.72554687 -25.00195312 47.77734375 C-28.00259757 47.89501608 -30.99742241 47.96759466 -34 48 C-37.57621957 39.60497609 -41.0587652 31.2095015 -38.03125 22.078125 C-34.29760145 14.73528286 -28.78842331 8.78842331 -23 3 C-20.27249111 2.42967582 -17.55649825 1.91422123 -14.8125 1.4375 C-14.05646484 1.29892578 -13.30042969 1.16035156 -12.52148438 1.01757812 C-8.2926625 0.2730414 -4.31316217 -0.15821807 0 0 Z " fill="#D0DADC" transform="translate(226,42)"/>
<path d="M0 0 C0.57363281 0.12117188 1.14726562 0.24234375 1.73828125 0.3671875 C19.33410511 3.83829084 36.93164704 4.39888781 54.8125 4.375 C55.92420563 4.3764502 57.03591125 4.37790039 58.18130493 4.37939453 C76.08782914 4.37681997 93.37887321 3.3273289 111 0 C111.08107583 1.93681161 111.13922475 3.8745934 111.1875 5.8125 C111.23970703 7.43091797 111.23970703 7.43091797 111.29296875 9.08203125 C111 12 111 12 109.74658203 13.82958984 C107.71905688 15.1882641 106.27836527 15.56853379 103.8671875 15.9140625 C103.06023437 16.03523438 102.25328125 16.15640625 101.421875 16.28125 C100.16117188 16.45140625 100.16117188 16.45140625 98.875 16.625 C98.05773437 16.74617188 97.24046875 16.86734375 96.3984375 16.9921875 C93.93408162 17.35092285 91.47098523 17.68973978 89 18 C88.35279999 18.08520905 87.70559998 18.17041809 87.03878784 18.25820923 C81.34829703 18.95953264 75.75326842 19.14616039 70.0234375 19.1328125 C69.09512115 19.13376923 68.16680481 19.13472595 67.21035767 19.13571167 C65.25563489 19.13638825 63.30090979 19.13457062 61.34619141 19.13037109 C58.40391798 19.12505228 55.46179977 19.13031502 52.51953125 19.13671875 C38.65662147 19.14279515 24.88477482 18.94092261 11.1875 16.5625 C10.41341797 16.44068359 9.63933594 16.31886719 8.84179688 16.19335938 C3.25097656 15.25097656 3.25097656 15.25097656 1 13 C0.5859375 9.9609375 0.5859375 9.9609375 0.375 6.375 C0.30023438 5.18648438 0.22546875 3.99796875 0.1484375 2.7734375 C0.09945312 1.85820312 0.05046875 0.94296875 0 0 Z " fill="#E79F00" transform="translate(200,387)"/>
<path d="M0 0 C1.14625854 0.25003784 1.14625854 0.25003784 2.31567383 0.50512695 C4.76652107 1.05982504 7.19376507 1.67767755 9.625 2.3125 C10.44484375 2.51294922 11.2646875 2.71339844 12.109375 2.91992188 C18.40686257 4.55504123 23.1268595 6.49794662 27.15234375 11.875 C27.74144531 12.90625 28.33054687 13.9375 28.9375 15 C29.54464844 16.03125 30.15179688 17.0625 30.77734375 18.125 C32.12038632 21.28308094 32.15722699 21.91120586 31 25 C29.04764915 27.52206415 26.69430326 29.62892599 24.375 31.8125 C23.77042969 32.42287109 23.16585937 33.03324219 22.54296875 33.66210938 C17.95787574 37.99790628 17.95787574 37.99790628 13.42578125 38.0078125 C12.29527344 37.67523438 11.16476562 37.34265625 10 37 C8.97519531 36.70222656 7.95039063 36.40445313 6.89453125 36.09765625 C4.7340625 35.37202353 2.57393507 34.64537411 0.4140625 33.91796875 C-2.98683274 33.0035404 -5.81251467 32.9325947 -9.3125 32.875 C-12.25 32.484375 -12.25 32.484375 -15 31 C-18.73470979 25.93702289 -23.50270952 17.34722597 -22.75683594 10.8972168 C-21.40904003 7.5185968 -18.29991511 5.74476836 -15.4375 3.6875 C-14.84130859 3.22021484 -14.24511719 2.75292969 -13.63085938 2.27148438 C-8.95620361 -1.120522 -5.60739132 -1.40168657 0 0 Z " fill="#D0DADC" transform="translate(252,30)"/>
<path d="M0 0 C2.62697064 -0.22137393 5.00893964 -0.28162025 7.625 -0.1875 C8.33140625 -0.17396484 9.0378125 -0.16042969 9.765625 -0.14648438 C11.51074128 -0.1111104 13.25546608 -0.05730221 15 0 C15.33 2.64 15.66 5.28 16 8 C19.78643295 9.68207709 23.27604466 10.49399687 27.375 11.0625 C28.45523438 11.21847656 29.53546875 11.37445313 30.6484375 11.53515625 C44.22787021 13.11031648 57.84831791 13.23752953 71.5 13.25 C72.95385101 13.25250763 72.95385101 13.25250763 74.43707275 13.25506592 C99.13467326 13.55618763 99.13467326 13.55618763 123 8 C124.96822886 6.03177114 124.66248381 2.65191291 125 0 C129.62 0 134.24 0 139 0 C140.20857756 3.62573268 141.30557389 6.94408588 142.125 10.625 C142.29257812 11.35976563 142.46015625 12.09453125 142.6328125 12.8515625 C143 15 143 15 143 19 C94.16 19 45.32 19 -5 19 C-2 3 -2 3 0 0 Z " fill="#8A3121" transform="translate(186,392)"/>
<path d="M0 0 C0.1081866 2.58445773 0.18737237 5.16437352 0.25 7.75 C0.28351563 8.47960937 0.31703125 9.20921875 0.3515625 9.9609375 C0.41161127 13.26361992 0.37326138 15.46809141 -1.55302048 18.21310043 C-4.83535205 20.61001336 -7.63120257 20.54501446 -11.54229736 20.48101807 C-12.3052558 20.48443577 -13.06821424 20.48785347 -13.85429263 20.49137473 C-16.41268321 20.4979672 -18.97002628 20.47595588 -21.52832031 20.45410156 C-23.36139908 20.45297338 -25.19447966 20.45360638 -27.02755737 20.45587158 C-32.00665845 20.45702078 -36.98537528 20.43347806 -41.96438694 20.40557575 C-47.16672895 20.38059647 -52.36907944 20.37822284 -57.57147217 20.37347412 C-67.42414616 20.36103413 -77.27664294 20.32819863 -87.12923884 20.28807616 C-98.34553818 20.24339032 -109.5618459 20.22137942 -120.77821207 20.20129442 C-143.85223969 20.15946694 -166.92610992 20.08909496 -190 20 C-186.52056999 17.68037999 -185.15918981 17.73784736 -181.046875 17.69140625 C-179.7582959 17.66828369 -178.4697168 17.64516113 -177.14208984 17.62133789 C-176.43381042 17.61216339 -175.72553101 17.60298889 -174.99578857 17.59353638 C-156.77143651 17.34167925 -138.57641644 16.46400776 -120.375 15.5625 C-114.9193425 15.29280103 -109.46363217 15.02421213 -104.0078125 14.7578125 C-103.33385185 14.72485706 -102.6598912 14.69190163 -101.96550751 14.65794754 C-92.47627871 14.19568223 -82.98600719 13.78605019 -73.4921875 13.4296875 C-72.35731903 13.38676071 -71.22245056 13.34383392 -70.05319214 13.29960632 C-64.78492507 13.10197273 -59.51653111 12.91241524 -54.24755859 12.73461914 C-45.30311846 12.41742997 -36.40599598 11.95967698 -27.5 11.05078125 C-26.73149719 10.97375473 -25.96299438 10.89672821 -25.17120361 10.81736755 C-16.90451869 9.90282703 -5.74019049 0 0 0 Z " fill="#332434" transform="translate(353,467)"/>
<path d="M0 0 C0.32871094 0.67804688 0.65742188 1.35609375 0.99609375 2.0546875 C5.63224685 11.12596809 11.82452406 17.87322639 19 25 C18.67 25.66 18.34 26.32 18 27 C1.57817766 27.31990563 -14.63577829 26.34299844 -31 25 C-30.54591873 22.47833533 -30.0868593 19.95774184 -29.625 17.4375 C-29.49867188 16.73302734 -29.37234375 16.02855469 -29.2421875 15.30273438 C-28.40718633 10.77285303 -27.33276044 6.40969867 -26 2 C-17.26047454 0.55203128 -8.86088167 -0.29211698 0 0 Z " fill="#B4C0C4" transform="translate(219,91)"/>
<path d="M0 0 C0.66 0 1.32 0 2 0 C2.38478516 1.14662109 2.38478516 1.14662109 2.77734375 2.31640625 C7.74277174 16.20957345 15.21974639 27.96297574 25 39 C25.85464844 39.97582031 26.70929688 40.95164063 27.58984375 41.95703125 C36.33795263 51.8045946 45.95030671 60.42102618 56.20703125 68.6796875 C60.35469682 72.12544043 64.28759819 75.78927304 68.23828125 79.45703125 C70.41540629 81.46171074 72.61712768 83.401252 74.875 85.3125 C83.59274599 92.94052774 91.92988241 100.99652272 98.6875 110.4375 C99.08501465 110.99187744 99.4825293 111.54625488 99.89208984 112.11743164 C102.51502195 115.93286559 104.4520872 119.65652563 106 124 C105.505 125.485 105.505 125.485 105 127 C104.40574219 126.20078125 103.81148438 125.4015625 103.19921875 124.578125 C97.21754265 116.61965086 90.86553461 109.20615029 84 102 C83.38511719 101.34386719 82.77023438 100.68773437 82.13671875 100.01171875 C78.05329529 95.77236503 73.54974768 92.14838893 68.96875 88.4609375 C64.76481801 84.97609914 60.78104865 81.27318721 56.77734375 77.5625 C54.50348777 75.46454005 52.20973252 73.40438521 49.875 71.375 C27.07520338 51.5490899 7.20283537 30.27533243 0 0 Z " fill="#FEBC07" transform="translate(84,165)"/>
<path d="M0 0 C20.67401268 -0.8600899 38.00694402 4.01921972 53.92578125 17.47265625 C70.76495747 33.28704166 72.68338917 49.70770021 73.8125 71.6875 C73.86591553 72.69087402 73.91933105 73.69424805 73.97436523 74.72802734 C74.19081296 80.57555162 73.7203611 85.40052353 72 91 C71.67 90.01 71.34 89.02 71 88 C69.34561387 87.30341637 67.67745682 86.63903117 66 86 C64.96903362 85.03195645 63.96273498 84.03592536 63 83 C64.485 81.824375 64.485 81.824375 66 80.625 C70.88535893 74.94273855 69.72926105 67.27277623 69.20800781 60.23876953 C68.44446092 52.02078244 67.52416107 45.02706894 60.96484375 39.5078125 C60.31644531 39.01023438 59.66804688 38.51265625 59 38 C58.32066406 37.39929687 57.64132812 36.79859375 56.94140625 36.1796875 C54.16903719 33.77418988 54.16903719 33.77418988 51 32 C46.90986648 32.97751619 44.6832471 35.02849186 41.875 38.0625 C38.31179039 41.89606987 38.31179039 41.89606987 35 43 C35.28304109 39.50505784 35.7762278 38.22000499 38.3203125 35.71875 C40.1933094 34.23704772 42.06831966 32.75788703 43.9453125 31.28125 C46.28062411 29.2063953 46.28062411 29.2063953 45.97265625 26.53515625 C43.16771065 19.22427395 39.71310629 13.9958966 33 10 C33 9.01 33 8.02 33 7 C22.32205421 3.39810919 11.1314443 2.37430694 0 1 C0 0.67 0 0.34 0 0 Z " fill="#817983" transform="translate(237,25)"/>
<path d="M0 0 C3.60129027 2.01507759 7.12090405 4.2418081 9 8 C7.989375 7.67 6.97875 7.34 5.9375 7 C0.39535584 5.47535392 -3.98597317 5.13641469 -9.125 8 C-15.42327831 12.34532379 -18.19954659 18.19049748 -19.73828125 25.53125 C-20.42101798 31.9713935 -19.85479444 37.66487829 -18.5 43.9375 C-17.34326834 49.72720394 -16.39941024 55.09420073 -17 61 C-19.0899444 63.67637655 -20.00198843 64.00050615 -23.4375 64.875 C-27 65 -27 65 -29.4375 63.75 C-31 62 -31 62 -31 59 C-30.05125 58.71125 -29.1025 58.4225 -28.125 58.125 C-24.94788422 57.23174891 -24.94788422 57.23174891 -23 55 C-22.90293849 52.85683244 -22.90293849 52.85683244 -23.25 50.4375 C-23.35699219 49.53128906 -23.46398437 48.62507813 -23.57421875 47.69140625 C-23.94403046 45.35378911 -24.45123586 43.15734596 -25.0625 40.875 C-26.08738622 36.55968961 -26.22118936 32.2916205 -26.25 27.875 C-26.259104 27.20581543 -26.26820801 26.53663086 -26.27758789 25.84716797 C-26.22862289 17.74296118 -23.83104425 11.37198078 -19 5 C-12.91789072 -0.6370769 -8.06362177 -2.1093181 0 0 Z " fill="#FEBB07" transform="translate(395,115)"/>
<path d="M0 0 C2.125 0.375 2.125 0.375 4 1 C4.06469482 1.69859131 4.12938965 2.39718262 4.19604492 3.11694336 C5.35707647 15.2524637 6.52066572 26.99330227 10.36279297 38.60302734 C12.00817763 43.64385282 12.47828787 47.7388334 12 53 C6.55580828 51.33649698 4.38620375 48.59967184 1.74609375 43.6484375 C-3.70481944 32.35609793 -7.61372811 19.1700831 -4.390625 6.62890625 C-3.29495573 3.94004443 -2.05459891 2.05459891 0 0 Z " fill="#FFDC83" transform="translate(173,180)"/>
<path d="M0 0 C28.15572701 2.50338577 28.15572701 2.50338577 36 8 C36 8.66 36 9.32 36 10 C28.6549731 13.93064732 21.38210542 15.20249139 13.1875 16.3125 C11.36702148 16.58416992 11.36702148 16.58416992 9.50976562 16.86132812 C0.54522707 18.13630677 0.54522707 18.13630677 -4 17 C-2.68 11.39 -1.36 5.78 0 0 Z " fill="#E8A101" transform="translate(312,99)"/>
<path d="M0 0 C7.06597049 4.04572466 10.63438477 9.85518168 13.12109375 17.4921875 C15.37175279 27.0797407 13.70516824 37.13584663 10.8125 46.4375 C9.8225 46.9325 9.8225 46.9325 8.8125 47.4375 C8.956875 46.60347656 9.10125 45.76945312 9.25 44.91015625 C11.17884184 33.21655258 12.58805082 22.15546413 6.125 11.625 C3.1172289 7.44916246 0.59371991 5.36676418 -4.1875 3.4375 C-10.10736172 2.5764292 -14.32009343 4.22096437 -19.1875 7.4375 C-24.69487591 12.48592792 -27.03213876 20.14488764 -27.578125 27.44140625 C-28.36244666 46.64627121 -20.38723914 64.16512844 -9.1875 79.4375 C-19.64500172 74.97198728 -24.35199539 61.10093583 -28.515625 51.31640625 C-33.03475164 38.82515833 -33.23670529 24.36776456 -27.7421875 12.18359375 C-21.70266346 1.51579123 -12.28145751 -5.4479888 0 0 Z " fill="#FEBF09" transform="translate(126.1875,117.5625)"/>
<path d="M0 0 C5.52499611 5.17282413 7.57864787 13.34312737 8.42578125 20.6953125 C8.61430813 30.04227659 7.00461204 38.91958476 5 48 C4.01 47.01 3.02 46.02 2 45 C1.82984375 45.75925781 1.6596875 46.51851562 1.484375 47.30078125 C1.24203125 48.29464844 0.9996875 49.28851563 0.75 50.3125 C0.51796875 51.29863281 0.2859375 52.28476563 0.046875 53.30078125 C-1.15402291 56.39712624 -2.09735134 57.43868621 -5 59 C-8.45113452 58.87890756 -10.96862779 58.63213135 -13.9375 56.8125 C-15.47273259 54.19357381 -15.1980568 51.97085195 -15 49 C-13.9275 49.0825 -12.855 49.165 -11.75 49.25 C-8.05662342 49.35301386 -8.05662342 49.35301386 -5.90625 47.38671875 C3.68563642 35.37720522 0.37685619 14.29734395 0 0 Z " fill="#FEBB07" transform="translate(149,121)"/>
<path d="M0 0 C1.07765625 0.00902344 2.1553125 0.01804687 3.265625 0.02734375 C4.08546875 0.03894531 4.9053125 0.05054687 5.75 0.0625 C6.07871094 0.74054688 6.40742188 1.41859375 6.74609375 2.1171875 C11.38224685 11.18846809 17.57452406 17.93572639 24.75 25.0625 C24.42 25.7225 24.09 26.3825 23.75 27.0625 C18.18194989 27.76941545 13.00840112 28.32211527 7.9765625 25.515625 C0.4704586 19.02769923 -6.06843924 10.05721142 -10.25 1.0625 C-6.78777385 -0.00473961 -3.60960734 -0.03923486 0 0 Z " fill="#D0D9DC" transform="translate(213.25,90.9375)"/>
<path d="M0 0 C0.66 0 1.32 0 2 0 C3.26302688 8.17553889 3.23346418 14.85213796 -0.75 22.25 C-4.59267565 26.94660357 -8.3420049 30.62065236 -14.63671875 31.2734375 C-21.76893295 31.51087357 -26.61951414 30.90851341 -32 26 C-35.00998143 22.33158513 -35.32686175 19.68501842 -35 15 C-34.21689453 15.6496875 -34.21689453 15.6496875 -33.41796875 16.3125 C-28.15900569 20.29126015 -24.27538777 21.86150849 -17.6484375 21.453125 C-12.13072271 20.5090912 -8.43521475 18.5903731 -4.6875 14.4375 C-2.4059551 9.78990854 -1.180502 5.02607668 0 0 Z " fill="#FEBC07" transform="translate(204,292)"/>
<path d="M0 0 C0.89074219 0.53753906 1.78148437 1.07507813 2.69921875 1.62890625 C3.65054688 2.19867188 4.601875 2.7684375 5.58203125 3.35546875 C9.30841478 5.79474488 13.0368735 8.24469424 16.38671875 11.19140625 C16.38671875 11.52140625 16.38671875 11.85140625 16.38671875 12.19140625 C10.20464643 12.97193002 4.20338583 13.32890552 -2.0234375 13.2890625 C-2.87634872 13.28764755 -3.72925995 13.2862326 -4.60801697 13.28477478 C-7.29730941 13.27923564 -9.98651453 13.26669505 -12.67578125 13.25390625 C-14.51367066 13.24888337 -16.3515614 13.24432185 -18.18945312 13.24023438 C-22.66409547 13.22928625 -27.13867363 13.21206464 -31.61328125 13.19140625 C-31.28328125 11.87140625 -30.95328125 10.55140625 -30.61328125 9.19140625 C-29.41703125 8.96453125 -28.22078125 8.73765625 -26.98828125 8.50390625 C-19.59876298 6.86179108 -11.26283 4.74553992 -5.0234375 0.37890625 C-2.61328125 -0.80859375 -2.61328125 -0.80859375 0 0 Z " fill="#D0D6D0" transform="translate(271.61328125,105.80859375)"/>
<path d="M0 0 C3.23074278 0.26922857 4.67743907 0.67743907 7 3 C14.03977273 13.55965909 14.03977273 13.55965909 13.9453125 16.98046875 C12.56292088 19.93375994 10.50082003 21.60903607 8.0625 23.75 C7.16660156 24.54921875 6.27070313 25.3484375 5.34765625 26.171875 C3 28 3 28 1 28 C-0.78029837 20.35425431 -3.67937091 7.35874183 0 0 Z " fill="#DDE4E6" transform="translate(270,36)"/>
<path d="M0 0 C0.33 0 0.66 0 1 0 C1.14695313 1.84851562 1.14695313 1.84851562 1.296875 3.734375 C2.06503382 12.50611007 3.0098764 20.55854697 6.1953125 28.84765625 C7 31 7 31 7 33 C8.98 33 10.96 33 13 33 C13 33.33 13 33.66 13 34 C8.05 34.33 3.1 34.66 -2 35 C-5.47684309 27.48553267 -7.80058325 20.3761022 -7 12 C-5.34960507 7.72444562 -3.28665439 3.28665439 0 0 Z " fill="#B1BEC4" transform="translate(194,55)"/>
<path d="M0 0 C4.875 1.75 4.875 1.75 6 4 C6.50854458 8.32262892 6.26078486 11.14838247 3.875 14.75 C1.23814569 18.00041597 -0.9176265 19.73817546 -5 21 C-11.47341508 21.63220422 -17.53590676 21.9614676 -23 18 C-25.375 15.3125 -25.375 15.3125 -27 13 C-25.824375 13.33 -24.64875 13.66 -23.4375 14 C-16.69569993 15.65275169 -12.11852952 15.47643723 -6 12 C-5.01 11.67 -4.02 11.34 -3 11 C-1.17829434 7.45779454 -0.54730376 3.92234364 0 0 Z " fill="#FEBC07" transform="translate(337,302)"/>
<path d="M0 0 C0.33 0 0.66 0 1 0 C1.02725341 1.7290774 1.04650987 3.45828176 1.0625 5.1875 C1.07410156 6.15042969 1.08570313 7.11335937 1.09765625 8.10546875 C1 11 1 11 0.50927734 13.30810547 C-0.04407569 16.23297148 -0.17662965 18.98958186 -0.24609375 21.96484375 C-0.27896484 23.09470703 -0.31183594 24.22457031 -0.34570312 25.38867188 C-0.40679753 27.75055574 -0.46410225 30.11254074 -0.51757812 32.47460938 C-0.55173828 33.60576172 -0.58589844 34.73691406 -0.62109375 35.90234375 C-0.65867798 37.44136353 -0.65867798 37.44136353 -0.69702148 39.01147461 C-1.024542 42.24207785 -1.86864871 44.96523999 -3 48 C-8.42633341 38.95611098 -7.6817262 21.73834055 -5.52099609 11.79589844 C-4.41377227 8.31195368 -2.8585608 5.13822562 -1 2 C-0.67 1.34 -0.34 0.68 0 0 Z " fill="#D48F00" transform="translate(361,121)"/>
<path d="M0 0 C0.33 0.99 0.66 1.98 1 3 C0.171875 4.5859375 0.171875 4.5859375 -1.25 6.375 C-1.80300781 7.07753906 -2.35601562 7.78007812 -2.92578125 8.50390625 C-4.92491689 10.90964575 -6.96109714 13.28065524 -9.00463867 15.64868164 C-14.29111774 21.78726655 -18.83791332 28.02507452 -23 35 C-26.94736842 41.55263158 -26.94736842 41.55263158 -31 43 C-28.89559743 25.93930777 -11.79066361 11.31158473 0 0 Z " fill="#D38E00" transform="translate(333,251)"/>
<path d="M0 0 C5.66176733 4.71537221 7.61187589 13.63150999 8.42578125 20.6953125 C8.61430813 30.04227659 7.00461204 38.91958476 5 48 C4.34 47.67 3.68 47.34 3 47 C3.01571045 46.24493164 3.0314209 45.48986328 3.04760742 44.71191406 C3.11073548 41.22468843 3.14923498 37.73758367 3.1875 34.25 C3.21263672 33.06277344 3.23777344 31.87554687 3.26367188 30.65234375 C3.32170037 23.57286696 2.67555906 17.38824936 0.66796875 10.58789062 C-0.2712592 6.94906887 -0.2155299 3.73585156 0 0 Z " fill="#EAA305" transform="translate(149,121)"/>
<path d="M0 0 C13.31820103 10.89670994 26.29615448 23.8498267 33 40 C33 40.99 33 41.98 33 43 C28.73520205 41.49033701 27.4353071 38.82880252 25.25 35 C20.42419907 26.81141352 14.64648896 19.77462208 8.25 12.75 C0 3.68782383 0 3.68782383 0 0 Z " fill="#D48F01" transform="translate(176,250)"/>
<path d="M0 0 C3.93933065 7.48472823 5.4070911 14.58678402 5 23 C-0.29015087 21.38356501 -2.41992615 18.48297319 -5.3125 13.9375 C-6.20492812 11.42247529 -6.04202816 10.45620922 -5 8 C-3.68678142 6.3174387 -2.35386936 4.65002828 -1 3 C-0.67 2.01 -0.34 1.02 0 0 Z " fill="#FFD364" transform="translate(180,210)"/>
<path d="M0 0 C0.66 3.63 1.32 7.26 2 11 C-0.10583487 10.54939339 -2.20962872 10.08924044 -4.3125 9.625 C-5.48425781 9.36976562 -6.65601563 9.11453125 -7.86328125 8.8515625 C-11 8 -11 8 -14 6 C-14 5.01 -14 4.02 -14 3 C-5.58823529 -1.39705882 -5.58823529 -1.39705882 0 0 Z " fill="#E7A103" transform="translate(178,103)"/>
<path d="M0 0 C3.0260533 0.20869333 4.01711707 1.01711707 6.1875 3.1875 C8.14856712 6.23053519 8.66761076 8.42681564 9 12 C7.3125 12.8125 7.3125 12.8125 5 13 C1.39268759 10.31548844 0.15377828 8.65904979 -0.875 4.25 C-0.91625 3.1775 -0.9575 2.105 -1 1 C-0.67 0.67 -0.34 0.34 0 0 Z " fill="#FFD260" transform="translate(186,236)"/>
<path d="M0 0 C7.30686496 10.96029744 6.46697281 25.47430905 5 38 C4.34 37.67 3.68 37.34 3 37 C2.95101563 35.69546875 2.90203125 34.3909375 2.8515625 33.046875 C2.49303839 24.39675624 2.11945578 15.9205144 0.40234375 7.41015625 C-0.01708793 4.89763831 -0.06822406 2.54248341 0 0 Z " fill="#DCE0DD" transform="translate(307,67)"/>
<path d="M0 0 C14.34821539 -0.59692113 30.11059052 0.59962517 42.125 9.25 C42.74375 9.8275 43.3625 10.405 44 11 C40.32845808 10.42213736 37.07976871 9.29348099 33.63061523 7.93017578 C22.68050535 3.66698815 11.63753401 2.19833963 0 1 C0 0.67 0 0.34 0 0 Z " fill="#B7BCC0" transform="translate(237,25)"/>
<path d="M0 0 C0.33 0.99 0.66 1.98 1 3 C0.01 3.86625 -0.98 4.7325 -2 5.625 C-7.31353663 10.89533714 -10.46001513 17.48950609 -14 24 C-16.73106061 28.8655303 -16.73106061 28.8655303 -19 30 C-15.64312549 17.80924521 -8.86686952 8.86686952 0 0 Z " fill="#B5BFC4" transform="translate(199,42)"/>
<path d="M0 0 C0.33 0.66 0.66 1.32 1 2 C-0.20121515 4.36683874 -1.44692528 6.60597398 -2.8125 8.875 C-6.07460015 14.34550441 -6.07460015 14.34550441 -9 20 C-9.66 19.34 -10.32 18.68 -11 18 C-10.66012332 14.06809332 -9.20746027 11.21944055 -7.1875 7.875 C-6.68605469 7.02679688 -6.18460938 6.17859375 -5.66796875 5.3046875 C-3.98642904 2.98124856 -2.37617451 1.57724381 0 0 Z " fill="#504553" transform="translate(195,51)"/>
<path d="M0 0 C6.22725067 1.65391768 11.53962558 3.55759004 17 7 C13.99353048 8.30230734 12.90644333 7.96485975 9.765625 6.78515625 C8.60546875 6.21667969 7.4453125 5.64820313 6.25 5.0625 C4.49429687 4.21365234 4.49429687 4.21365234 2.703125 3.34765625 C1.81109375 2.90292969 0.9190625 2.45820313 0 2 C0 1.34 0 0.68 0 0 Z " fill="#CCD7DA" transform="translate(264,28)"/>
<path d="M0 0 C0 0.66 0 1.32 0 2 C-5.94 1.01 -5.94 1.01 -12 0 C-6.76844369 -2.61577816 -5.40261966 -1.6207859 0 0 Z " fill="#C1C8CB" transform="translate(264,28)"/>
</svg>
