<?xml version="1.0" encoding="UTF-8"?>
<svg version="1.1" xmlns="http://www.w3.org/2000/svg" width="512" height="512">
<path d="M0 0 C6.59606292 5.38781214 11.16541247 12.00558791 12.71484375 20.45703125 C13.52396376 29.12083939 12.98810006 38.18272159 7.29491329 45.20959473 C3.09019086 49.99424983 -1.26526287 54.57535816 -5.78100586 59.06640625 C-6.4940387 59.77958511 -7.20707153 60.49276398 -7.94171143 61.22755432 C-10.27127543 63.55642827 -12.60434851 65.88175187 -14.9375 68.20703125 C-16.56439235 69.8320562 -18.19106233 71.4573038 -19.81752014 73.08276367 C-24.07807832 77.33952208 -28.34163214 81.59326754 -32.60583496 85.84637451 C-36.96496199 90.19523257 -41.32122413 94.54695833 -45.67773438 98.8984375 C-54.21075367 107.42076432 -62.74694313 115.93990817 -71.28515625 124.45703125 C-69.75338745 124.23176758 -69.75338745 124.23176758 -68.19067383 124.00195312 C-66.83289033 123.80957602 -65.47505895 123.61753659 -64.1171875 123.42578125 C-63.44627075 123.32620117 -62.775354 123.22662109 -62.08410645 123.12402344 C-51.91703314 121.7083943 -44.43432302 124.33810672 -36.28515625 130.45703125 C-30.1832614 135.93040474 -26.45394741 143.35983892 -25.28515625 151.45703125 C-25.32160038 158.65474698 -25.86664832 165.06590773 -29.28515625 171.45703125 C-28.29515625 170.96203125 -27.30515625 170.46703125 -26.28515625 169.95703125 C-18.29777123 166.98663362 -7.76955488 167.1520692 0.21484375 170.01953125 C9.89453981 174.71320937 14.80855538 181.53586977 18.71484375 191.45703125 C20.56921414 199.04309193 19.81242971 205.05406582 17.37109375 212.35546875 C16.6154861 214.40827189 16.6154861 214.40827189 16.71484375 216.45703125 C17.72546875 215.96203125 18.73609375 215.46703125 19.77734375 214.95703125 C27.67319833 212.02588808 37.2511827 212.18634831 45.15234375 215.01953125 C54.99153922 219.69396631 60.21991765 226.92270099 64.02734375 236.89453125 C65.72593242 245.69630889 65.38910985 254.93803595 60.28137684 262.61019516 C55.9977645 268.03953006 51.43754781 273.03624966 46.55151367 277.92675781 C45.76676163 278.71983337 44.98200958 279.51290894 44.17347717 280.33001709 C41.60278301 282.92461665 39.02466982 285.51167058 36.4453125 288.09765625 C34.64074195 289.91120434 32.83624382 291.7248245 31.03181458 293.53851318 C27.25887656 297.3278883 23.48163163 301.11290972 19.7019043 304.89550781 C15.35076023 309.25029081 11.01294604 313.61805202 6.68094558 317.99187112 C2.48824606 322.22359831 -1.71833343 326.44134089 -5.93002892 330.65416718 C-7.7094349 332.43776514 -9.48474079 334.22546378 -11.25574684 336.01740265 C-13.73663526 338.52528204 -16.23300024 341.0167205 -18.73364258 343.50488281 C-19.81335831 344.60684998 -19.81335831 344.60684998 -20.91488647 345.7310791 C-26.94453259 351.67584625 -33.7314085 356.28065046 -42.28515625 357.45703125 C-44.68177154 356.99625259 -47.06651022 356.47225113 -49.44140625 355.91015625 C-60.71932037 353.95404988 -72.94571664 353.04490758 -82.98451996 359.55988312 C-102.42399227 373.67430802 -118.57182017 393.44723081 -134.28515625 411.45703125 C-133.2323545 413.64396951 -132.25064153 415.50100685 -130.74609375 417.41796875 C-129.13323141 419.66907608 -128.51543292 421.38898866 -127.91015625 424.08203125 C-127.62011719 425.24605469 -127.62011719 425.24605469 -127.32421875 426.43359375 C-127.21683182 434.7453418 -130.23674995 440.00632542 -135.87109375 445.83203125 C-137.53498345 447.50256545 -139.21718868 449.14975434 -140.91796875 450.78271484 C-142.66702545 452.46363284 -144.38748001 454.17020777 -146.10546875 455.8828125 C-147.21328519 456.97164009 -148.3226094 458.05893622 -149.43359375 459.14453125 C-149.94522064 459.64968262 -150.45684753 460.15483398 -150.98397827 460.67529297 C-155.75213283 465.22599673 -159.63086025 466.7472352 -166.16015625 466.83203125 C-167.14757812 466.86039063 -168.135 466.88875 -169.15234375 466.91796875 C-176.04110705 465.90441006 -180.81794314 461.3650234 -185.5355835 456.59428406 C-186.12339576 456.01185733 -186.71120802 455.42943061 -187.31683278 454.82935458 C-189.27144289 452.88897531 -191.21524494 450.93813015 -193.15917969 448.98706055 C-194.56358182 447.58836442 -195.96861237 446.19029902 -197.3742218 444.79281616 C-201.18060746 441.00434906 -204.97739959 437.20640405 -208.77197933 433.40611625 C-211.94276326 430.23223934 -215.11812991 427.06296733 -218.2934773 423.89365703 C-225.78404022 416.41713276 -233.26678028 408.93284274 -240.74462891 401.44360352 C-248.45657106 393.72017392 -256.18121721 386.00962194 -263.91228652 378.30534238 C-270.55407713 371.68570574 -277.18808413 365.05834 -283.81587052 358.42468196 C-287.77250967 354.46467219 -291.73199033 350.50761529 -295.69890594 346.55789757 C-299.42775752 342.84450852 -303.14677816 339.12154604 -306.85848045 335.39101791 C-308.22118329 334.0246277 -309.58729643 332.66162874 -310.95706367 331.30232048 C-312.82834395 329.44424034 -314.68683192 327.57422161 -316.54266357 325.70072937 C-317.35700194 324.90079851 -317.35700194 324.90079851 -318.18779159 324.08470744 C-322.15945378 320.03505312 -324.6469443 315.96094 -325.68359375 310.26953125 C-325.51733487 297.41217764 -315.66496586 289.65737943 -307.16015625 281.14453125 C-306.12568359 280.09168945 -306.12568359 280.09168945 -305.0703125 279.01757812 C-299.26602036 273.19663888 -294.83226271 269.83595679 -286.53515625 269.14453125 C-281.74708593 269.18919609 -278.35095121 271.11663667 -274.28515625 273.45703125 C-272.95404161 274.12811697 -271.62097323 274.79535519 -270.28515625 275.45703125 C-263.89887237 269.18667427 -257.52624075 262.90284822 -251.17054844 256.6014843 C-248.21880583 253.67581864 -245.2626014 250.75497845 -242.2956543 247.84472656 C-239.43174039 245.03519886 -236.58026861 242.21357847 -233.73695183 239.38321304 C-232.65086548 238.3063546 -231.56039242 237.23390167 -230.46548653 236.16601181 C-228.93066559 234.66756817 -227.41229526 233.15411186 -225.89672852 231.63623047 C-225.02846939 230.7790744 -224.16021027 229.92191833 -223.26564026 229.03878784 C-220.97706352 226.05540193 -220.63279135 224.1578846 -220.28515625 220.45703125 C-219.95370333 219.03429689 -219.60975346 217.61439485 -219.2512207 216.19824219 C-215.83297755 201.48235889 -213.16784557 183.0601298 -221.46917725 169.52676392 C-234.11267257 151.40713564 -252.34888583 136.27206847 -269.10314941 122.0680542 C-275.24716802 116.79391617 -279.82550687 112.78220876 -281.28515625 104.45703125 C-281.27882476 100.126293 -279.8379751 96.51459774 -277.84765625 92.70703125 C-267.84068373 83.92042123 -252.63802159 81.81123559 -239.77734375 82.18359375 C-230.5229671 82.90820937 -222.37278378 85.07017732 -214.03515625 89.08203125 C-213.41012207 89.3759375 -212.78508789 89.66984375 -212.14111328 89.97265625 C-200.62973393 95.88301225 -191.68768843 106.92571212 -182.66015625 116.01953125 C-181.45336165 117.23135551 -180.24633186 118.44294559 -179.0390625 119.65429688 C-176.11838218 122.58585596 -173.20087878 125.52054146 -170.28515625 128.45703125 C-166.44105156 126.87400629 -164.02358738 124.43419271 -161.11248779 121.50468445 C-160.60427058 120.99605938 -160.09605336 120.48743432 -159.57243562 119.96339637 C-157.87130205 118.25853351 -156.17742855 116.54663596 -154.48339844 114.8347168 C-153.2647297 113.61057225 -152.04559676 112.38688968 -150.82603455 111.16363525 C-148.20029246 108.52818007 -145.57764185 105.88969948 -142.95726776 103.24890709 C-138.81044495 99.07026513 -134.65546774 94.89979674 -130.49908447 90.73066711 C-120.17374937 80.37124491 -109.85767972 70.00260896 -99.54656982 59.62902832 C-91.53814779 51.5721076 -83.52653792 43.51842232 -75.50430226 35.47525245 C-71.37552811 31.33497867 -67.25378868 27.18786652 -63.13723803 23.0354408 C-60.56861534 20.44756424 -57.99369848 17.8660213 -55.41702461 15.28616333 C-54.22764814 14.09278301 -53.04084513 12.89683115 -51.85689354 11.69806862 C-37.51475057 -2.81691089 -19.46903722 -13.14576017 0 0 Z " fill="#FDC3B3" transform="translate(386.28515625,45.54296875)"/>
<path d="M0 0 C6.59606292 5.38781214 11.16541247 12.00558791 12.71484375 20.45703125 C13.52396376 29.12083939 12.98810006 38.18272159 7.29491329 45.20959473 C3.09019086 49.99424983 -1.26526287 54.57535816 -5.78100586 59.06640625 C-6.4940387 59.77958511 -7.20707153 60.49276398 -7.94171143 61.22755432 C-10.27127543 63.55642827 -12.60434851 65.88175187 -14.9375 68.20703125 C-16.56439235 69.8320562 -18.19106233 71.4573038 -19.81752014 73.08276367 C-24.07807832 77.33952208 -28.34163214 81.59326754 -32.60583496 85.84637451 C-36.96496199 90.19523257 -41.32122413 94.54695833 -45.67773438 98.8984375 C-54.21075367 107.42076432 -62.74694313 115.93990817 -71.28515625 124.45703125 C-69.75338745 124.23176758 -69.75338745 124.23176758 -68.19067383 124.00195312 C-66.83289033 123.80957602 -65.47505895 123.61753659 -64.1171875 123.42578125 C-63.44627075 123.32620117 -62.775354 123.22662109 -62.08410645 123.12402344 C-51.91703314 121.7083943 -44.43432302 124.33810672 -36.28515625 130.45703125 C-30.16894455 135.94324689 -26.48455435 143.35200773 -25.28515625 151.45703125 C-25.23046875 154.4375 -25.23046875 154.4375 -25.41015625 157.64453125 C-25.45398438 158.68996094 -25.4978125 159.73539063 -25.54296875 160.8125 C-27.42509045 170.05470816 -32.61026061 176.50719491 -39.25390625 182.9140625 C-40.01183472 183.66491623 -40.76976318 184.41576996 -41.55065918 185.18937683 C-43.95055941 187.56155621 -46.3672933 189.91567766 -48.78515625 192.26953125 C-50.40740798 193.8666632 -52.0285126 195.46496118 -53.6484375 197.06445312 C-57.21805297 200.58525629 -60.79833653 204.09477211 -64.38879395 207.59431458 C-66.70258502 209.86705391 -68.9926782 212.16278729 -71.28515625 214.45703125 C-114.95182292 258.12369792 -158.61848958 301.79036458 -202.28515625 345.45703125 C-205.04884897 344.19256041 -207.09142141 342.89957902 -209.23382568 340.74887085 C-209.78624435 340.19920151 -210.33866302 339.64953217 -210.90782166 339.08320618 C-211.79794701 338.182295 -211.79794701 338.182295 -212.70605469 337.26318359 C-213.65790398 336.31177238 -213.65790398 336.31177238 -214.62898254 335.34114075 C-216.72227507 333.24645647 -218.80839705 331.14478023 -220.89453125 329.04296875 C-222.34569378 327.58807555 -223.79729892 326.13362369 -225.24932861 324.67959595 C-229.06777043 320.85352199 -232.88016774 317.02147963 -236.69134521 313.18817139 C-240.58227004 309.27677921 -244.47887053 305.3710504 -248.375 301.46484375 C-256.01729024 293.80111098 -263.65320799 286.1310622 -271.28515625 278.45703125 C-269.74294208 274.76700359 -267.51316431 272.47161534 -264.66772461 269.69189453 C-264.20086746 269.23277679 -263.73401031 268.77365906 -263.25300598 268.30062866 C-262.24240163 267.30763124 -261.22960236 266.31686374 -260.2148571 265.3280983 C-258.60815722 263.76091522 -257.00917226 262.18623856 -255.4122467 260.60910034 C-250.87229753 256.12710763 -246.32284607 251.65494964 -241.75854492 247.19775391 C-238.96394015 244.46766475 -236.18172395 241.72545473 -233.40689278 238.97527695 C-232.34898839 237.93161133 -231.28643362 236.89263742 -230.21916008 235.85855484 C-228.72548564 234.41070327 -227.24804844 232.94794022 -225.77319336 231.48095703 C-224.92873154 230.65363068 -224.08426971 229.82630432 -223.21421814 228.97390747 C-220.95855653 226.03091166 -220.63651841 224.1079143 -220.28515625 220.45703125 C-219.95370333 219.03429689 -219.60975346 217.61439485 -219.2512207 216.19824219 C-215.83297755 201.48235889 -213.16784557 183.0601298 -221.46917725 169.52676392 C-234.11267257 151.40713564 -252.34888583 136.27206847 -269.10314941 122.0680542 C-275.24716802 116.79391617 -279.82550687 112.78220876 -281.28515625 104.45703125 C-281.27882476 100.126293 -279.8379751 96.51459774 -277.84765625 92.70703125 C-267.84068373 83.92042123 -252.63802159 81.81123559 -239.77734375 82.18359375 C-230.5229671 82.90820937 -222.37278378 85.07017732 -214.03515625 89.08203125 C-213.41012207 89.3759375 -212.78508789 89.66984375 -212.14111328 89.97265625 C-200.62973393 95.88301225 -191.68768843 106.92571212 -182.66015625 116.01953125 C-181.45336165 117.23135551 -180.24633186 118.44294559 -179.0390625 119.65429688 C-176.11838218 122.58585596 -173.20087878 125.52054146 -170.28515625 128.45703125 C-166.44105156 126.87400629 -164.02358738 124.43419271 -161.11248779 121.50468445 C-160.60427058 120.99605938 -160.09605336 120.48743432 -159.57243562 119.96339637 C-157.87130205 118.25853351 -156.17742855 116.54663596 -154.48339844 114.8347168 C-153.2647297 113.61057225 -152.04559676 112.38688968 -150.82603455 111.16363525 C-148.20029246 108.52818007 -145.57764185 105.88969948 -142.95726776 103.24890709 C-138.81044495 99.07026513 -134.65546774 94.89979674 -130.49908447 90.73066711 C-120.17374937 80.37124491 -109.85767972 70.00260896 -99.54656982 59.62902832 C-91.53814779 51.5721076 -83.52653792 43.51842232 -75.50430226 35.47525245 C-71.37552811 31.33497867 -67.25378868 27.18786652 -63.13723803 23.0354408 C-60.56861534 20.44756424 -57.99369848 17.8660213 -55.41702461 15.28616333 C-54.22764814 14.09278301 -53.04084513 12.89683115 -51.85689354 11.69806862 C-37.51475057 -2.81691089 -19.46903722 -13.14576017 0 0 Z " fill="#FDCCBE" transform="translate(386.28515625,45.54296875)"/>
<path d="M0 0 C2.91689769 2.2198989 5.27344419 4.84742821 7.70277691 7.57138157 C13.93021807 14.43147164 20.401833 21.01024212 26.95834637 27.55427647 C28.18047551 28.77776526 29.40239285 30.00146566 30.62411785 31.22535801 C33.90038546 34.50613014 37.17974225 37.78379712 40.45985913 41.06072021 C43.91070878 44.50901321 47.35908981 47.95977361 50.80787945 51.41012669 C56.58980209 57.19385999 62.37381072 62.97550089 68.15902996 68.75593662 C74.83434139 75.42579207 81.50602214 82.09926295 88.17585927 88.77459234 C93.92633545 94.52961272 99.67876567 100.28267447 105.43282145 106.03411585 C108.85948134 109.45922215 112.2854748 112.88498772 115.70969868 116.31252956 C118.92423877 119.52996795 122.14123377 122.7449318 125.36010265 125.95803928 C126.53682043 127.13344062 127.71269887 128.30968296 128.88765049 129.48684978 C135.94469154 136.60283591 135.94469154 136.60283591 143.39931011 143.2945261 C147.62264259 146.87884404 148.58889218 150.31167966 149.23251629 155.69905186 C149.17450058 161.1856799 147.95083026 165.30697989 144.23251629 169.38655186 C143.29399822 170.41739902 143.29399822 170.41739902 142.3365202 171.46907139 C138.47902013 175.55753804 134.56977417 179.58702986 130.60751629 183.57405186 C129.35841473 184.85409092 129.35841473 184.85409092 128.08407879 186.15998936 C126.86978191 187.38202061 126.86978191 187.38202061 125.63095379 188.62873936 C124.905695 189.36334385 124.18043621 190.09794834 123.43319988 190.85481358 C119.37725699 194.25381431 115.55843309 195.00650748 110.35751629 195.07405186 C109.37009441 195.10241123 108.38267254 195.13077061 107.36532879 195.15998936 C100.47656549 194.14643067 95.6997294 189.60704401 90.98208904 184.83630466 C90.39427678 184.25387794 89.80646451 183.67145121 89.20083976 183.07137519 C87.24622964 181.13099592 85.3024276 179.18015076 83.35849285 177.22908115 C81.95409072 175.83038502 80.54906017 174.43231963 79.14345074 173.03483677 C75.33706508 169.24636966 71.54027295 165.44842465 67.74569321 161.64813685 C64.57490927 158.47425995 61.39954262 155.30498793 58.22419524 152.13567764 C50.73363232 144.65915337 43.25089225 137.17486334 35.77304363 129.68562412 C28.06110148 121.96219452 20.33645533 114.25164255 12.60538602 106.54736298 C5.96359541 99.92772634 -0.67041159 93.30036061 -7.29819798 86.66670257 C-11.25483713 82.7066928 -15.21431779 78.7496359 -19.18123341 74.79991817 C-22.91008498 71.08652913 -26.62910562 67.36356665 -30.34080791 63.63303852 C-31.70351076 62.26664831 -33.0696239 60.90364935 -34.43939114 59.54434109 C-36.31067141 57.68626094 -38.16915938 55.81624222 -40.02499104 53.94274998 C-40.56788328 53.40946274 -41.11077552 52.8761755 -41.67011905 52.32672805 C-45.64178124 48.27707373 -48.12927176 44.2029606 -49.16592121 38.51155186 C-48.99966233 25.65419824 -39.14729332 17.89940004 -30.64248371 9.38655186 C-29.60801105 8.33371006 -29.60801105 8.33371006 -28.55263996 7.25959873 C-20.5365891 -0.77944271 -11.1446646 -6.15073422 0 0 Z " fill="#414B7E" transform="translate(109.76748371124268,317.30094814300537)"/>
<path d="M0 0 C4.21299827 1.6421228 7.01806255 4.75857232 10.1262207 7.91503906 C10.73003571 8.5201683 11.33385071 9.12529755 11.95596313 9.74876404 C13.95053838 11.74982818 15.9380422 13.75777205 17.92578125 15.765625 C19.31525957 17.16137711 20.70525656 18.55661307 22.0957489 19.95135498 C25.75844052 23.62735336 29.41553252 27.30886822 33.07104492 30.99200439 C38.90986309 36.87390937 44.75530275 42.74921341 50.60414696 48.62114716 C52.63992398 50.6670887 54.67221675 52.71644383 56.70417786 54.76617432 C57.96453099 56.03336267 59.22499776 57.300438 60.4855957 58.56738281 C61.04324112 59.13176559 61.60088654 59.69614838 62.1754303 60.27763367 C65.49363706 63.60525969 68.92421699 66.69823562 72.56006145 69.67713547 C75.85016991 72.69974209 76.48894919 76.7223154 77 81 C76.9419843 86.48662805 75.71831397 90.60792804 72 94.6875 C71.37432129 95.37473145 70.74864258 96.06196289 70.10400391 96.77001953 C66.24650384 100.85848619 62.33725788 104.887978 58.375 108.875 C57.12589844 110.15503906 57.12589844 110.15503906 55.8515625 111.4609375 C54.63726562 112.68296875 54.63726562 112.68296875 53.3984375 113.9296875 C52.67317871 114.66429199 51.94791992 115.39889648 51.20068359 116.15576172 C47.1447407 119.55476245 43.3259168 120.30745563 38.125 120.375 C37.13757813 120.40335938 36.15015625 120.43171875 35.1328125 120.4609375 C27.73066919 119.3718441 22.81125122 114.23805629 17.77954102 109.12011719 C17.09576889 108.43678314 16.41199677 107.7534491 15.70750427 107.04940796 C13.46578011 104.80560611 11.23484961 102.55139178 9.00390625 100.296875 C7.44515057 98.73251976 5.88572798 97.16882878 4.32566833 95.60577393 C0.23376876 91.50245403 -3.84903877 87.39020318 -7.92999268 83.27600098 C-12.10084969 79.07438259 -16.28027798 74.8813093 -20.45898438 70.6875 C-28.64771497 62.46665487 -36.82686196 54.23634533 -45 46 C-41.6943682 42.08379008 -38.37111894 38.24572313 -34.73876953 34.62524414 C-33.95841339 33.84496353 -33.17805725 33.06468292 -32.37405396 32.26075745 C-31.55194427 31.44380905 -30.72983459 30.62686066 -29.8828125 29.78515625 C-29.02565643 28.92941513 -28.16850037 28.07367401 -27.28536987 27.19200134 C-24.56760046 24.47979535 -21.84636109 21.7711017 -19.125 19.0625 C-17.27320658 17.21572631 -15.42164166 15.36872347 -13.5703125 13.52148438 C-9.04951565 9.01166799 -4.52587054 4.50472431 0 0 Z " fill="#293465" transform="translate(182,392)"/>
<path d="M0 0 C6.1063199 5.51283309 9.79800676 12.87743963 11 21 C11.0546875 23.98046875 11.0546875 23.98046875 10.875 27.1875 C10.83117187 28.23292969 10.78734375 29.27835938 10.7421875 30.35546875 C8.88279821 39.48604878 3.74182163 46.01551574 -2.7578125 52.421875 C-3.50151093 53.17035706 -4.24520935 53.91883911 -5.01144409 54.69000244 C-6.57701514 56.25895352 -8.1488283 57.82169867 -9.7265625 59.37841797 C-12.11542532 61.74053253 -14.47645433 64.12811005 -16.8359375 66.51953125 C-36.19659781 85.92449979 -36.19659781 85.92449979 -50.0625 86.3125 C-60.22157036 86.15038718 -67.56271601 82.51131812 -74.83203125 75.5078125 C-80.841452 68.55637444 -83.42476491 60.63334767 -83.2734375 51.5234375 C-81.63206198 36.37588626 -69.65683005 26.32979976 -59.46630859 16.20556641 C-57.49731065 14.24732534 -55.53927816 12.27857231 -53.58203125 10.30859375 C-52.31574519 9.04362882 -51.04883911 7.77928418 -49.78125 6.515625 C-49.20499878 5.93532532 -48.62874756 5.35502563 -48.03503418 4.75714111 C-34.32092172 -8.80188365 -16.06887344 -12.6567896 0 0 Z " fill="#FEDDCF" transform="translate(350,176)"/>
<path d="M0 0 C4.85901474 2.29698879 7.66907123 5.15884024 10 10 C10.91153208 15.71102752 10.61382373 19.48481107 7.28790283 24.31604004 C4.86830701 27.47971231 2.06521083 30.26059563 -0.7421875 33.078125 C-1.38817902 33.73077332 -2.03417053 34.38342163 -2.69973755 35.05584717 C-4.06037818 36.42656632 -5.42370027 37.7946284 -6.78955078 39.16015625 C-8.87211596 41.24710988 -10.93814437 43.34955383 -13.00390625 45.453125 C-14.3323516 46.78743647 -15.66174713 48.12080276 -16.9921875 49.453125 C-17.60488495 50.08019348 -18.2175824 50.70726196 -18.84884644 51.35333252 C-22.93942618 55.40105142 -26.3885528 57.70668449 -32.30859375 58.1875 C-38.40291937 57.65075206 -42.00833 55.64938836 -46 51 C-48.37206571 47.08093491 -48.91482941 42.48111355 -48 38 C-45.19346753 32.43397902 -41.82861174 28.39757853 -37.40625 24.04296875 C-36.77771118 23.41393143 -36.14917236 22.7848941 -35.50158691 22.13679504 C-34.1805988 20.81813377 -32.85594993 19.50313047 -31.52783203 18.19165039 C-29.49719745 16.18473018 -27.48033812 14.16469112 -25.46484375 12.14257812 C-24.17527109 10.85857915 -22.88493269 9.57534868 -21.59375 8.29296875 C-20.99260376 7.6909111 -20.39145752 7.08885345 -19.77209473 6.46855164 C-19.20470581 5.91069473 -18.63731689 5.35283783 -18.05273438 4.77807617 C-17.55849976 4.28844894 -17.06426514 3.79882172 -16.55505371 3.2943573 C-11.58767302 -0.84026867 -6.1902964 -0.7187572 0 0 Z " fill="#9CEEFE" transform="translate(276,38)"/>
<path d="M0 0 C4.45549919 4.34682848 6.72636497 9.08664621 7.06420898 15.33618164 C7.08361752 17.1107347 7.08076346 18.88563554 7.05859375 20.66015625 C7.06004898 21.60886093 7.06150421 22.55756561 7.06300354 23.53501892 C7.06135223 25.52931813 7.04987769 27.52363111 7.02905273 29.51782227 C7.00004907 32.55735758 7.00847043 35.59515068 7.02148438 38.63476562 C7.01524725 40.58073758 7.00685652 42.52670407 6.99609375 44.47265625 C6.99902939 45.37387711 7.00196503 46.27509796 7.00498962 47.20362854 C6.9144926 53.30062743 6.19021111 58.44802303 2.0625 63.2421875 C-2.96643394 67.04008032 -7.14311503 68.34310111 -13.4375 67.5 C-17.71052817 65.86694171 -21.11354671 63.50236399 -23.4375 59.5 C-24.38794506 56.64866481 -24.57928403 54.8104233 -24.61450195 51.84838867 C-24.62733719 50.90698532 -24.64017242 49.96558197 -24.65339661 48.99565125 C-24.66078354 47.98001602 -24.66817047 46.9643808 -24.67578125 45.91796875 C-24.683853 44.87103348 -24.69192474 43.82409821 -24.70024109 42.74543762 C-24.71407518 40.52879489 -24.72480035 38.31213093 -24.73266602 36.09545898 C-24.7498804 32.71101403 -24.79377371 29.32754553 -24.83789062 25.94335938 C-24.84801764 23.78906968 -24.85653372 21.63477168 -24.86328125 19.48046875 C-24.88078934 18.47090622 -24.89829742 17.46134369 -24.91633606 16.42118835 C-24.89413701 9.20611573 -23.55760709 6.11932422 -18.875 0.6875 C-13.97113957 -3.36351514 -5.39725477 -2.35516572 0 0 Z " fill="#9CEEFE" transform="translate(196.4375,1.5)"/>
<path d="M0 0 C4.9536012 2.91898423 8.82201552 6.52901628 12.859375 10.59375 C13.48982727 11.22228882 14.12027954 11.85082764 14.76983643 12.49841309 C16.09331933 13.82054177 17.41430713 15.14517237 18.73291016 16.47216797 C20.75072472 18.50072858 22.7790352 20.51835296 24.80859375 22.53515625 C26.09699622 23.82487975 27.38477847 25.11522321 28.671875 26.40625 C29.2770697 27.00739624 29.8822644 27.60854248 30.50579834 28.22790527 C31.06688293 28.79529419 31.62796753 29.36268311 32.20605469 29.94726562 C32.94501984 30.68861755 32.94501984 30.68861755 33.69891357 31.44494629 C37.13135588 35.5473887 37.43122575 39.27109604 37.31640625 44.4609375 C36.70107618 49.39877139 34.60172332 52.66523057 30.75 55.875 C24.61984688 58.38278991 20.22252034 58.5306245 14.0831604 56.07946777 C10.37735018 54.15916307 7.65889867 51.35124119 4.76171875 48.390625 C4.114272 47.74559021 3.46682526 47.10055542 2.79975891 46.43597412 C1.44172767 45.07696856 0.08984554 43.71179301 -1.25610352 42.34082031 C-3.30840395 40.25416462 -5.38368293 38.19262048 -7.46289062 36.1328125 C-8.78529238 34.80351254 -10.10630445 33.47282835 -11.42578125 32.140625 C-12.04141434 31.52995178 -12.65704742 30.91927856 -13.29133606 30.2901001 C-17.49375855 25.97185107 -20.66763723 21.77684963 -21.21484375 15.55859375 C-20.41092186 9.41028973 -18.6363248 5.39665891 -13.9375 1.125 C-9.39507791 -0.61465101 -4.78608714 -0.8430417 0 0 Z " fill="#9CEEFE" transform="translate(109,38)"/>
</svg>
