<?xml version="1.0" encoding="UTF-8"?>
<svg version="1.1" xmlns="http://www.w3.org/2000/svg" width="512" height="512">
<path d="M0 0 C0.8949115 0.00054382 1.789823 0.00108765 2.71185303 0.00164795 C58.55845897 0.15688435 111.81246337 20.37981274 152.98046875 58.35546875 C154.90232152 60.11404907 156.86397489 61.78319775 158.875 63.4375 C162.01621604 66.11009639 164.66634076 69.0662632 167.328125 72.2109375 C168.57545401 73.66266076 169.8578413 75.08492838 171.171875 76.4765625 C207.98384769 115.5724897 228.6031657 173.18148039 227.37109375 226.69921875 C225.84176639 269.9668343 215.25451516 311.14718966 191.75390625 347.80078125 C190.072346 350.34879052 190.072346 350.34879052 189.1875 353.375 C189.74219971 353.54443115 190.29689941 353.7138623 190.8684082 353.88842773 C196.32730439 355.62180488 201.33244934 357.73003818 206.375 360.4375 C207.10477051 360.8281665 207.83454102 361.21883301 208.58642578 361.62133789 C227.48135432 371.97266915 244.48316107 385.64969156 252.1875 406.375 C254.85383023 417.29506584 253.16614306 428.26291784 247.6796875 438.0703125 C245.96099724 440.62036921 244.13842429 442.99827874 242.1875 445.375 C241.5171875 446.20773437 240.846875 447.04046875 240.15625 447.8984375 C203.72585995 490.79654173 132.8912864 501.8686918 79.875 508.625 C78.69881104 508.77614258 77.52262207 508.92728516 76.31079102 509.08300781 C72.27415894 509.56654138 68.23439218 509.98908914 64.1875 510.375 C63.2799295 510.46220306 62.37235901 510.54940613 61.43728638 510.63925171 C42.3183686 512.41146003 23.28740595 512.7382302 4.1050148 512.69285583 C1.71505831 512.68742053 -0.67488829 512.68504996 -3.06484985 512.6829834 C-25.77214967 512.65237663 -48.2573672 512.23328502 -70.8125 509.375 C-72.66149902 509.1581958 -72.66149902 509.1581958 -74.54785156 508.93701172 C-102.39921443 505.65460756 -129.92284698 500.3726042 -156.8125 492.375 C-158.17544189 491.971604 -158.17544189 491.971604 -159.56591797 491.56005859 C-184.18453373 484.14043891 -210.52692666 473.90162854 -229.8125 456.375 C-230.29557617 455.93961914 -230.77865234 455.50423828 -231.27636719 455.05566406 C-241.23511112 445.96994715 -250.33547271 435.47831325 -251.1484375 421.359375 C-251.49150859 405.34376653 -246.75526818 394.5893143 -235.69873047 382.8605957 C-222.41793368 369.25582471 -205.18383658 359.80198679 -187.8125 352.375 C-188.27398437 351.58480469 -188.73546875 350.79460937 -189.2109375 349.98046875 C-191.4392479 346.12716519 -193.63504997 342.25722136 -195.8125 338.375 C-196.42206543 337.2912207 -196.42206543 337.2912207 -197.04394531 336.18554688 C-222.19994796 291.08231389 -232.77070767 234.32773566 -221.8125 183.375 C-221.60850586 182.41964355 -221.40451172 181.46428711 -221.19433594 180.47998047 C-214.87822878 151.80007322 -204.36776434 124.74434911 -187.8125 100.375 C-187.21985352 99.48941406 -187.21985352 99.48941406 -186.61523438 98.5859375 C-152.90439652 48.48865309 -100.28124834 15.31835086 -41.45703125 3.34765625 C-27.58980208 0.83667605 -14.06614339 -0.03236753 0 0 Z " fill="#2F4154" transform="translate(254.8125,-0.375)"/>
<path d="M0 0 C2.86482944 1.94948878 4.4909786 4.74090679 6.37207031 7.58642578 C12.89317364 17.09384034 20.7291773 25.14397855 28.87207031 33.27392578 C29.67644531 34.11310547 30.48082031 34.95228516 31.30957031 35.81689453 C67.68618599 73.35800553 123.40235662 96.45345765 175.31347656 97.64501953 C178.68740564 97.69703895 182.06026721 97.71229591 185.43457031 97.71142578 C186.32203949 97.71249329 187.20950867 97.71356079 188.12387085 97.71466064 C212.06317279 97.67343998 235.23549248 94.32777208 257.87207031 86.27392578 C258.71350586 85.98146973 259.55494141 85.68901367 260.421875 85.38769531 C288.76151517 75.44830053 314.72705689 60.75525518 336.77050781 40.22314453 C338.65134698 38.47864872 340.57825063 36.83925011 342.55957031 35.21142578 C345.67259323 32.56173651 348.29548427 29.63626175 350.93457031 26.52001953 C353.11452499 23.99285433 355.39902424 21.58088965 357.68457031 19.14892578 C363.3602762 12.95011336 368.12309861 6.19529944 372.87207031 -0.72607422 C379.29033655 1.20768913 385.146463 3.6883346 391.05957031 6.83642578 C391.88328125 7.2740625 392.70699219 7.71169922 393.55566406 8.16259766 C412.73515144 18.5713412 430.05455603 32.24416628 437.87207031 53.27392578 C440.53840054 64.19399162 438.85071337 75.16184362 433.36425781 84.96923828 C431.64556756 87.51929499 429.8229946 89.89720452 427.87207031 92.27392578 C427.20175781 93.10666016 426.53144531 93.93939453 425.84082031 94.79736328 C389.41043026 137.69546751 318.57585671 148.76761758 265.55957031 155.52392578 C264.38338135 155.67506836 263.20719238 155.82621094 261.99536133 155.98193359 C257.95872925 156.46546716 253.91896249 156.88801492 249.87207031 157.27392578 C248.96449982 157.36112885 248.05692932 157.44833191 247.12185669 157.53817749 C228.00293891 159.31038581 208.97197626 159.63715598 189.78958511 159.59178162 C187.39962862 159.58634632 185.00968202 159.58397574 182.61972046 159.58190918 C159.91242064 159.55130241 137.42720311 159.1322108 114.87207031 156.27392578 C113.02307129 156.05712158 113.02307129 156.05712158 111.13671875 155.8359375 C83.28535588 152.55353334 55.76172334 147.27152998 28.87207031 139.27392578 C27.96344238 139.00499512 27.05481445 138.73606445 26.11865234 138.45898438 C1.50003658 131.03936469 -24.84235634 120.80055433 -44.12792969 103.27392578 C-44.61100586 102.83854492 -45.09408203 102.40316406 -45.59179688 101.95458984 C-55.55054081 92.86887293 -64.6509024 82.37723903 -65.46386719 68.25830078 C-65.80693828 52.24269231 -61.07069786 41.48824008 -50.01416016 29.75952148 C-38.87219922 18.3457615 -25.22673069 10.50127838 -11.12792969 3.27392578 C-10.33322266 2.86094238 -9.53851563 2.44795898 -8.71972656 2.02246094 C-7.93146484 1.63751465 -7.14320312 1.25256836 -6.33105469 0.85595703 C-5.62110352 0.50380127 -4.91115234 0.15164551 -4.1796875 -0.21118164 C-2.12792969 -0.72607422 -2.12792969 -0.72607422 0 0 Z " fill="#70C184" transform="translate(69.1279296875,352.72607421875)"/>
<path d="M0 0 C3.73263069 3.11052557 7.2686784 6.23657399 10.625 9.75 C47.14473538 46.62021269 104.40983729 66.98205132 155.41137695 67.43115234 C157.12841276 67.43588321 158.84545774 67.43794277 160.5625 67.4375 C161.44996918 67.4385675 162.33743835 67.43963501 163.25180054 67.44073486 C187.19110248 67.3995142 210.36342217 64.05384629 233 56 C234.26215332 55.56131592 234.26215332 55.56131592 235.54980469 55.11376953 C265.03902029 44.77119094 291.10539264 29.29240648 314 8 C315.32689517 6.84671728 316.65959983 5.70005843 318 4.5625 C320.89347038 2.15880264 320.89347038 2.15880264 323 0 C348.39921765 15.48107935 348.39921765 15.48107935 352 27 C353.27332127 34.84721249 352.52086329 41.10060329 347.9375 47.66796875 C321.97712579 78.91462884 268.84860028 85.65962153 231.02258301 90.72857666 C229.12081972 90.98378643 227.22003867 91.24628544 225.31933594 91.50927734 C183.10894531 97.06934108 136.12779958 97.00630869 94 91 C93.25010803 90.89347107 92.50021606 90.78694214 91.7276001 90.67718506 C1.56650742 77.77083448 1.56650742 77.77083448 -23 50 C-27.57668026 43.14647881 -29.747202 37.26073322 -29 29 C-25.18310693 16.91317195 -15.61078076 9.12555544 -4.75 3.23828125 C-2 2 -2 2 0 2 C0 1.34 0 0.68 0 0 Z " fill="#4C8056" transform="translate(94,383)"/>
<path d="M0 0 C1.23024399 0.01414948 2.46048798 0.02829895 3.72801208 0.0428772 C7.63241667 0.09856997 11.53094361 0.22396984 15.43359375 0.3515625 C18.09041076 0.40743412 20.74717259 0.44737472 23.40429688 0.48828125 C29.89521249 0.59814911 36.38273326 0.76517153 42.87109375 0.9765625 C50.36323781 14.19369543 57.82518654 27.42349155 65.1257019 40.74755859 C69.93252904 49.52484806 69.93252904 49.52484806 74.921875 58.19921875 C75.35532227 58.93986572 75.78876953 59.6805127 76.23535156 60.44360352 C77.00212443 61.74452399 77.78041233 63.0387682 78.57324219 64.32397461 C80.02758196 66.79943893 80.92834671 68.41707934 80.63110352 71.32177734 C79.7729892 74.31925087 78.55467267 76.70736997 77.01953125 79.421875 C76.12427734 81.01793579 76.12427734 81.01793579 75.2109375 82.64624023 C74.56253906 83.78649658 73.91414062 84.92675293 73.24609375 86.1015625 C72.57221235 87.29786199 71.89904663 88.49456488 71.2265625 89.69165039 C69.82264745 92.18966168 68.41563004 94.68588985 67.00683594 97.18115234 C64.9154172 100.8910697 62.84677463 104.61330068 60.78515625 108.33984375 C60.4548642 108.93657898 60.12457214 109.53331421 59.78427124 110.14813232 C58.20884187 112.99501969 56.63429505 115.84239425 55.06005859 118.68994141 C54.4820752 119.7319873 53.9040918 120.7740332 53.30859375 121.84765625 C52.81230469 122.74411865 52.31601563 123.64058105 51.8046875 124.56420898 C51.16660156 125.69028564 50.52851563 126.8163623 49.87109375 127.9765625 C49.48936508 128.9707016 49.10763641 129.9648407 48.71434021 130.98910522 C47.10424051 134.61882141 45.67691003 137.15087008 42.87109375 139.9765625 C37.02574294 141.6787218 31.38051003 141.37987459 25.34375 141.1484375 C23.62745615 141.12603463 21.91108515 141.10896312 20.19468689 141.09698486 C15.69299634 141.05132452 11.19600833 140.93362003 6.69616699 140.80053711 C2.09822216 140.67741597 -2.50048867 140.62289874 -7.09960938 140.5625 C-16.11143308 140.4340885 -25.11977761 140.22950198 -34.12890625 139.9765625 C-48.93072007 113.83478756 -48.93072007 113.83478756 -54.890625 103.07104492 C-55.56896174 101.84792737 -56.24941373 100.62598127 -56.93164062 99.4050293 C-57.95499815 97.5732477 -58.97231862 95.73823467 -59.98828125 93.90234375 C-60.57061523 92.85473877 -61.15294922 91.80713379 -61.75292969 90.7277832 C-64.45568073 85.32371977 -64.45568073 85.32371977 -63.63500977 81.94042969 C-63.34553467 81.22532227 -63.05605957 80.51021484 -62.7578125 79.7734375 C-62.43490234 78.96600098 -62.11199219 78.15856445 -61.77929688 77.32666016 C-61.42029297 76.46862793 -61.06128906 75.6105957 -60.69140625 74.7265625 C-60.32595703 73.83630371 -59.96050781 72.94604492 -59.58398438 72.02880859 C-56.1555293 63.80316274 -52.33607955 55.82967755 -48.12890625 47.9765625 C-47.80422363 47.36586914 -47.47954102 46.75517578 -47.14501953 46.12597656 C-42.52110681 37.50418609 -37.2224931 29.63260752 -31.12890625 21.9765625 C-30.38511719 21.03941406 -29.64132813 20.10226563 -28.875 19.13671875 C-26.65662462 16.38593327 -24.42534409 13.66282775 -22.12890625 10.9765625 C-21.54996109 10.17059631 -20.97101593 9.36463013 -20.37452698 8.53424072 C-14.24374804 0.64234862 -9.74356967 -0.42673054 0 0 Z " fill="#FEFEFE" transform="translate(121.12890625,77.0234375)"/>
<path d="M0 0 C25.41 0 50.82 0 77 0 C92 27 92 27 96.46484375 35.05078125 C97.05330078 36.11151855 97.64175781 37.17225586 98.24804688 38.26513672 C99.43450615 40.40522121 100.61925164 42.5462563 101.80273438 44.68798828 C104.3964278 49.37074154 106.99503631 54.04108781 109.75390625 58.62890625 C110.14263916 59.28012451 110.53137207 59.93134277 110.93188477 60.60229492 C111.89992639 62.20891213 112.8864305 63.80436919 113.875 65.3984375 C115.25855947 68.59791876 114.93523038 69.68086078 114 73 C113.04303744 74.99422237 112.01064676 76.95298679 110.9296875 78.8828125 C110.61652588 79.44646011 110.30336426 80.01010773 109.98071289 80.59083557 C108.95182777 82.43918435 107.91351985 84.2820502 106.875 86.125 C106.15448025 87.41476846 105.43459956 88.70489412 104.71533203 89.99536133 C103.22618442 92.66521767 101.73348625 95.33304333 100.23828125 97.99951172 C98.08244614 101.84749999 95.9449129 105.70540068 93.8125 109.56640625 C93.14344618 110.77655994 92.47433899 111.98668413 91.80517578 113.19677734 C90.55309077 115.46117292 89.30143704 117.72580705 88.05029297 119.99072266 C87.47424316 121.02890137 86.89819336 122.06708008 86.3046875 123.13671875 C85.80952637 124.03092529 85.31436523 124.92513184 84.80419922 125.84643555 C83.91112061 127.40744995 83.91112061 127.40744995 83 129 C82.63697784 129.8403479 82.27395569 130.6806958 81.89993286 131.54650879 C78.57156033 138.44931043 78.57156033 138.44931043 74.35769653 139.92588806 C71.01453502 140.29422909 67.80799956 140.33409695 64.4453125 140.2578125 C62.62203934 140.26504837 62.62203934 140.26504837 60.76193237 140.27243042 C58.19483373 140.2704744 55.6276503 140.2437067 53.06103516 140.19384766 C49.14322287 140.12531875 45.23446186 140.1524868 41.31640625 140.19140625 C38.81767011 140.17760506 36.3189572 140.15825636 33.8203125 140.1328125 C32.07308395 140.14769211 32.07308395 140.14769211 30.29055786 140.16287231 C24.27397271 139.98982224 20.75099065 139.45620575 16.37597656 135.13867188 C15.21783584 133.78654543 14.089359 132.40813097 13 131 C12.05531356 129.88228306 11.1101299 128.7649858 10.1640625 127.6484375 C9.31094952 126.56256787 8.46466743 125.47129978 7.625 124.375 C7.16295166 123.77655273 6.70090332 123.17810547 6.22485352 122.56152344 C4.80756714 120.71433895 3.40250152 118.85842614 2 117 C1.56896973 116.43506836 1.13793945 115.87013672 0.69384766 115.28808594 C-11.20740085 99.60611737 -19.91001809 82.32882188 -27 64 C-27.36689941 63.19006592 -27.73379883 62.38013184 -28.11181641 61.5456543 C-29.60070555 57.8131073 -30.36863882 55.26367303 -29.22241211 51.33447266 C-27.80618858 48.37277648 -26.21401126 45.61232286 -24.5 42.8125 C-23.60970093 41.27057983 -23.60970093 41.27057983 -22.70141602 39.69750977 C-21.45467487 37.54177889 -20.1947214 35.39364076 -18.92236328 33.25292969 C-16.42227758 29.02240621 -14.02453311 24.738043 -11.625 20.44995117 C-7.79288731 13.60903125 -3.89025731 6.8079503 0 0 Z " fill="#FEFEFE" transform="translate(87,234)"/>
<path d="M0 0 C9.86537221 -0.39516096 19.72884455 -0.69654287 29.60053825 -0.88080692 C34.18576688 -0.96928973 38.7655588 -1.08906017 43.34765625 -1.2824707 C72.81361796 -2.49360608 72.81361796 -2.49360608 79.56033325 1.52505493 C83.33322228 5.33931618 84.98121137 9.70705823 86.35998535 14.81686401 C87.2902985 17.99022907 88.89573104 20.65360848 90.57421875 23.48828125 C92.17105247 26.46225091 93.75647266 29.44213033 95.34204102 32.42211914 C98.72125946 38.75525613 98.72125946 38.75525613 102.453125 44.8828125 C107.59081912 52.7916251 107.59081912 52.7916251 106.8125 57.3125 C106.26314335 58.89510257 105.6497664 60.45590569 105 62 C104.59910156 63.09828125 104.19820312 64.1965625 103.78515625 65.328125 C94.55818376 89.76298844 80.95293253 112.03866874 63.40412903 131.39480591 C62.07222701 132.91743041 60.84926426 134.53336398 59.63500977 136.15136719 C55.81676134 139.91537221 51.93325219 139.68186203 46.78213501 139.67977905 C44.99118912 139.63332748 44.99118912 139.63332748 43.1640625 139.5859375 C41.92957367 139.57744781 40.69508484 139.56895813 39.42318726 139.56021118 C35.4895616 139.52668888 31.5580036 139.45140166 27.625 139.375 C24.95445705 139.34151509 22.28393354 139.31752421 19.61328125 139.29296875 C13.07481822 139.22690064 6.53755684 139.12655928 0 139 C-0.40613525 138.26289795 -0.81227051 137.5257959 -1.23071289 136.76635742 C-8.82706287 122.98220281 -16.43033918 109.20186503 -24.0625 95.4375 C-24.95304077 93.82814575 -24.95304077 93.82814575 -25.86157227 92.1862793 C-26.43447998 91.15414307 -27.0073877 90.12200684 -27.59765625 89.05859375 C-28.14824707 88.05940918 -28.69883789 87.06022461 -29.26611328 86.03076172 C-30.47768651 83.91298221 -31.7469989 81.82766364 -33.05810547 79.77001953 C-33.7182666 78.72313965 -34.37842773 77.67625977 -35.05859375 76.59765625 C-35.66888428 75.66574463 -36.2791748 74.73383301 -36.90795898 73.77368164 C-38 71 -38 71 -37.36816406 67.99658203 C-36.03218376 65.07048957 -34.62906833 62.25998148 -33.05078125 59.45703125 C-32.4570874 58.39613281 -31.86339355 57.33523438 -31.25170898 56.2421875 C-30.61177002 55.11039062 -29.97183105 53.97859375 -29.3125 52.8125 C-28.64406626 51.62140021 -27.97618824 50.42998839 -27.30883789 49.23828125 C-25.91606151 46.75219684 -24.52088326 44.26748359 -23.12402344 41.78369141 C-19.70622942 35.70153864 -16.32377864 29.59973308 -12.9375 23.5 C-12.33139893 22.41050049 -11.72529785 21.32100098 -11.10083008 20.19848633 C-10.51970459 19.15329834 -9.9385791 18.10811035 -9.33984375 17.03125 C-8.83831787 16.12955078 -8.33679199 15.22785156 -7.82006836 14.29882812 C-5.1956862 9.54220147 -2.59844527 4.77083324 0 0 Z " fill="#FEFEFE" transform="translate(347,234)"/>
<path d="M0 0 C7.80988929 -0.22900177 15.61890737 -0.38613857 23.43139648 -0.49438477 C26.0876271 -0.53444064 28.73944867 -0.60080914 31.39526367 -0.67895508 C35.22109877 -0.78867444 39.04396749 -0.83929082 42.87109375 -0.87890625 C44.04957382 -0.92535782 45.22805389 -0.97180939 46.44224548 -1.01966858 C52.95386016 -1.02361907 56.41797137 -0.32583679 61.13500977 4.3371582 C62.45760063 5.86239129 63.74966355 7.41499485 65 9 C65.98955581 10.16148179 66.9791324 11.32294586 67.96875 12.484375 C68.82006631 13.56700955 69.66384385 14.65561437 70.5 15.75 C70.95938965 16.34506348 71.4187793 16.94012695 71.89208984 17.55322266 C108.69362131 65.62546165 108.69362131 65.62546165 106.71142578 84.79003906 C105.9527565 88.2131632 104.8038408 90.63940844 103.078125 93.68359375 C102.47049316 94.76592285 101.86286133 95.84825195 101.23681641 96.96337891 C100.57476572 98.12154589 99.91248872 99.27958353 99.25 100.4375 C98.57522109 101.63155372 97.90123921 102.82605817 97.22802734 104.02099609 C95.84600487 106.47072668 94.45885251 108.91744003 93.06738281 111.36181641 C91.08129162 114.85242695 89.11318836 118.35279924 87.1484375 121.85546875 C82.43495049 130.24585883 82.43495049 130.24585883 80.4140625 133.8203125 C79.9701416 134.60680176 79.5262207 135.39329102 79.06884766 136.20361328 C78 138 78 138 77 139 C74.59651714 139.09496708 72.22189018 139.12558862 69.81811523 139.11352539 C68.6913588 139.11374443 68.6913588 139.11374443 67.5418396 139.1139679 C65.04739541 139.11326863 62.55302497 139.10547564 60.05859375 139.09765625 C58.33366436 139.09579212 56.60873443 139.09436819 54.88380432 139.09336853 C50.33487497 139.08954297 45.78597733 139.07971238 41.23706055 139.06866455 C36.59879994 139.05845124 31.96053423 139.05387108 27.32226562 139.04882812 C18.21482978 139.03809014 9.10741752 139.02101327 0 139 C-0.35944199 138.33384674 -0.71888397 137.66769348 -1.08921814 136.98135376 C-2.75495542 133.89580751 -4.4223923 130.81118271 -6.08984375 127.7265625 C-6.65489624 126.67927979 -7.21994873 125.63199707 -7.80212402 124.55297852 C-11.16106477 118.34246819 -14.57358644 112.16693671 -18.06013489 106.02711487 C-19.63262183 103.25121441 -21.18479926 100.46452418 -22.734375 97.67578125 C-24.94102372 93.75742675 -27.29167509 89.98525346 -29.765625 86.23046875 C-38.05106994 73.29014244 -38.05106994 73.29014244 -37.96777344 67.92382812 C-36.8664782 63.50507886 -34.25656359 60.02121109 -31.62304688 56.37597656 C-29.05860366 52.62189092 -26.96912314 48.62457892 -24.80419922 44.63085938 C-22.91761277 41.15081553 -20.99304277 37.69351496 -19.0546875 34.2421875 C-15.2747807 27.49857315 -11.51849431 20.74202432 -7.76715088 13.98248291 C-5.17934216 9.3209658 -2.5894655 4.66059692 0 0 Z " fill="#FEFEFE" transform="translate(347,78)"/>
<path d="M0 0 C25.41 0 50.82 0 77 0 C92.13871428 26.78387912 92.13871428 26.78387912 99.25460815 39.77099609 C104.06143529 48.54828556 104.06143529 48.54828556 109.05078125 57.22265625 C109.48422852 57.96330322 109.91767578 58.7039502 110.36425781 59.46704102 C111.13103068 60.76796149 111.90931858 62.0622057 112.70214844 63.34741211 C114.15339631 65.81761363 115.05809877 67.43594061 114.75952148 70.3347168 C113.89576538 73.36577607 112.66508765 75.84545499 111.15625 78.61328125 C110.57431885 79.6894873 109.9923877 80.76569336 109.39282227 81.87451172 C108.11614408 84.19337955 106.83821687 86.51150915 105.55834961 88.82861328 C104.91254536 89.99899458 104.26679315 91.1694046 103.62109375 92.33984375 C102.67919189 94.04696533 102.67919189 94.04696533 101.71826172 95.78857422 C100.2474184 98.53757579 98.89202371 101.29414403 97.59765625 104.12890625 C93.05296464 113.84714171 93.05296464 113.84714171 87.890625 116.74609375 C84.61955824 117.72098592 81.6070434 118.32641514 78.23291016 118.72314453 C75.87585426 119.01539266 73.56465533 119.43322932 71.23046875 119.87109375 C48.93354347 123.78645425 24.95565215 123.67148867 2.69726562 119.4753418 C-0.08004978 118.94693328 -0.08004978 118.94693328 -3.24414062 118.70629883 C-8.45300538 118.00490342 -11.82641294 117.32829699 -15.38720703 113.2980957 C-17.58120088 109.71671576 -19.44634027 106.09904085 -21.25 102.3125 C-21.92068888 100.98537789 -22.59568399 99.66042352 -23.27490234 98.33764648 C-24.60292031 95.74354476 -25.91002879 93.14047541 -27.20410156 90.52929688 C-28.73528605 87.52021544 -30.34047514 84.62221639 -32.0859375 81.734375 C-32.74287598 80.64709106 -32.74287598 80.64709106 -33.41308594 79.5378418 C-34.19328543 78.26616692 -34.98479143 77.0013249 -35.79003906 75.74536133 C-36.7890625 74.06640625 -36.7890625 74.06640625 -38 71 C-36.87807287 66.64729986 -35.01403385 62.93093834 -32.83203125 59.01953125 C-32.19305908 57.86807617 -31.55408691 56.71662109 -30.89575195 55.53027344 C-30.20142648 54.29096416 -29.50700692 53.0517076 -28.8125 51.8125 C-28.09742778 50.52793224 -27.38283507 49.24309745 -26.66870117 47.95800781 C-25.19067099 45.30008954 -23.7098087 42.64378044 -22.2265625 39.98876953 C-20.07147298 36.13030872 -17.92503055 32.2670969 -15.78125 28.40234375 C-12.75433614 22.94641543 -9.72404095 17.49238338 -6.69067383 12.04003906 C-4.45912012 8.02743158 -2.2297755 4.01359589 0 0 Z " fill="#FDFDFE" transform="translate(217,312)"/>
<path d="M0 0 C0.84946198 0.00115814 1.69892395 0.00231628 2.5741272 0.00350952 C14.93241132 0.03674047 27.27303428 0.26981834 39.41601562 2.83081055 C41.89982462 3.3639085 41.89982462 3.3639085 44.80273438 3.66333008 C49.4891742 4.40913145 52.70673759 5.05798606 55.91772461 8.70092773 C57.81112304 11.85295113 59.3979748 15.03602975 60.9375 18.375 C62.10641653 20.73519607 63.27699959 23.09456748 64.44921875 25.453125 C65.0117334 26.61650391 65.57424805 27.77988281 66.15380859 28.97851562 C68.85209655 34.40209825 71.92850002 39.60629075 75.05712891 44.79125977 C77.86918668 49.67233263 77.86918668 49.67233263 77.60424805 52.66430664 C76.6705234 55.78737518 75.33596666 58.34995457 73.7421875 61.1953125 C73.42902588 61.75896011 73.11586426 62.32260773 72.79321289 62.90333557 C71.76432777 64.75168435 70.72601985 66.5945502 69.6875 68.4375 C68.96698025 69.72726846 68.24709956 71.01739412 67.52783203 72.30786133 C66.03868442 74.97771767 64.54598625 77.64554333 63.05078125 80.31201172 C60.89494614 84.15999999 58.7574129 88.01790068 56.625 91.87890625 C55.95594618 93.08905994 55.28683899 94.29918413 54.61767578 95.50927734 C53.36559077 97.77367292 52.11393704 100.03830705 50.86279297 102.30322266 C50.28674316 103.34140137 49.71069336 104.37958008 49.1171875 105.44921875 C48.62202637 106.34342529 48.12686523 107.23763184 47.61669922 108.15893555 C46.72362061 109.71994995 46.72362061 109.71994995 45.8125 111.3125 C45.50603546 112.15611084 45.19957092 112.99972168 44.88381958 113.86889648 C43.51683897 117.03073017 42.37134464 118.9843569 39.8125 121.3125 C34.0085433 122.75167653 28.32521374 122.47830753 22.3828125 122.2890625 C20.66507083 122.27039799 18.94727572 122.25616961 17.22946167 122.2461853 C12.72021036 122.2081033 8.21420948 122.10997517 3.70623779 121.99914551 C-0.89851911 121.89662133 -5.50380438 121.85112902 -10.109375 121.80078125 C-19.13684056 121.69371307 -28.16189945 121.52317537 -37.1875 121.3125 C-37.62996567 120.51026505 -38.07243134 119.70803009 -38.52830505 118.88148499 C-49.87124827 98.30584268 -49.87124827 98.30584268 -61.25 77.75 C-61.83458984 76.69361328 -62.41917969 75.63722656 -63.02148438 74.54882812 C-63.60349609 73.50017578 -64.18550781 72.45152344 -64.78515625 71.37109375 C-65.33703613 70.37319824 -65.88891602 69.37530273 -66.45751953 68.34716797 C-67.66806711 66.22367003 -68.92310337 64.125201 -70.21044922 62.04736328 C-71.18715576 60.4635083 -71.18715576 60.4635083 -72.18359375 58.84765625 C-72.78228271 57.90414307 -73.38097168 56.96062988 -73.99780273 55.98852539 C-75.41972107 52.79015747 -75.31748484 51.58361129 -74.1875 48.3125 C-73.03930664 45.91918945 -73.03930664 45.91918945 -71.59765625 43.42578125 C-71.06503174 42.49531982 -70.53240723 41.5648584 -69.98364258 40.60620117 C-69.1254895 39.13050659 -69.1254895 39.13050659 -68.25 37.625 C-67.06699534 35.56551356 -65.88471277 33.50561218 -64.703125 31.4453125 C-63.81657227 29.90472168 -63.81657227 29.90472168 -62.91210938 28.33300781 C-59.96193917 23.16603362 -57.1044798 17.94770645 -54.26000977 12.72192383 C-50.39839665 5.69998693 -50.39839665 5.69998693 -46.74609375 4.53125 C-31.2289892 0.9578492 -15.88018815 -0.06748589 0 0 Z " fill="#FEFEFE" transform="translate(254.1875,17.6875)"/>
<path d="M0 0 C0.495 0.99 0.495 0.99 1 2 C-0.0480957 4.38256836 -0.0480957 4.38256836 -1.67578125 7.33984375 C-2.25650391 8.40267578 -2.83722656 9.46550781 -3.43554688 10.56054688 C-4.05494141 11.67494141 -4.67433594 12.78933594 -5.3125 13.9375 C-5.92029297 15.04802734 -6.52808594 16.15855469 -7.15429688 17.30273438 C-11.61502259 25.42253389 -11.61502259 25.42253389 -14 29 C-16.69540315 29.26686213 -19.15847464 29.34818073 -21.8515625 29.29296875 C-22.62559418 29.28872391 -23.39962585 29.28447906 -24.19711304 29.28010559 C-26.67342677 29.26328998 -29.14893158 29.22563395 -31.625 29.1875 C-33.30207159 29.17245682 -34.97915592 29.15876778 -36.65625 29.14648438 C-40.77114581 29.11337721 -44.88543569 29.06157637 -49 29 C-46.25252286 26.17185376 -43.63133766 23.53820754 -40.3203125 21.38671875 C-39.64637451 20.94730957 -38.97243652 20.50790039 -38.27807617 20.05517578 C-37.56756104 19.60384277 -36.8570459 19.15250977 -36.125 18.6875 C-35.37903564 18.21038574 -34.63307129 17.73327148 -33.86450195 17.24169922 C-23.05296593 10.41251723 -11.94246341 4.62575864 0 0 Z " fill="#34485D" transform="translate(178,32)"/>
<path d="M0 0 C4.73187094 -0.2481617 9.45992671 -0.42904293 14.19677734 -0.54931641 C15.80552136 -0.59945824 17.41381281 -0.66759943 19.02099609 -0.75439453 C32.33683087 -1.45522794 32.33683087 -1.45522794 36.25341797 1.97167969 C37.82928898 4.58755506 38.92404368 7.14553622 40 10 C40.82375215 11.48452607 41.67401613 12.9547669 42.5546875 14.40625 C43.32955716 15.7700206 44.10301931 17.13459198 44.875 18.5 C45.2771875 19.20125 45.679375 19.9025 46.09375 20.625 C49 25.76530612 49 25.76530612 49 28 C41.92298738 25.84644186 35.54686903 22.99323409 29 19.5625 C27.50617798 18.78265747 27.50617798 18.78265747 25.98217773 17.98706055 C16.78942006 13.07890683 8.17566602 7.46371448 0 1 C0 0.67 0 0.34 0 0 Z " fill="#34485D" transform="translate(130,391)"/>
<path d="M0 0 C2.62462244 -0.26697888 5.01065933 -0.34832984 7.6328125 -0.29296875 C8.76056595 -0.28660149 8.76056595 -0.28660149 9.91110229 -0.28010559 C12.31609685 -0.2632917 14.72025809 -0.22563624 17.125 -0.1875 C18.75389416 -0.17245659 20.38280144 -0.15876758 22.01171875 -0.14648438 C26.00813434 -0.11337954 30.00392582 -0.06158009 34 0 C30.26721997 3.8152111 26.61657826 6.88760396 22.1875 9.8125 C21.5387793 10.24264404 20.89005859 10.67278809 20.22167969 11.1159668 C13.69753886 15.34634225 6.87163454 18.83246776 -0.15917969 22.13476562 C-1.90694023 22.95625944 -3.64519035 23.79789832 -5.3828125 24.640625 C-10.91142384 27.26779801 -10.91142384 27.26779801 -13 28 C-13.66 27.67 -14.32 27.34 -15 27 C-12.87736782 23.06121911 -10.75149042 19.12419903 -8.625 15.1875 C-7.72007812 13.50817383 -7.72007812 13.50817383 -6.796875 11.79492188 C-6.21679688 10.72177734 -5.63671875 9.64863281 -5.0390625 8.54296875 C-4.23782959 7.0583313 -4.23782959 7.0583313 -3.42041016 5.54370117 C-2 3 -2 3 0 0 Z " fill="#34485D" transform="translate(347,391)"/>
</svg>
