<?xml version="1.0" encoding="UTF-8"?>
<svg version="1.1" xmlns="http://www.w3.org/2000/svg" width="512" height="512">
<path d="M0 0 C0.81801049 -0.00297112 1.63602098 -0.00594224 2.47881967 -0.0090034 C5.21768644 -0.01766945 7.9565094 -0.01919688 10.69538879 -0.02069092 C12.66017245 -0.0253206 14.62495522 -0.03034546 16.58973694 -0.03573608 C21.92671861 -0.04884825 27.26368771 -0.05530283 32.60068297 -0.05974674 C35.93674561 -0.06267958 39.27280483 -0.06678481 42.60886574 -0.07125092 C53.05158891 -0.08492319 63.49430424 -0.09459097 73.93703574 -0.09845281 C85.98225303 -0.10293199 98.02735675 -0.12047459 110.07253951 -0.1494534 C119.38907006 -0.17108762 128.70556871 -0.18115803 138.02212411 -0.18249393 C143.58360271 -0.18354077 149.14497452 -0.18942293 154.70642662 -0.20731354 C159.94066816 -0.22382408 165.17472298 -0.22593519 170.40898132 -0.21717453 C172.325346 -0.21640574 174.24172085 -0.22072599 176.15806007 -0.23063278 C190.6234852 -0.30100155 202.46910957 0.44179236 213.58918762 10.76934814 C218.82865046 16.42901853 221.79602008 22.74133442 222.44075012 30.43341064 C222.51833557 31.31923828 222.59592102 32.20506592 222.67585754 33.11773682 C222.75477234 34.11897583 222.75477234 34.11897583 222.83528137 35.14044189 C223.91534454 35.13675472 224.99540771 35.13306755 226.10820007 35.12926865 C252.3900122 35.04046554 278.67180487 34.97473653 304.95373535 34.93319321 C317.66349114 34.91256912 330.3731478 34.88445126 343.08283997 34.83868408 C354.16076728 34.79881186 365.2386228 34.77300797 376.31661987 34.76408792 C382.18220404 34.75887388 388.04758285 34.7466218 393.9131012 34.71752167 C399.43538232 34.69034671 404.95737371 34.68200123 410.47971535 34.68801117 C412.50496813 34.68691188 414.53023073 34.67897055 416.55542564 34.66362 C419.32492735 34.64365966 422.09334133 34.64852481 424.86286926 34.65942383 C425.66055662 34.64777246 426.45824398 34.6361211 427.28010368 34.62411666 C433.47308739 34.68979849 438.77486166 36.31240616 443.40155125 40.58778167 C447.89972749 45.68112028 447.98385887 49.990429 447.97572327 56.52174377 C447.98017995 57.64039701 447.98017995 57.64039701 447.98472667 58.78164929 C447.99340178 61.28187342 447.99492091 63.78204961 447.99641418 66.2822876 C448.00104317 68.07445376 448.00606794 69.86661893 448.01145935 71.65878296 C448.02457699 76.52869513 448.03102699 81.39859352 448.03547001 86.26852059 C448.03840158 89.3112451 448.04250653 92.35396585 448.04697418 95.39668846 C448.06064703 104.91730142 448.0703149 114.43790577 448.07417607 123.95852786 C448.07865736 134.94766044 448.09620945 145.93666866 448.12517667 156.92576343 C448.14679266 165.42100254 448.1568803 173.91620666 448.15821719 182.41147298 C448.15926522 187.4849435 448.16517263 192.5582971 448.1830368 197.63173866 C448.19951615 202.40468712 448.20167363 207.17743073 448.1928978 211.95039749 C448.19212737 213.70031597 448.19647091 215.45024546 448.20635605 217.20013618 C448.21907896 219.59306375 448.21319725 221.98526615 448.20277405 224.37818909 C448.21485865 225.41157684 448.21485865 225.41157684 448.2271874 226.46584111 C448.17202303 231.89812725 446.95118713 236.61407355 443.40559387 240.84747314 C438.58182274 244.5370062 434.7312823 246.39360077 428.64038086 246.38095093 C427.6153949 246.38370026 426.59040894 246.38644958 425.53436279 246.38928223 C424.42089981 246.38209167 423.30743683 246.37490112 422.16023254 246.36749268 C420.97932037 246.36778473 419.7984082 246.36807678 418.58171082 246.36837769 C415.35270134 246.36722493 412.12386629 246.35720979 408.8948915 246.34322977 C405.51698172 246.33070838 402.13906833 246.3295508 398.76113892 246.32717896 C392.36869041 246.32096832 385.9763105 246.30456316 379.58389217 246.28447998 C372.30460153 246.262108 365.02530758 246.25112428 357.74599111 246.24108911 C342.77571635 246.22019654 327.80550573 246.18502869 312.83528137 246.14044189 C312.84527412 247.42258072 312.84527412 247.42258072 312.85546875 248.73062134 C312.91580426 256.82135511 312.96136922 264.91201233 312.99071789 273.00292015 C313.00631403 277.16165206 313.02744034 281.32019666 313.06159973 285.4788208 C313.09441087 289.49887536 313.1121798 293.51875076 313.1199131 297.53892899 C313.12541786 299.06579021 313.13616638 300.59264264 313.15247154 302.11942673 C313.28083906 314.64801473 312.2372586 325.316872 303.83528137 335.14044189 C295.8432481 342.63752228 287.76478616 346.27713559 276.75984192 346.25396729 C275.55897446 346.25389175 274.35810699 346.25381622 273.12084961 346.2537384 C271.19091911 346.24599648 271.19091911 346.24599648 269.22200012 346.23809814 C267.88393202 346.23623145 266.54586322 346.23480873 265.20779419 346.23381042 C261.69792267 346.23000504 258.18809299 346.22019178 254.67823792 346.20910645 C251.09191961 346.19884967 247.50559451 346.19430368 243.91926575 346.18927002 C236.89125385 346.17856762 229.86326962 346.16151511 222.83528137 346.14044189 C222.83804675 346.69813452 222.84081213 347.25582714 222.84366131 347.83041954 C222.91008133 361.43657243 222.9594477 375.04269668 222.99071789 388.64897728 C223.00635015 395.22903882 223.02754412 401.80898303 223.06159973 408.38897705 C223.09427977 414.74321262 223.11215273 421.09733557 223.1199131 427.45164871 C223.12544106 429.8716471 223.13623575 432.29163957 223.15247154 434.71158981 C223.1743603 438.1103709 223.17724346 441.50869111 223.17585754 444.90753174 C223.19203629 446.39647446 223.19203629 446.39647446 223.20854187 447.91549683 C223.1632277 458.23650448 220.61405361 467.21471904 213.83528137 475.14044189 C205.06308811 483.36936636 196.60651825 486.29447963 184.67056274 486.28088379 C183.85255225 486.28385491 183.03454176 486.28682603 182.19174308 486.28988719 C179.4528763 486.29855324 176.71405334 486.30008067 173.97517395 486.30157471 C172.01039029 486.30620439 170.04560753 486.31122925 168.08082581 486.31661987 C162.74384413 486.32973204 157.40687503 486.33618661 152.06987977 486.34063053 C148.73381713 486.34356337 145.39775792 486.3476686 142.06169701 486.3521347 C131.61897384 486.36580698 121.1762585 486.37547476 110.733527 486.3793366 C98.68830972 486.38381578 86.643206 486.40135838 74.59802324 486.43033719 C65.28149268 486.45197141 55.96499403 486.46204182 46.64843863 486.46337771 C41.08696003 486.46442456 35.52558823 486.47030672 29.96413612 486.48819733 C24.72989458 486.50470787 19.49583977 486.50681898 14.26158142 486.49805832 C12.34521674 486.49728953 10.4288419 486.50160978 8.51250267 486.51151657 C-5.95292245 486.58188533 -17.79854682 485.83909143 -28.91862488 475.51153564 C-35.67350997 468.21490538 -38.2854316 459.75766407 -38.2989397 449.99474239 C-38.30129194 449.27079864 -38.30364417 448.54685489 -38.30606768 447.80097345 C-38.3127527 445.36227033 -38.3122996 442.92362056 -38.31188965 440.48490906 C-38.31518859 438.72388107 -38.31891422 436.96285385 -38.32303113 435.20182759 C-38.33305591 430.352227 -38.33676869 425.5026388 -38.33942044 420.65302932 C-38.34332208 415.42652286 -38.35290053 410.20002621 -38.3616333 404.973526 C-38.38140188 392.34618485 -38.39146452 379.71884288 -38.40036109 367.09149012 C-38.40474343 361.14611213 -38.41011039 355.20073503 -38.41534996 349.25535774 C-38.4323628 329.49325336 -38.44685712 309.73114954 -38.4540987 289.96903896 C-38.45600862 284.83989397 -38.45792895 279.71074898 -38.45988464 274.581604 C-38.46036838 273.3067683 -38.46085212 272.0319326 -38.46135052 270.71846551 C-38.46965135 250.06557127 -38.49498894 229.41273494 -38.52746532 208.75986599 C-38.56053099 187.55952243 -38.57854703 166.3592083 -38.58174294 145.15883881 C-38.58390851 133.2542115 -38.59266412 121.34966864 -38.61820412 109.44506645 C-38.63990437 99.30676072 -38.64796482 89.16855994 -38.63823733 79.03023361 C-38.63369069 73.85825548 -38.63560024 68.68649392 -38.65499878 63.51454544 C-38.67261696 58.77630634 -38.67164352 54.03844204 -38.65610149 49.30019904 C-38.65372339 47.58949708 -38.65805947 45.87876927 -38.66993014 44.16810685 C-38.75376655 31.28467197 -37.45546539 19.87970746 -28.16471863 10.14044189 C-19.69083577 2.54673831 -11.2876058 -0.01285733 0 0 Z " fill="#F3B594" transform="translate(51.16471862792969,12.85955810546875)"/>
<path d="M0 0 C54.78 0 109.56 0 166 0 C166 0.33 166 0.66 166 1 C164.40285156 1.31130859 164.40285156 1.31130859 162.7734375 1.62890625 C143.81943756 5.55542136 127.62645126 14.01082206 116.4140625 30.3046875 C110.96367421 38.96444149 107.23542164 47.8262847 105.35546875 57.89453125 C105.22281616 58.58148071 105.09016357 59.26843018 104.95349121 59.97619629 C104.63098062 61.64990247 104.31482119 63.32483043 104 65 C104.64861622 64.99631283 105.29723244 64.99262566 105.96550369 64.98882675 C121.79218141 64.90025489 137.61877219 64.83418351 153.44563675 64.79275131 C161.09959092 64.77217931 168.75337902 64.74416221 176.40722656 64.69824219 C183.08305885 64.65820917 189.7587708 64.63252827 196.4347198 64.62364602 C199.96535195 64.6184589 203.49564 64.60638147 207.02616119 64.57707977 C210.98006849 64.54453434 214.93364783 64.54405108 218.88769531 64.54589844 C220.04144653 64.53151733 221.19519775 64.51713623 222.38391113 64.50231934 C234.13509633 64.56140967 244.57185029 67.50726676 253 76 C259.35903578 83.57724187 262.21200437 90.29673721 262.31884766 100.30297852 C262.32888195 101.00248595 262.33891624 101.70199339 262.34925461 102.42269802 C262.38008488 104.74142648 262.39716926 107.06003762 262.4140625 109.37890625 C262.433052 111.03980373 262.45281565 112.70069251 262.47329712 114.36157227 C262.52564381 118.83353372 262.56537448 123.30552026 262.60169983 127.77763748 C262.62500178 130.56271258 262.6512743 133.34774352 262.67858887 136.13278198 C262.79043507 147.55700241 262.88148855 158.98126905 262.96032715 170.40576172 C262.99183515 174.94085086 263.02778881 179.47588991 263.06540871 184.01093197 C263.13990342 193.01195817 263.19599599 202.01285919 263.23016357 211.01412964 C263.24192558 214.03041794 263.26016565 217.04655816 263.28399658 220.06277466 C263.31635716 224.25155234 263.32360336 228.44000584 263.328125 232.62890625 C263.34656967 234.4531311 263.34656967 234.4531311 263.36538696 236.31420898 C263.33692205 247.27115963 261.23942095 256.53568787 254 265 C246.00796673 272.49708039 237.92950479 276.13669369 226.92456055 276.11352539 C225.72369308 276.11344986 224.52282562 276.11337433 223.28556824 276.11329651 C221.35563774 276.10555458 221.35563774 276.10555458 219.38671875 276.09765625 C218.04865064 276.09578956 216.71058185 276.09436684 215.37251282 276.09336853 C211.8626413 276.08956314 208.35281161 276.07974988 204.84295654 276.06866455 C201.25663824 276.05840777 197.67031314 276.05386179 194.08398438 276.04882812 C187.05597247 276.03812572 180.02798825 276.02107321 173 276 C173.00276538 276.55769262 173.00553076 277.11538525 173.00837994 277.68997765 C173.07479996 291.29613053 173.12416633 304.90225479 173.15543652 318.50853539 C173.17106878 325.08859692 173.19226275 331.66854113 173.22631836 338.24853516 C173.2589984 344.60277072 173.27687136 350.95689367 173.28463173 357.31120682 C173.29015969 359.73120521 173.30095438 362.15119768 173.31719017 364.57114792 C173.33907893 367.96992901 173.34196209 371.36824921 173.34057617 374.76708984 C173.35675491 376.25603256 173.35675491 376.25603256 173.3732605 377.77505493 C173.32794633 388.09606259 170.77877224 397.07427714 164 405 C155.22780674 413.22892446 146.77123688 416.15403774 134.83528137 416.14044189 C134.01727088 416.14341302 133.19926039 416.14638414 132.3564617 416.1494453 C129.61759493 416.15811134 126.87877197 416.15963878 124.13989258 416.16113281 C122.17510892 416.16576249 120.21032615 416.17078736 118.24554443 416.17617798 C112.90856276 416.18929014 107.57159366 416.19574472 102.2345984 416.20018864 C98.89853576 416.20312148 95.56247655 416.20722671 92.22641563 416.21169281 C81.78369246 416.22536508 71.34097713 416.23503287 60.89824563 416.2388947 C48.85302835 416.24337388 36.80792462 416.26091649 24.76274186 416.2898953 C15.44621131 416.31152952 6.12971266 416.32159993 -3.18684274 416.32293582 C-8.74832134 416.32398266 -14.30969315 416.32986482 -19.87114525 416.34775543 C-25.10538679 416.36426598 -30.3394416 416.36637708 -35.57369995 416.35761642 C-37.49006463 416.35684763 -39.40643947 416.36116788 -41.3227787 416.37107468 C-55.78820383 416.44144344 -67.6338282 415.69864954 -78.75390625 405.37109375 C-84.53278911 399.12874159 -88.13807251 391.04923367 -88.11352539 382.50683594 C-88.11341209 381.18591949 -88.11341209 381.18591949 -88.11329651 379.83831787 C-88.10813522 378.89651672 -88.10297394 377.95471558 -88.09765625 376.984375 C-88.09553383 375.52792572 -88.09553383 375.52792572 -88.09336853 374.04205322 C-88.08777663 370.94467065 -88.07522559 367.84736068 -88.0625 364.75 C-88.05748395 362.64843854 -88.05292123 360.54687596 -88.04882812 358.4453125 C-88.03780985 353.29684708 -88.02055074 348.14843584 -88 343 C-86.86978383 345.24156045 -85.7793441 347.48434994 -84.73828125 349.76953125 C-79.60160763 360.73245932 -74.16523636 366.27624616 -63 371 C-39.22918747 378.92360418 -3.32007672 366.81708459 17.96044922 356.57519531 C28.08188109 352.17470753 28.08188109 352.17470753 37 346 C38.93475936 345.83802015 40.87337712 345.7216111 42.8125 345.625 C58.54391719 344.49274969 76.81951761 339.31186675 88.18359375 327.78515625 C90 326 90 326 92 326 C92.25136719 325.43410156 92.50273437 324.86820312 92.76171875 324.28515625 C94.17288963 321.68094501 95.87971299 319.68071551 97.8125 317.4375 C101.98008603 312.31106718 104.58764913 307.11801533 107 301 C107.46212891 299.88044922 107.46212891 299.88044922 107.93359375 298.73828125 C114.03894853 283.40186374 112.71501129 263.13200091 106.40625 248.15234375 C98.75722366 231.0080444 85.56043003 217.92412758 68 211 C67.25363281 210.69191406 66.50726563 210.38382813 65.73828125 210.06640625 C51.29910043 204.31823712 31.49596678 204.75457754 17.15625 210.51953125 C16.1146875 211.00808594 15.073125 211.49664062 14 212 C12.49953125 212.68642578 12.49953125 212.68642578 10.96875 213.38671875 C5.12522301 216.31650907 0.47275621 219.92685025 -4.22265625 224.4609375 C-6 226 -6 226 -8 226 C-8.39445312 226.86818359 -8.39445312 226.86818359 -8.796875 227.75390625 C-10.06060061 230.11313426 -11.51616016 231.90297172 -13.25 233.9375 C-22.44459035 245.5839811 -26.27416738 259.43329026 -27 274 C-36.74453564 272.13402509 -42.89081282 265.77883515 -48.4921875 257.91796875 C-53.10817736 248.9849521 -53.43511566 240.24113172 -53.38818359 230.34570312 C-53.39225675 228.89248767 -53.39760278 227.43927531 -53.40411377 225.98606873 C-53.41770484 222.06661463 -53.41252298 218.14739939 -53.40297651 214.22794151 C-53.39533706 210.11000336 -53.40243735 205.99208453 -53.40713501 201.87414551 C-53.41258015 194.96114461 -53.40543366 188.04824013 -53.39111328 181.13525391 C-53.37478914 173.1633311 -53.38007853 165.19163855 -53.3965925 157.21972132 C-53.41024287 150.35315826 -53.41210973 143.48666417 -53.40427649 136.62009192 C-53.39961943 132.52863642 -53.39892058 128.43728885 -53.40888596 124.34584045 C-53.41760527 120.497771 -53.41144404 116.64999601 -53.39420319 112.80195808 C-53.39026467 111.39677988 -53.39132675 109.99157653 -53.39799118 108.58640862 C-53.45508184 95.31726568 -51.41054769 84.91083783 -42.1484375 75.0234375 C-34.623947 67.9785958 -28.2710587 66.14122874 -18 65 C-18 49.49 -18 33.98 -18 18 C-14.37 16.68 -10.74 15.36 -7 14 C-2.3296625 9.91345468 -2.13727721 6.41183163 0 0 Z " fill="#74EDFE" transform="translate(101,83)"/>
<path d="M0 0 C0.81801049 -0.00297112 1.63602098 -0.00594224 2.47881967 -0.0090034 C5.21768644 -0.01766945 7.9565094 -0.01919688 10.69538879 -0.02069092 C12.66017245 -0.0253206 14.62495522 -0.03034546 16.58973694 -0.03573608 C21.92671861 -0.04884825 27.26368771 -0.05530283 32.60068297 -0.05974674 C35.93674561 -0.06267958 39.27280483 -0.06678481 42.60886574 -0.07125092 C53.05158891 -0.08492319 63.49430424 -0.09459097 73.93703574 -0.09845281 C85.98225303 -0.10293199 98.02735675 -0.12047459 110.07253951 -0.1494534 C119.38907006 -0.17108762 128.70556871 -0.18115803 138.02212411 -0.18249393 C143.58360271 -0.18354077 149.14497452 -0.18942293 154.70642662 -0.20731354 C159.94066816 -0.22382408 165.17472298 -0.22593519 170.40898132 -0.21717453 C172.325346 -0.21640574 174.24172085 -0.22072599 176.15806007 -0.23063278 C190.6234852 -0.30100155 202.46910957 0.44179236 213.58918762 10.76934814 C218.82865046 16.42901853 221.79602008 22.74133442 222.44075012 30.43341064 C222.51833557 31.31923828 222.59592102 32.20506592 222.67585754 33.11773682 C222.75477234 34.11897583 222.75477234 34.11897583 222.83528137 35.14044189 C221.20469064 35.14402442 221.20469064 35.14402442 219.54115868 35.14767933 C193.10139237 35.20645075 166.66171736 35.28231898 140.22205162 35.37615681 C127.43607278 35.42113932 114.65012195 35.46054836 101.86408997 35.48687744 C90.72094007 35.50983759 79.57787862 35.54321347 68.43479884 35.58914346 C62.53358494 35.61310233 56.6324588 35.63181368 50.73119736 35.6380558 C45.17770685 35.64409454 39.62444093 35.66405075 34.07103348 35.69471741 C32.03207202 35.70351703 29.99308124 35.70721624 27.95410156 35.70545006 C25.17085674 35.70380027 22.38829896 35.72047162 19.60514832 35.74171448 C18.39404233 35.73444311 18.39404233 35.73444311 17.15846956 35.72702485 C10.92175207 35.80561723 6.88653248 37.36890685 2.08528137 41.51544189 C-2.77190937 47.18216442 -2.45400795 52.61372956 -2.43214417 59.75935364 C-2.43667528 60.8413839 -2.44120639 61.92341416 -2.44587481 63.03823322 C-2.45855376 66.67073464 -2.45689614 70.30308679 -2.45524597 73.93560791 C-2.46122917 76.5375335 -2.46803423 79.13945732 -2.4756012 81.74137878 C-2.49220921 88.08077084 -2.49771073 94.42012571 -2.49882595 100.7595377 C-2.49977689 105.9156904 -2.50388948 111.07183084 -2.5102272 116.22797966 C-2.52784208 130.85743974 -2.53706614 145.48687048 -2.53556626 160.11634124 C-2.53544639 161.29918293 -2.53544639 161.29918293 -2.5353241 162.50592041 C-2.53524234 163.29544871 -2.53516057 164.084977 -2.53507634 164.8984304 C-2.53426423 177.6808458 -2.55338219 190.46314314 -2.58160083 203.24552441 C-2.61036919 216.3810132 -2.62413883 229.51644449 -2.62241328 242.65196556 C-2.62175055 250.02215841 -2.6271907 257.39222764 -2.64876938 264.76239204 C-2.66894861 271.69895607 -2.66826705 278.6352556 -2.65373611 285.57183266 C-2.6516483 288.11302827 -2.6563472 290.65424025 -2.66845703 293.19540787 C-2.68395916 296.67479056 -2.67456734 300.15328033 -2.65919495 303.63264465 C-2.66948207 304.6292722 -2.6797692 305.62589975 -2.69036806 306.65272814 C-2.58125194 317.89216672 0.73580579 328.13606778 8.83528137 336.14044189 C13.21372277 339.63268075 17.59700731 342.16460168 22.83528137 344.14044189 C22.77727356 343.44821533 22.71926575 342.75598877 22.65950012 342.04278564 C21.91657611 325.9319478 29.38731015 310.69833796 39.59700012 298.54669189 C50.08894835 287.26738978 66.12242786 277.26268 81.84431458 275.87481689 C85.05542183 275.77542489 88.24812533 275.77968234 91.46028137 275.82794189 C92.54051575 275.82471924 93.62075012 275.82149658 94.73371887 275.81817627 C112.75515169 275.93905173 129.26038755 283.32332484 142.08528137 295.89044189 C155.68658266 309.7490651 162.23639212 326.44891381 162.08528137 345.70294189 C162.09301575 346.69229736 162.10075012 347.68165283 162.10871887 348.70098877 C162.06909709 363.62849671 156.46404171 377.08355104 147.83528137 389.14044189 C147.39828918 389.76305908 146.961297 390.38567627 146.51106262 391.02716064 C139.30850666 400.30612913 128.65582239 406.98916515 117.83528137 411.14044189 C117.13918762 411.43434814 116.44309387 411.72825439 115.72590637 412.03106689 C108.5013906 414.97866933 101.35783323 416.11433518 93.58528137 416.26544189 C86.04542265 416.75985886 80.86223933 420.19494601 74.64875793 424.06182861 C55.42928642 435.49311902 31.16760797 442.68814161 8.83528137 443.14044189 C7.76068665 443.18491455 7.76068665 443.18491455 6.66438293 443.23028564 C-6.16523979 443.74907346 -15.30284551 443.50295949 -25.47721863 434.89044189 C-34.0112099 426.70423083 -38.21689374 417.94204396 -38.54503536 406.06666756 C-38.57395321 403.2288328 -38.56459074 400.39195838 -38.55239868 397.55404663 C-38.55657548 395.97019158 -38.5620549 394.38633952 -38.56871849 392.80249298 C-38.58314644 388.46579952 -38.57893668 384.12929653 -38.57155168 379.79259276 C-38.56681574 375.10945216 -38.57933365 370.42635252 -38.58956909 365.7432251 C-38.60675416 356.57457257 -38.60759769 347.40598858 -38.60235619 338.23732413 C-38.59831265 330.78386896 -38.59976024 323.33043403 -38.60510445 315.87697983 C-38.60585287 314.81563647 -38.60660129 313.75429312 -38.60737239 312.66078784 C-38.60890389 310.50457669 -38.61044224 308.34836554 -38.61198736 306.19215439 C-38.62571139 285.97722747 -38.62027543 265.76233926 -38.60880215 245.54741322 C-38.59887028 227.06111243 -38.61180983 208.57491174 -38.63573634 190.0886264 C-38.66012954 171.09841955 -38.66973464 152.10825931 -38.66308361 133.1180371 C-38.65959184 122.45986831 -38.66182074 111.80177648 -38.67933464 101.14361954 C-38.69405936 92.07041459 -38.69468849 82.99734082 -38.67726373 73.92413844 C-38.66875356 69.29692213 -38.66660463 64.66994013 -38.68191528 60.04273605 C-38.6957718 55.80243054 -38.69098693 51.56255986 -38.67167605 47.32227944 C-38.66791868 45.79275443 -38.67083043 44.26319452 -38.6812877 42.73370065 C-38.76010061 30.31831251 -37.02611693 19.42963183 -28.16471863 10.14044189 C-19.69083577 2.54673831 -11.2876058 -0.01285733 0 0 Z " fill="#BFF5FE" transform="translate(51.16471862792969,12.85955810546875)"/>
<path d="M0 0 C5.9090625 -0.0928125 5.9090625 -0.0928125 11.9375 -0.1875 C13.77235962 -0.22846802 13.77235962 -0.22846802 15.64428711 -0.27026367 C26.87917097 -0.35506557 34.86152417 2.06906272 43 10 C49.37007854 17.55915987 52.21214851 24.31023664 52.31884766 34.30297852 C52.32888195 35.00248595 52.33891624 35.70199339 52.34925461 36.42269802 C52.38008488 38.74142648 52.39716926 41.06003762 52.4140625 43.37890625 C52.433052 45.03980373 52.45281565 46.70069251 52.47329712 48.36157227 C52.52564381 52.83353372 52.56537448 57.30552026 52.60169983 61.77763748 C52.62500178 64.56271258 52.6512743 67.34774352 52.67858887 70.13278198 C52.79043507 81.55700241 52.88148855 92.98126905 52.96032715 104.40576172 C52.99183515 108.94085086 53.02778881 113.47588991 53.06540871 118.01093197 C53.13990342 127.01195817 53.19599599 136.01285919 53.23016357 145.01412964 C53.24192558 148.03041794 53.26016565 151.04655816 53.28399658 154.06277466 C53.31635716 158.25155234 53.32360336 162.44000584 53.328125 166.62890625 C53.34656967 168.4531311 53.34656967 168.4531311 53.36538696 170.31420898 C53.33692205 181.27115963 51.23942095 190.53568787 44 199 C36.00796673 206.49708039 27.92950479 210.13669369 16.92456055 210.11352539 C15.72369308 210.11344986 14.52282562 210.11337433 13.28556824 210.11329651 C11.35563774 210.10555458 11.35563774 210.10555458 9.38671875 210.09765625 C8.04865064 210.09578956 6.71058185 210.09436684 5.37251282 210.09336853 C1.8626413 210.08956314 -1.64718839 210.07974988 -5.15704346 210.06866455 C-8.74336176 210.05840777 -12.32968686 210.05386179 -15.91601562 210.04882812 C-22.94402753 210.03812572 -29.97201175 210.02107321 -37 210 C-36.99723462 210.55769262 -36.99446924 211.11538525 -36.99162006 211.68997765 C-36.92520004 225.29613053 -36.87583367 238.90225479 -36.84456348 252.50853539 C-36.82893122 259.08859692 -36.80773725 265.66854113 -36.77368164 272.24853516 C-36.7410016 278.60277072 -36.72312864 284.95689367 -36.71536827 291.31120682 C-36.70984031 293.73120521 -36.69904562 296.15119768 -36.68280983 298.57114792 C-36.66092107 301.96992901 -36.65803791 305.36824921 -36.65942383 308.76708984 C-36.64324509 310.25603256 -36.64324509 310.25603256 -36.6267395 311.77505493 C-36.67205367 322.09606259 -39.22122776 331.07427714 -46 339 C-54.77219326 347.22892446 -63.22876312 350.15403774 -75.16471863 350.14044189 C-75.98272912 350.14341302 -76.80073961 350.14638414 -77.6435383 350.1494453 C-80.38240507 350.15811134 -83.12122803 350.15963878 -85.86010742 350.16113281 C-87.82489108 350.16576249 -89.78967385 350.17078736 -91.75445557 350.17617798 C-97.09143724 350.18929014 -102.42840634 350.19574472 -107.7654016 350.20018864 C-111.10146424 350.20312148 -114.43752345 350.20722671 -117.77358437 350.21169281 C-128.21630754 350.22536508 -138.65902287 350.23503287 -149.10175437 350.2388947 C-161.14697165 350.24337388 -173.19207538 350.26091649 -185.23725814 350.2898953 C-194.55378869 350.31152952 -203.87028734 350.32159993 -213.18684274 350.32293582 C-218.74832134 350.32398266 -224.30969315 350.32986482 -229.87114525 350.34775543 C-235.10538679 350.36426598 -240.3394416 350.36637708 -245.57369995 350.35761642 C-247.49006463 350.35684763 -249.40643947 350.36116788 -251.3227787 350.37107468 C-265.78820383 350.44144344 -277.6338282 349.69864954 -288.75390625 339.37109375 C-294.53278911 333.12874159 -298.13807251 325.04923367 -298.11352539 316.50683594 C-298.11341209 315.18591949 -298.11341209 315.18591949 -298.11329651 313.83831787 C-298.10813522 312.89651672 -298.10297394 311.95471558 -298.09765625 310.984375 C-298.09553383 309.52792572 -298.09553383 309.52792572 -298.09336853 308.04205322 C-298.08777663 304.94467065 -298.07522559 301.84736068 -298.0625 298.75 C-298.05748395 296.64843854 -298.05292123 294.54687596 -298.04882812 292.4453125 C-298.03780985 287.29684708 -298.02055074 282.14843584 -298 277 C-296.86978383 279.24156045 -295.7793441 281.48434994 -294.73828125 283.76953125 C-289.60160763 294.73245932 -284.16523636 300.27624616 -273 305 C-249.22918747 312.92360418 -213.32007672 300.81708459 -192.03955078 290.57519531 C-181.91811891 286.17470753 -181.91811891 286.17470753 -173 280 C-171.06524064 279.83802015 -169.12662288 279.7216111 -167.1875 279.625 C-151.45608281 278.49274969 -133.18048239 273.31186675 -121.81640625 261.78515625 C-120 260 -120 260 -118 260 C-117.74863281 259.43410156 -117.49726563 258.86820312 -117.23828125 258.28515625 C-115.82711037 255.68094501 -114.12028701 253.68071551 -112.1875 251.4375 C-108.01991397 246.31106718 -105.41235087 241.11801533 -103 235 C-102.69191406 234.25363281 -102.38382813 233.50726563 -102.06640625 232.73828125 C-95.96105147 217.40186374 -97.28498871 197.13200091 -103.59375 182.15234375 C-110.67178609 166.28784492 -122.91023908 152.93255289 -139.10546875 146.09765625 C-144.01828704 144.23463069 -148.98538778 142.56651935 -154 141 C-154 140.67 -154 140.34 -154 140 C-133.47533541 138.84548762 -116.10140794 145.26889157 -100.49609375 158.625 C-97.13430346 161.82369874 -94.11041449 165.25036532 -91.16796875 168.8359375 C-86.9469345 173.04936629 -82.8107389 174.33620697 -76.88467407 174.41769409 C-75.72963882 174.41094162 -75.72963882 174.41094162 -74.55126953 174.40405273 C-73.3110202 174.41434761 -73.3110202 174.41434761 -72.04571533 174.42485046 C-69.32457079 174.4430846 -66.60400477 174.43928538 -63.8828125 174.43359375 C-61.98240981 174.43815763 -60.08200876 174.44346382 -58.18161011 174.44947815 C-54.20222258 174.45840295 -50.22303579 174.45599382 -46.24365234 174.44604492 C-41.15723969 174.43456432 -36.07152223 174.45475604 -30.98520088 174.48396206 C-27.06110265 174.50235644 -23.13716995 174.502025 -19.2130394 174.49632454 C-17.33844911 174.49617168 -15.46384734 174.5021869 -13.58929825 174.51461601 C-10.96160239 174.5295832 -8.3351771 174.51880708 -5.70751953 174.50170898 C-4.94154449 174.51137695 -4.17556946 174.52104492 -3.38638306 174.53100586 C2.14132305 174.45612371 6.3680511 173.05032005 11 170 C15.86573002 164.88474537 16.34827674 160.5564984 16.28515625 153.73046875 C15.79466372 149.03383476 13.47452721 146.47452721 10.25 143.25 C7.21476192 141.43659168 7.21476192 141.43659168 0 140 C0 130.76 0 121.52 0 112 C9.75 111.75 9.75 111.75 12.80371094 111.70214844 C18.04708501 111.51927921 18.04708501 111.51927921 22.64453125 109.1796875 C24.32647192 106.91460182 24.32647192 106.91460182 23.9375 103.375 C23.3249155 99.74483076 23.3249155 99.74483076 20 98 C13.4 97.67 6.8 97.34 0 97 C0 78.85 0 60.7 0 42 C9.9 41.505 9.9 41.505 20 41 C21.32 39.68 22.64 38.36 24 37 C24.08916154 33.37350049 24.08916154 33.37350049 23 30 C19.86882433 27.91254955 18.93053776 27.72346004 15.33203125 27.5859375 C14.52741455 27.55032715 13.72279785 27.5147168 12.89379883 27.47802734 C11.87697021 27.44402832 10.8601416 27.4100293 9.8125 27.375 C4.9553125 27.189375 4.9553125 27.189375 0 27 C0 18.09 0 9.18 0 0 Z " fill="#75EDFE" transform="translate(311,149)"/>
<path d="M0 0 C54.78 0 109.56 0 166 0 C166.99 3.3 167.98 6.6 169 10 C174.24097904 15.75480052 175.80414699 15.95103675 184 18 C184 52.65 184 87.3 184 123 C180.7 123.99 177.4 124.98 174 126 C168.24519948 131.24097904 168.04896325 132.80414699 166 141 C138.94 141 111.88 141 84 141 C84 152.55 84 164.1 84 176 C83.67 176 83.34 176 83 176 C82.99413376 174.98015518 82.98826752 173.96031036 82.98222351 172.90956116 C82.92487649 163.27313752 82.85205263 153.63693696 82.76428509 144.000741 C82.71966039 139.04730435 82.68038698 134.09394844 82.65356445 129.14038086 C82.62745251 124.3550858 82.58699467 119.5701028 82.53681374 114.78500175 C82.52019825 112.96431819 82.50865099 111.14358071 82.50238609 109.32283211 C82.4926868 106.76184921 82.46455939 104.20165518 82.43237305 101.64086914 C82.43380814 100.89711533 82.43524323 100.15336151 82.4367218 99.3870697 C82.2669865 89.76532768 78.84407786 81.78070677 72 75 C70.24519857 73.95184765 68.47367166 72.93125157 66.6875 71.9375 C63.19662638 69.66266644 62.16507701 68.67727856 61.1640625 64.5703125 C60.94509795 62.53899133 60.80950309 60.51329538 60.68530273 58.47412109 C59.88096108 47.06162475 54.00555786 35.90830196 47 27 C46.40574219 26.24332031 45.81148438 25.48664063 45.19921875 24.70703125 C40.46291252 19.04054864 35.28358605 14.85341641 29 11 C28.27683594 10.54882812 27.55367188 10.09765625 26.80859375 9.6328125 C18.54866273 5.00725113 9.12836542 3.20242903 0 1 C0 0.67 0 0.34 0 0 Z " fill="#FCEEE8" transform="translate(280,83)"/>
<path d="M0 0 C1.08023438 -0.00322266 2.16046875 -0.00644531 3.2734375 -0.00976562 C21.29487032 0.11110984 37.80010618 7.49538295 50.625 20.0625 C64.22630129 33.92112321 70.77611075 50.62097192 70.625 69.875 C70.63273438 70.86435547 70.64046875 71.85371094 70.6484375 72.87304688 C70.60881571 87.80055481 65.00376033 101.25560915 56.375 113.3125 C55.93800781 113.93511719 55.50101562 114.55773437 55.05078125 115.19921875 C47.85189559 124.47345883 37.19477966 131.1705531 26.375 135.3125 C25.6325 135.61800781 24.89 135.92351562 24.125 136.23828125 C8.79805638 142.36325304 -11.49840166 141.02523597 -26.47265625 134.71875 C-36.10428197 130.41977278 -43.34296861 124.87375039 -50.625 117.3125 C-51.30046875 116.65636719 -51.9759375 116.00023437 -52.671875 115.32421875 C-66.52912158 101.00710779 -69.21341596 81.59782542 -68.96875 62.62109375 C-68.69032169 54.80537919 -66.96572532 48.425865 -63.625 41.3125 C-63.16738281 40.32378906 -62.70976563 39.33507812 -62.23828125 38.31640625 C-52.91771125 19.90508853 -37.17348737 8.15753253 -17.91796875 1.60546875 C-11.9573206 -0.09838711 -6.16016054 -0.09255049 0 0 Z " fill="#F09C70" transform="translate(142.625,288.6875)"/>
<path d="M0 0 C5.9090625 -0.0928125 5.9090625 -0.0928125 11.9375 -0.1875 C13.77235962 -0.22846802 13.77235962 -0.22846802 15.64428711 -0.27026367 C26.87917097 -0.35506557 34.86152417 2.06906272 43 10 C49.37007854 17.55915987 52.21214851 24.31023664 52.31884766 34.30297852 C52.3338991 35.35223967 52.3338991 35.35223967 52.34925461 36.42269802 C52.38008488 38.74142648 52.39716926 41.06003762 52.4140625 43.37890625 C52.433052 45.03980373 52.45281565 46.70069251 52.47329712 48.36157227 C52.52564381 52.83353372 52.56537448 57.30552026 52.60169983 61.77763748 C52.62500178 64.56271258 52.6512743 67.34774352 52.67858887 70.13278198 C52.79043507 81.55700241 52.88148855 92.98126905 52.96032715 104.40576172 C52.99183515 108.94085086 53.02778881 113.47588991 53.06540871 118.01093197 C53.13990342 127.01195817 53.19599599 136.01285919 53.23016357 145.01412964 C53.24192558 148.03041794 53.26016565 151.04655816 53.28399658 154.06277466 C53.31635716 158.25155234 53.32360336 162.44000584 53.328125 166.62890625 C53.34042145 167.84505615 53.3527179 169.06120605 53.36538696 170.31420898 C53.33692205 181.27115963 51.23942095 190.53568787 44 199 C36.37969199 206.14837637 28.40227805 210.13131129 17.84306335 210.12025452 C16.82649155 210.12162918 15.80991974 210.12300385 14.76254272 210.12442017 C13.65843048 210.12082489 12.55431824 210.11722961 11.41674805 210.11352539 C10.24558945 210.11367142 9.07443085 210.11381744 7.86778259 210.1139679 C3.99907576 210.11327157 0.13041716 210.10549222 -3.73828125 210.09765625 C-6.42156557 210.09579108 -9.10484722 210.09431844 -11.78813171 210.09336853 C-18.12743165 210.0902633 -24.46671429 210.08206082 -30.80600661 210.07201904 C-38.02484617 210.06083279 -45.24368657 210.05534112 -52.46253264 210.05032361 C-67.30836444 210.03987753 -82.15418108 210.02229375 -97 210 C-97.10906174 209.39854156 -97.21812347 208.79708313 -97.33049011 208.17739868 C-97.83334549 205.42192281 -98.34434006 202.6680152 -98.85546875 199.9140625 C-99.02687378 198.96797119 -99.19827881 198.02187988 -99.37487793 197.04711914 C-102.75899957 178.93281029 -111.98952995 164.31168883 -126.625 152.96484375 C-132.91893008 148.70332859 -139.63664622 145.91557345 -146.71484375 143.26171875 C-149.24604708 142.28956813 -151.61325446 141.27412732 -154 140 C-133.47533541 138.84548762 -116.10140794 145.26889157 -100.49609375 158.625 C-97.13430346 161.82369874 -94.11041449 165.25036532 -91.16796875 168.8359375 C-86.9469345 173.04936629 -82.8107389 174.33620697 -76.88467407 174.41769409 C-75.72963882 174.41094162 -75.72963882 174.41094162 -74.55126953 174.40405273 C-73.3110202 174.41434761 -73.3110202 174.41434761 -72.04571533 174.42485046 C-69.32457079 174.4430846 -66.60400477 174.43928538 -63.8828125 174.43359375 C-61.98240981 174.43815763 -60.08200876 174.44346382 -58.18161011 174.44947815 C-54.20222258 174.45840295 -50.22303579 174.45599382 -46.24365234 174.44604492 C-41.15723969 174.43456432 -36.07152223 174.45475604 -30.98520088 174.48396206 C-27.06110265 174.50235644 -23.13716995 174.502025 -19.2130394 174.49632454 C-17.33844911 174.49617168 -15.46384734 174.5021869 -13.58929825 174.51461601 C-10.96160239 174.5295832 -8.3351771 174.51880708 -5.70751953 174.50170898 C-4.94154449 174.51137695 -4.17556946 174.52104492 -3.38638306 174.53100586 C2.14132305 174.45612371 6.3680511 173.05032005 11 170 C15.86573002 164.88474537 16.34827674 160.5564984 16.28515625 153.73046875 C15.79466372 149.03383476 13.47452721 146.47452721 10.25 143.25 C7.21476192 141.43659168 7.21476192 141.43659168 0 140 C0 130.76 0 121.52 0 112 C9.75 111.75 9.75 111.75 12.80371094 111.70214844 C18.04708501 111.51927921 18.04708501 111.51927921 22.64453125 109.1796875 C24.32647192 106.91460182 24.32647192 106.91460182 23.9375 103.375 C23.3249155 99.74483076 23.3249155 99.74483076 20 98 C13.4 97.67 6.8 97.34 0 97 C0 78.85 0 60.7 0 42 C9.9 41.505 9.9 41.505 20 41 C21.32 39.68 22.64 38.36 24 37 C24.08916154 33.37350049 24.08916154 33.37350049 23 30 C19.86882433 27.91254955 18.93053776 27.72346004 15.33203125 27.5859375 C14.52741455 27.55032715 13.72279785 27.5147168 12.89379883 27.47802734 C11.87697021 27.44402832 10.8601416 27.4100293 9.8125 27.375 C6.574375 27.25125 3.33625 27.1275 0 27 C0 18.09 0 9.18 0 0 Z " fill="#00CCFE" transform="translate(311,149)"/>
<path d="M0 0 C7.55435107 -0.09301622 15.10864214 -0.16392438 22.66343689 -0.20724869 C26.17215319 -0.22805108 29.68047533 -0.25623163 33.18896484 -0.30175781 C37.23017993 -0.35386357 41.27098629 -0.37300577 45.3125 -0.390625 C46.5617627 -0.41127014 47.81102539 -0.43191528 49.09814453 -0.45318604 C56.74035566 -0.4551417 62.71343273 -0.00919121 68.54785156 5.44769287 C73.08224124 10.51283397 73.14856784 14.85774042 73.14044189 21.38130188 C73.14341302 22.1270707 73.14638414 22.87283952 73.1494453 23.6412074 C73.15812041 26.14143153 73.15963953 28.64160771 73.16113281 31.1418457 C73.1657618 32.93401186 73.17078657 34.72617704 73.17617798 36.51834106 C73.18929561 41.38825323 73.19574562 46.25815162 73.20018864 51.1280787 C73.2031202 54.17080321 73.20722516 57.21352395 73.21169281 60.25624657 C73.22536566 69.77685952 73.23503353 79.29746387 73.2388947 88.81808597 C73.24337599 99.80721854 73.26092807 110.79622677 73.2898953 121.78532153 C73.31151128 130.28056064 73.32159893 138.77576476 73.32293582 147.27103108 C73.32398384 152.34450161 73.32989126 157.4178552 73.34775543 162.49129677 C73.36423478 167.26424522 73.36639226 172.03698883 73.35761642 176.8099556 C73.356846 178.55987408 73.36118953 180.30980356 73.37107468 182.05969429 C73.38379759 184.45262186 73.37791588 186.84482425 73.36749268 189.23774719 C73.37957728 190.27113495 73.37957728 190.27113495 73.39190602 191.32539922 C73.33674166 196.75768536 72.11590575 201.47363166 68.5703125 205.70703125 C63.74654137 209.3965643 59.89600093 211.25315888 53.80509949 211.24050903 C52.78011353 211.24325836 51.75512756 211.24600769 50.69908142 211.24884033 C49.58561844 211.24164978 48.47215546 211.23445923 47.32495117 211.22705078 C45.55358292 211.22748886 45.55358292 211.22748886 43.74642944 211.22793579 C40.51741997 211.22678304 37.28858492 211.21676789 34.05961013 211.20278788 C30.68170034 211.19026649 27.30378696 211.18910891 23.92585754 211.18673706 C17.53340904 211.18052642 11.14102913 211.16412126 4.74861079 211.14403808 C-2.53067984 211.12166611 -9.80997379 211.11068239 -17.08929026 211.10064721 C-32.05957131 211.07975464 -47.02976329 211.04308363 -62 211 C-62 199.45 -62 187.9 -62 176 C-34.94 176 -7.88 176 20 176 C20.495 172.04 20.495 172.04 21 168 C23.49095081 163.67686223 26.68267349 160.61991836 31.1875 158.5 C34 158 34 158 38 158 C38 123.35 38 88.7 38 53 C35.36 52.67 32.72 52.34 30 52 C25.96610963 49.61808378 22.8219589 46.43842807 20.5 42.375 C19.96738833 39.84509457 19.85267613 37.57816773 20 35 C18.02 35 16.04 35 14 35 C13.9906543 34.33468262 13.98130859 33.66936523 13.97167969 32.98388672 C13.91773981 29.94685981 13.83413938 26.91133421 13.75 23.875 C13.73582031 22.82828125 13.72164063 21.7815625 13.70703125 20.703125 C13.51160625 14.52769497 13.12327714 10.70566091 9 6 C6.2518276 3.51777977 3.47071855 2.25331503 0 1 C0 0.67 0 0.34 0 0 Z " fill="#F19D71" transform="translate(426,48)"/>
<path d="M0 0 C54.78 0 109.56 0 166 0 C166 0.33 166 0.66 166 1 C164.40285156 1.31130859 164.40285156 1.31130859 162.7734375 1.62890625 C143.81943756 5.55542136 127.62645126 14.01082206 116.4140625 30.3046875 C109.41482138 41.42530918 106.6235149 51.88242551 104 65 C63.74 65 23.48 65 -18 65 C-18 49.49 -18 33.98 -18 18 C-14.37 16.68 -10.74 15.36 -7 14 C-2.3296625 9.91345468 -2.13727721 6.41183163 0 0 Z " fill="#FCEFE9" transform="translate(101,83)"/>
<path d="M0 0 C15.14827418 10.7911093 26.3124113 25.57917452 30.6875 43.875 C31.12543293 48.25432926 31.07820777 52.60298524 31 57 C29.7784169 56.67657623 28.5568338 56.35315247 27.29823303 56.01992798 C21.27938399 54.6914468 15.37005742 54.6925452 9.22827148 54.68115234 C7.97850021 54.67110672 6.72872894 54.6610611 5.44108582 54.65071106 C2.04086481 54.62525468 -1.359192 54.60831762 -4.75946927 54.59528303 C-8.32292415 54.57957019 -11.88629632 54.55280632 -15.44969177 54.5272522 C-22.18547771 54.48060789 -28.92127945 54.44379473 -35.65714353 54.41057932 C-43.33077631 54.37225606 -51.00432572 54.3228729 -58.67788804 54.27259517 C-74.45186495 54.16948894 -90.22588877 54.0801598 -106 54 C-105.85889803 52.07673874 -105.71234046 50.15387721 -105.56347656 48.23120117 C-105.4824469 47.16036789 -105.40141724 46.08953461 -105.31793213 44.98625183 C-103.64117137 29.2368845 -92.20934048 13.83026291 -80.46875 3.87890625 C-71.99120057 -2.57315273 -63.27398348 -6.3458876 -53 -9 C-52.37843018 -9.1750708 -51.75686035 -9.3501416 -51.11645508 -9.53051758 C-34.0028618 -13.32673858 -14.66438142 -9.06452148 0 0 Z " fill="#F19D71" transform="translate(311,94)"/>
<path d="M0 0 C54.78 0 109.56 0 166 0 C166.99 3.3 167.98 6.6 169 10 C174.24097904 15.75480052 175.80414699 15.95103675 184 18 C184 52.65 184 87.3 184 123 C180.7 123.99 177.4 124.98 174 126 C168.24519948 131.24097904 168.04896325 132.80414699 166 141 C138.94 141 111.88 141 84 141 C84 152.55 84 164.1 84 176 C83.67 176 83.34 176 83 176 C83 149.6 83 123.2 83 96 C83.33 96 83.66 96 84 96 C84 110.52 84 125.04 84 140 C90.95694519 139.94882718 97.91170173 139.88571061 104.86791992 139.79248047 C107.23145403 139.76435278 109.59508078 139.74309769 111.95874023 139.72900391 C115.36750432 139.70746126 118.77516421 139.66075073 122.18359375 139.609375 C123.23083115 139.60814636 124.27806854 139.60691772 125.35704041 139.60565186 C135.0730983 139.41413305 143.35934553 136.27309303 150.55859375 129.54296875 C159.08515185 120.46356649 160.13532802 109.40203286 160.20532227 97.49658203 C160.21522186 96.45207382 160.22512146 95.40756561 160.23532104 94.33140564 C160.26682568 90.89023073 160.2916498 87.44904202 160.31640625 84.0078125 C160.3369853 81.61741789 160.35798203 79.22702683 160.37937927 76.8366394 C160.43450163 70.55341481 160.48395424 64.2701579 160.53222656 57.98687744 C160.58251347 51.57195164 160.63816198 45.1570726 160.69335938 38.7421875 C160.80082063 26.16149857 160.90247437 13.58076968 161 1 C160.1945512 1.00699732 159.3891024 1.01399464 158.55924606 1.02120399 C138.97173947 1.19067319 119.38417185 1.34896456 99.79647446 1.49477577 C90.32406081 1.5655589 80.85170539 1.64014165 71.37939453 1.72363281 C63.12448706 1.7963839 54.86955906 1.8620431 46.61452794 1.91914403 C42.24251441 1.94963452 37.8705942 1.98370467 33.49868011 2.02626419 C29.38496862 2.0661982 25.27129646 2.0966601 21.15745735 2.11981392 C19.64653059 2.12999558 18.13562271 2.14365729 16.62476158 2.16103554 C14.56355943 2.18422631 12.50265525 2.19495055 10.44134521 2.20254517 C8.71021799 2.21637206 8.71021799 2.21637206 6.9441185 2.23047829 C4 2 4 2 0 0 Z " fill="#F7E3D9" transform="translate(280,83)"/>
<path d="M0 0 C7.85185562 7.20170197 11.55164222 19.20547238 12.15234375 29.6484375 C12.25297963 32.6836157 12.29788622 35.71320822 12.3125 38.75 C12.31805908 39.73258789 12.32361816 40.71517578 12.3293457 41.72753906 C12.18214198 56.57875865 6.58536102 70.00375063 -2 82 C-2.43699219 82.62261719 -2.87398438 83.24523437 -3.32421875 83.88671875 C-10.52310441 93.16095883 -21.18022034 99.8580531 -32 104 C-33.11375 104.45826172 -33.11375 104.45826172 -34.25 104.92578125 C-47.68353142 110.29410536 -67.55349796 110.32040884 -81 105 C-84.41790096 103.47081928 -87.73289279 101.82871267 -91 100 C-91 99.34 -91 98.68 -91 98 C-90.030625 97.78085937 -89.06125 97.56171875 -88.0625 97.3359375 C-59.13103388 90.58125444 -33.74064879 76.80098728 -17.09375 51.46875 C-7.1841594 35.34717724 -1.8338864 18.8041785 0 0 Z " fill="#EC844E" transform="translate(201,320)"/>
<path d="M0 0 C15.73410634 -0.0468207 31.46819372 -0.08203804 47.20235252 -0.10362434 C54.50878612 -0.11391579 61.81517631 -0.12793513 69.12158203 -0.15087891 C75.49341984 -0.1708783 81.86522619 -0.18373191 88.23709452 -0.18817699 C91.6077016 -0.19077333 94.97821873 -0.19683088 98.34879684 -0.21146011 C102.12109403 -0.22603246 105.89320643 -0.22797551 109.66552734 -0.22705078 C110.77036469 -0.23424133 111.87520203 -0.24143188 113.01351929 -0.24884033 C119.57556375 -0.23149757 125.62268851 0.43821127 132 2 C133.68549629 8.46165864 134.20203383 14.32890641 134 21 C132.7784169 20.67657623 131.5568338 20.35315247 130.29823303 20.01992798 C124.27938399 18.6914468 118.37005742 18.6925452 112.22827148 18.68115234 C110.97850021 18.67110672 109.72872894 18.6610611 108.44108582 18.65071106 C105.04086481 18.62525468 101.640808 18.60831762 98.24053073 18.59528303 C94.67707585 18.57957019 91.11370368 18.55280632 87.55030823 18.5272522 C80.81452229 18.48060789 74.07872055 18.44379473 67.34285647 18.41057932 C59.66922369 18.37225606 51.99567428 18.3228729 44.32211196 18.27259517 C28.54813505 18.16948894 12.77411123 18.0801598 -3 18 C-2.22095672 5.33029613 -2.22095672 5.33029613 0 0 Z " fill="#F16522" transform="translate(208,130)"/>
<path d="M0 0 C4.3929888 2.512307 8.23326131 5.38515703 10.625 9.9375 C10.68956986 13.29513275 10.2070288 14.96745201 8.5 17.8125 C5.44671624 19.64447026 3.10058236 19.35696684 -0.375 18.9375 C-1.15875 18.298125 -1.9425 17.65875 -2.75 17 C-6.39761788 14.13401452 -9.77011455 13.47118249 -14.375 13.9375 C-17.47840188 15.9008767 -18.96444986 17.25119073 -19.84765625 20.87890625 C-20.12397547 24.61275831 -19.59183288 26.58127456 -17.625 29.8125 C-13.54424239 32.48068767 -10.07841216 32.78555233 -5.30859375 33.43359375 C2.37469646 34.75335998 7.12635715 39.86017773 11.625 45.9375 C15.32372733 51.51024917 14.23419769 59.55361584 13.625 65.9375 C11.18867373 73.22472591 4.8212545 78.09350702 -1.625 81.8125 C-8.72913613 83.94374084 -14.95436041 83.95206524 -21.75 80.8125 C-26.04076723 78.38698668 -28.79408987 76.15298655 -31.375 71.9375 C-32 68.8125 -32 68.8125 -31.375 65.9375 C-29.3125 63.5 -29.3125 63.5 -26.375 61.9375 C-22.20026839 61.9375 -20.13835812 62.25449536 -17 65.0625 C-14.0412106 67.175921 -13.25042431 67.1972089 -9.75 66.9375 C-6.95417839 66.45834921 -5.59575903 66.10474169 -3.3125 64.375 C-1.98216667 60.91613334 -1.6478802 57.58735626 -2.375 53.9375 C-3.39085133 51.66728145 -3.39085133 51.66728145 -5.375 49.9375 C-8.50957989 48.98269743 -8.50957989 48.98269743 -12.0625 48.5 C-21.59381579 46.66441189 -27.84853017 43.00905462 -33.375 34.9375 C-36.68208804 28.47364611 -36.48005955 19.48893857 -34.3125 12.625 C-31.49590296 6.2942375 -25.94786026 1.39532468 -19.66796875 -1.3984375 C-12.92027485 -3.35262483 -6.37459671 -2.89928947 0 0 Z " fill="#F16523" transform="translate(154.375,318.0625)"/>
<path d="M0 0 C0.33 0 0.66 0 1 0 C1 9.57 1 19.14 1 29 C41.92 29 82.84 29 125 29 C124 35 123 41 122 47 C81.74 47 41.48 47 0 47 C0 31.49 0 15.98 0 0 Z " fill="#FAE6DC" transform="translate(83,101)"/>
<path d="M0 0 C1.25652626 -0.00855011 1.25652626 -0.00855011 2.53843689 -0.01727295 C4.31459289 -0.02672097 6.09076641 -0.03325615 7.86694336 -0.03710938 C10.55549811 -0.04675182 13.24326733 -0.07774999 15.93164062 -0.109375 C36.75429296 -0.24148411 36.75429296 -0.24148411 42.47094727 4.97753906 C47.0936427 10.08334835 47.82750037 13.61112816 47.73828125 20.4453125 C47.33403936 25.73040088 45.4122444 28.35669829 41.65234375 31.953125 C35.7684853 36.18950309 31.10953442 36.51125431 24.0625 36.50390625 C23.15157089 36.50819138 22.24064178 36.5124765 21.30210876 36.51689148 C19.37988108 36.52262198 17.45763171 36.52314449 15.53540039 36.51879883 C12.60330012 36.5156395 9.67221 36.53911172 6.74023438 36.56445312 C4.86849085 36.5667264 2.99674463 36.56742948 1.125 36.56640625 C-0.18306862 36.58022087 -0.18306862 36.58022087 -1.51756287 36.59431458 C-7.99113869 36.54539607 -12.10075538 35.18890247 -17.16015625 30.953125 C-20.61984717 26.83889796 -22.23179638 23.09559544 -22.91015625 17.765625 C-22.26696377 12.52820052 -20.70357091 8.25658054 -16.75390625 4.62109375 C-11.28213483 0.59841434 -6.72308353 0.03543968 0 0 Z " fill="#5ED246" transform="translate(280.47265625,287.796875)"/>
<path d="M0 0 C7.78065152 -0.06985574 15.56122801 -0.12299031 23.3421154 -0.15543652 C26.95605511 -0.17101793 30.56977849 -0.19211627 34.18359375 -0.22631836 C37.67845884 -0.25918345 41.17311732 -0.27690942 44.66812515 -0.28463173 C46.63435945 -0.29278089 48.60051194 -0.31615582 50.56661987 -0.33988953 C62.88369317 -0.34217624 72.5861471 2.1145286 81.75390625 10.62890625 C88.51009869 17.92694871 90.00021413 25.00214131 91 35 C70.87 35 50.74 35 30 35 C29.34 31.37 28.68 27.74 28 24 C24.30535522 15.02729126 18.87337106 8.23501801 10 4 C6.70497119 2.82791118 3.39042816 1.85455464 0 1 C0 0.67 0 0.34 0 0 Z " fill="#75EEFF" transform="translate(183,13)"/>
<path d="M0 0 C1.0670517 -0.00379669 2.13410339 -0.00759338 3.23348999 -0.01150513 C6.76403099 -0.0189203 10.29375076 0.00248638 13.82421875 0.02490234 C16.2751455 0.02728628 18.7260741 0.0281922 21.17700195 0.02767944 C26.31505768 0.03080913 31.4528347 0.04738788 36.59082031 0.07421875 C43.18188483 0.10819855 49.77264294 0.1158474 56.36378479 0.11432838 C61.42520074 0.11487186 66.4865495 0.12583554 71.54794312 0.14033127 C73.97845959 0.14670237 76.40898368 0.15063889 78.83950806 0.15211868 C82.23428349 0.15644827 85.62873212 0.1739424 89.0234375 0.1953125 C90.03135345 0.19440613 91.03926941 0.19349976 92.07772827 0.19256592 C93.00300323 0.20109589 93.9282782 0.20962585 94.8815918 0.21841431 C96.08503487 0.22344184 96.08503487 0.22344184 97.31278992 0.22857094 C99.79322672 0.51877554 101.39980075 1.16578659 103.51171875 2.48583984 C105.03663873 5.5356798 104.74734423 8.12817674 104.51171875 11.48583984 C102.96909062 13.58942365 101.83063558 14.32638143 99.51171875 15.48583984 C98.05113648 15.5862278 96.58610827 15.62523061 95.12210083 15.63301086 C93.73831238 15.64374382 93.73831238 15.64374382 92.3265686 15.6546936 C91.3114621 15.65738251 90.29635559 15.66007141 89.25048828 15.6628418 C87.65034882 15.67269859 87.65034882 15.67269859 86.0178833 15.68275452 C82.4767653 15.70251618 78.93568973 15.71415537 75.39453125 15.72412109 C74.18777615 15.72819662 72.98102104 15.73227215 71.7376976 15.73647118 C65.35296549 15.75734229 58.96825496 15.77164058 52.58349609 15.78100586 C45.97660495 15.79208374 39.37004936 15.82649695 32.76327705 15.86617756 C27.69330197 15.89227238 22.62340777 15.90069126 17.55337143 15.90428734 C15.11724451 15.9091703 12.68112159 15.92083245 10.24505997 15.93932533 C6.84034555 15.96356866 3.43651185 15.96277874 0.03173828 15.95581055 C-0.97931976 15.96862061 -1.99037781 15.98143066 -3.03207397 15.99462891 C-9.82400005 15.94381695 -9.82400005 15.94381695 -13.11453247 13.67521667 C-15.14501773 10.43918294 -15.02196995 8.22166071 -14.48828125 4.48583984 C-11.04608333 -0.98968301 -5.80188726 -0.06469536 0 0 Z " fill="#00CCFF" transform="translate(98.48828125,455.51416015625)"/>
<path d="M0 0 C0.73997726 -0.00807175 1.47995453 -0.01614349 2.24235535 -0.02445984 C3.8100653 -0.03829758 5.37780534 -0.04902113 6.94555664 -0.05688477 C9.33603507 -0.07407897 11.72512334 -0.11796224 14.11523438 -0.16210938 C15.63931276 -0.17223831 17.16340289 -0.18075378 18.6875 -0.1875 C19.75494194 -0.21376213 19.75494194 -0.21376213 20.84394836 -0.24055481 C24.29048768 -0.22559191 26.45938462 0.19214082 29.49243164 1.86645508 C32.13907565 4.92778935 32.18693529 6.59868167 32.20703125 10.61328125 C32.21669922 12.46179688 32.21669922 12.46179688 32.2265625 14.34765625 C32.20722656 15.6315625 32.18789062 16.91546875 32.16796875 18.23828125 C32.18730469 19.5221875 32.20664063 20.80609375 32.2265625 22.12890625 C32.22011719 23.36125 32.21367187 24.59359375 32.20703125 25.86328125 C32.19857178 27.55324219 32.19857178 27.55324219 32.18994141 29.27734375 C31.54296875 32.23828125 31.54296875 32.23828125 29.48583984 34.60351562 C25.8590694 36.61818751 22.83772333 36.81616937 18.79296875 36.76953125 C18.05723633 36.77335815 17.32150391 36.77718506 16.56347656 36.78112793 C15.01365789 36.78384028 13.46379291 36.77652644 11.9140625 36.75976562 C9.54973732 36.73834258 7.18845009 36.75958636 4.82421875 36.78515625 C3.31379542 36.78251285 1.80337396 36.77738761 0.29296875 36.76953125 C-0.40924805 36.77762817 -1.11146484 36.7857251 -1.83496094 36.79406738 C-6.63555104 36.70293537 -9.0833869 35.63412063 -12.45703125 32.23828125 C-14.50235722 28.14762931 -13.73020675 22.92188299 -13.76953125 18.42578125 C-13.81303711 16.78512695 -13.81303711 16.78512695 -13.85742188 15.11132812 C-13.92150067 7.02261209 -13.92150067 7.02261209 -11.5625 3.0390625 C-7.84134567 -0.14359454 -4.70592713 0.04843574 0 0 Z " fill="#F4D2BF" transform="translate(96.45703125,182.76171875)"/>
<path d="M0 0 C1.10472153 -0.01583633 2.20944305 -0.03167267 3.34764099 -0.04798889 C4.53624222 -0.04302902 5.72484344 -0.03806915 6.94946289 -0.03295898 C8.78765343 -0.04225685 8.78765343 -0.04225685 10.66297913 -0.05174255 C13.254478 -0.05884634 15.84602245 -0.05565711 18.4375 -0.04296875 C22.40393078 -0.02911626 26.36799752 -0.06315548 30.33422852 -0.10131836 C32.85180722 -0.10226965 35.36938888 -0.10041022 37.88696289 -0.09545898 C39.07353989 -0.10871719 40.26011688 -0.1219754 41.48265076 -0.13563538 C50.64045674 -0.03203529 50.64045674 -0.03203529 53.76806641 2.84619141 C55.48461914 5.53344727 55.48461914 5.53344727 55.54711914 9.15844727 C54.36335744 12.91863149 53.80283805 13.62005565 50.48461914 15.53344727 C47.90454102 15.92112732 47.90454102 15.92112732 44.95336914 15.9375 C43.29144531 15.95652626 43.29144531 15.95652626 41.59594727 15.97593689 C40.40420898 15.97300125 39.2124707 15.97006561 37.98461914 15.96704102 C36.75678711 15.97228287 35.52895508 15.97752472 34.26391602 15.98292542 C31.66822058 15.98934826 29.07249606 15.98800528 26.47680664 15.97949219 C22.49971873 15.97097958 18.52406522 15.99974748 14.54711914 16.03149414 C12.02628624 16.03310611 9.50545079 16.03252871 6.98461914 16.02954102 C5.19701172 16.04639198 5.19701172 16.04639198 3.37329102 16.06358337 C2.2653418 16.05420242 1.15739258 16.04482147 0.01586914 16.03515625 C-0.95801758 16.03499008 -1.9319043 16.03482391 -2.93530273 16.03465271 C-6.27410655 15.38605737 -7.46076035 14.19980023 -9.51538086 11.53344727 C-10.01538086 8.03344727 -10.01538086 8.03344727 -9.51538086 4.53344727 C-6.62222705 0.78451108 -4.67168433 0.02982663 0 0 Z " fill="#DFF3FF" transform="translate(280.515380859375,175.466552734375)"/>
<path d="M0 0 C11.22 0 22.44 0 34 0 C34 5.94 34 11.88 34 18 C31.339375 18.556875 31.339375 18.556875 28.625 19.125 C18.68097762 21.64321533 10.81950518 26.43282393 5 35 C3.46246715 37.93363094 2.15628044 40.89743385 1 44 C0.67 44 0.34 44 0 44 C0 29.48 0 14.96 0 0 Z " fill="#F09D71" transform="translate(49,130)"/>
<path d="M0 0 C6.04102958 0.21196595 9.07272479 1.27741847 13.5546875 5.33203125 C17.35571454 9.71862192 17.37321232 13.68937288 17.24609375 19.3125 C16.7759229 24.44706423 14.77518872 27.4974711 11 30.8125 C6.486502 34.10359229 3.39527656 34.11998072 -2.07421875 34.09765625 C-3.09996758 34.09553383 -3.09996758 34.09553383 -4.1464386 34.09336853 C-6.32683722 34.08777876 -8.50713251 34.07522822 -10.6875 34.0625 C-12.16731622 34.05748367 -13.64713406 34.052921 -15.12695312 34.04882812 C-18.75133557 34.03781271 -22.3756577 34.02055512 -26 34 C-23.8317943 31.8317943 -22.09376828 31.06045039 -19.3125 29.8125 C-11.35781802 25.88681279 -6.03242807 20.38129426 -3 12 C-1.86624787 8.02698069 -0.88763275 4.03469433 0 0 Z " fill="#38C715" transform="translate(311,289)"/>
<path d="M0 0 C0.89251968 -0.00619858 1.78503937 -0.01239716 2.7046051 -0.01878357 C4.58992422 -0.02587909 6.47530603 -0.02271236 8.3605957 -0.01000977 C11.2409235 0.00384381 14.11799409 -0.03020157 16.99804688 -0.06835938 C18.83203204 -0.06931073 20.66602127 -0.06745086 22.5 -0.0625 C23.35847031 -0.07575821 24.21694061 -0.08901642 25.10142517 -0.10267639 C29.46803588 -0.03490798 31.29871475 0.17747045 34.89477539 2.87915039 C36.81640625 5.56640625 36.81640625 5.56640625 36.87890625 9.19140625 C35.66918729 13.03404293 35.30978311 13.73442233 31.81640625 15.56640625 C28.74389418 16.01897977 25.6990841 16.01054231 22.59765625 16 C21.25531921 16.00786278 21.25531921 16.00786278 19.88586426 16.0158844 C17.99634843 16.02229963 16.10679265 16.02097406 14.21728516 16.01245117 C11.3264259 16.00393576 8.43753935 16.03271732 5.546875 16.06445312 C3.70963601 16.06606512 1.87239352 16.06548763 0.03515625 16.0625 C-0.82847534 16.07373398 -1.69210693 16.08496796 -2.58190918 16.09654236 C-8.53625444 16.0273809 -8.53625444 16.0273809 -11.72851562 13.75415039 C-13.87044559 10.53370837 -13.72310227 8.34296587 -13.18359375 4.56640625 C-9.79103921 -0.51645776 -5.57583458 -0.03213897 0 0 Z " fill="#DFF3FF" transform="translate(299.18359375,245.43359375)"/>
<path d="M0 0 C0.87032364 -0.00761353 1.74064728 -0.01522705 2.63734436 -0.02307129 C4.47556697 -0.03386262 6.31385084 -0.03672932 8.15209961 -0.03222656 C10.95986494 -0.03125443 13.76489493 -0.07288003 16.57226562 -0.1171875 C18.3606714 -0.12239494 20.14908665 -0.12508269 21.9375 -0.125 C22.77409653 -0.14139526 23.61069305 -0.15779053 24.47264099 -0.17468262 C28.79016281 -0.12366772 30.54330448 0.09793146 34.09985352 2.77929688 C36.03515625 5.46875 36.03515625 5.46875 36.09765625 9.09375 C34.88988586 12.93019713 34.51470308 13.62934199 31.03515625 15.46875 C28.04800335 15.93044739 25.08870909 15.93677506 22.0703125 15.9375 C21.19998886 15.94511353 20.32966522 15.95272705 19.43296814 15.96057129 C17.59474553 15.97136262 15.75646166 15.97422932 13.91821289 15.96972656 C11.11044756 15.96875443 8.30541757 16.01038003 5.49804688 16.0546875 C3.7096411 16.05989494 1.92122585 16.06258269 0.1328125 16.0625 C-1.12208229 16.0870929 -1.12208229 16.0870929 -2.40232849 16.11218262 C-6.71985031 16.06116772 -8.47299198 15.83956854 -12.02954102 13.15820312 C-13.96484375 10.46875 -13.96484375 10.46875 -14.02734375 6.84375 C-11.74178053 -0.41627435 -6.66155999 0.00159994 0 0 Z " fill="#DFF3FF" transform="translate(229.96484375,245.53125)"/>
<path d="M0 0 C0.87032364 -0.00761353 1.74064728 -0.01522705 2.63734436 -0.02307129 C4.47556697 -0.03386262 6.31385084 -0.03672932 8.15209961 -0.03222656 C10.95986494 -0.03125443 13.76489493 -0.07288003 16.57226562 -0.1171875 C18.3606714 -0.12239494 20.14908665 -0.12508269 21.9375 -0.125 C22.77409653 -0.14139526 23.61069305 -0.15779053 24.47264099 -0.17468262 C28.79016281 -0.12366772 30.54330448 0.09793146 34.09985352 2.77929688 C36.03515625 5.46875 36.03515625 5.46875 36.09765625 9.09375 C34.88988586 12.93019713 34.51470308 13.62934199 31.03515625 15.46875 C28.04800335 15.93044739 25.08870909 15.93677506 22.0703125 15.9375 C21.19998886 15.94511353 20.32966522 15.95272705 19.43296814 15.96057129 C17.59474553 15.97136262 15.75646166 15.97422932 13.91821289 15.96972656 C11.11044756 15.96875443 8.30541757 16.01038003 5.49804688 16.0546875 C3.7096411 16.05989494 1.92122585 16.06258269 0.1328125 16.0625 C-1.12208229 16.0870929 -1.12208229 16.0870929 -2.40232849 16.11218262 C-6.71985031 16.06116772 -8.47299198 15.83956854 -12.02954102 13.15820312 C-13.96484375 10.46875 -13.96484375 10.46875 -14.02734375 6.84375 C-11.74178053 -0.41627435 -6.66155999 0.00159994 0 0 Z " fill="#DFF3FF" transform="translate(159.96484375,245.53125)"/>
<path d="M0 0 C0.87032364 -0.00761353 1.74064728 -0.01522705 2.63734436 -0.02307129 C4.47556697 -0.03386262 6.31385084 -0.03672932 8.15209961 -0.03222656 C10.95986494 -0.03125443 13.76489493 -0.07288003 16.57226562 -0.1171875 C18.3606714 -0.12239494 20.14908665 -0.12508269 21.9375 -0.125 C22.77409653 -0.14139526 23.61069305 -0.15779053 24.47264099 -0.17468262 C28.79016281 -0.12366772 30.54330448 0.09793146 34.09985352 2.77929688 C36.03515625 5.46875 36.03515625 5.46875 36.09765625 9.09375 C34.88988586 12.93019713 34.51470308 13.62934199 31.03515625 15.46875 C28.04800335 15.93044739 25.08870909 15.93677506 22.0703125 15.9375 C21.19998886 15.94511353 20.32966522 15.95272705 19.43296814 15.96057129 C17.59474553 15.97136262 15.75646166 15.97422932 13.91821289 15.96972656 C11.11044756 15.96875443 8.30541757 16.01038003 5.49804688 16.0546875 C3.7096411 16.05989494 1.92122585 16.06258269 0.1328125 16.0625 C-1.12208229 16.0870929 -1.12208229 16.0870929 -2.40232849 16.11218262 C-6.71985031 16.06116772 -8.47299198 15.83956854 -12.02954102 13.15820312 C-13.96484375 10.46875 -13.96484375 10.46875 -14.02734375 6.84375 C-11.74178053 -0.41627435 -6.66155999 0.00159994 0 0 Z " fill="#DFF3FF" transform="translate(89.96484375,245.53125)"/>
<path d="M0 0 C10.89 0 21.78 0 33 0 C31.94695239 3.15914283 30.88496259 6.31608409 29.74609375 9.4453125 C26.92663056 17.37347466 25.17411112 24.50021149 25 33 C16.23956628 31.32247014 10.26299217 26.09256312 5.0625 19 C0.80839882 12.4908313 0 7.86337343 0 0 Z " fill="#02CCFE" transform="translate(49,324)"/>
<path d="M0 0 C1.60332791 -0.08121924 3.20784026 -0.13929134 4.8125 -0.1875 C6.15248047 -0.23970703 6.15248047 -0.23970703 7.51953125 -0.29296875 C10 0 10 0 11.62573242 1.12597656 C14.72078192 5.34654859 13.5100238 11.91307264 13.5 16.9375 C13.52835938 18.22591797 13.55671875 19.51433594 13.5859375 20.84179688 C13.58980469 22.69708008 13.58980469 22.69708008 13.59375 24.58984375 C13.60083984 25.72284912 13.60792969 26.85585449 13.61523438 28.02319336 C13 31 13 31 10.94726562 33.36743164 C7.31811331 35.37771507 4.29515323 35.57789271 0.25 35.53125 C-0.48573242 35.5350769 -1.22146484 35.53890381 -1.97949219 35.54284668 C-3.52931086 35.54555903 -5.07917584 35.53824519 -6.62890625 35.52148438 C-8.99323143 35.50006133 -11.35451866 35.52130511 -13.71875 35.546875 C-15.22917333 35.5442316 -16.73959479 35.53910636 -18.25 35.53125 C-18.9522168 35.53934692 -19.65443359 35.54744385 -20.37792969 35.55578613 C-23.94337711 35.48810145 -25.9157126 35.05341894 -28.95385742 33.12792969 C-31 31 -31 31 -31.48828125 28.421875 C-31.43027344 27.54015625 -31.37226562 26.6584375 -31.3125 25.75 C-31.26738281 24.85796875 -31.22226563 23.9659375 -31.17578125 23.046875 C-31.11777344 22.37140625 -31.05976562 21.6959375 -31 21 C-30.28972656 21.48533203 -29.57945313 21.97066406 -28.84765625 22.47070312 C-24.09849089 25.02118082 -19.28998785 24.51262527 -14 24.5 C-12.37964844 24.54253906 -12.37964844 24.54253906 -10.7265625 24.5859375 C-5.87153397 24.59792522 -2.91455274 24.59490324 1.21875 21.90625 C3.40750821 18.33511819 3.60782009 16.16904344 3.5 12 C3.4896875 10.80375 3.479375 9.6075 3.46875 8.375 C2.97849049 4.84513151 2.04849073 2.876604 0 0 Z " fill="#F2C5AB" transform="translate(115,184)"/>
<path d="M0 0 C3.23057217 -0.13523325 6.4554669 -0.23421546 9.6875 -0.3125 C10.59951172 -0.35439453 11.51152344 -0.39628906 12.45117188 -0.43945312 C17.09767755 -0.52393505 19.28895694 -0.51913218 23.140625 2.29296875 C25 5 25 5 25.0625 8.625 C23.88333385 12.3705866 23.28765725 13.07380694 20 15 C17.70996094 15.34057617 17.70996094 15.34057617 15.234375 15.29296875 C14.34492188 15.28330078 13.45546875 15.27363281 12.5390625 15.26367188 C11.61867188 15.23853516 10.69828125 15.21339844 9.75 15.1875 C8.34621094 15.16719727 8.34621094 15.16719727 6.9140625 15.14648438 C4.60912779 15.11120476 2.30448995 15.05739966 0 15 C0 10.05 0 5.1 0 0 Z " fill="#BEF5FF" transform="translate(311,246)"/>
<path d="M0 0 C3.23057217 -0.13523325 6.4554669 -0.23421546 9.6875 -0.3125 C10.59951172 -0.35439453 11.51152344 -0.39628906 12.45117188 -0.43945312 C17.09767755 -0.52393505 19.28895694 -0.51913218 23.140625 2.29296875 C25 5 25 5 25.0625 8.625 C23.88333385 12.3705866 23.28765725 13.07380694 20 15 C17.70996094 15.34057617 17.70996094 15.34057617 15.234375 15.29296875 C14.34492188 15.28330078 13.45546875 15.27363281 12.5390625 15.26367188 C11.61867188 15.23853516 10.69828125 15.21339844 9.75 15.1875 C8.34621094 15.16719727 8.34621094 15.16719727 6.9140625 15.14648438 C4.60912779 15.11120476 2.30448995 15.05739966 0 15 C0 10.05 0 5.1 0 0 Z " fill="#BEF5FF" transform="translate(311,176)"/>
<path d="M0 0 C0.66 0.33 1.32 0.66 2 1 C-1.96 4.96 -5.92 8.92 -10 13 C-10 9.28115772 -9.1259934 8.63852271 -6.6875 5.9375 C-5.76517578 4.89916016 -5.76517578 4.89916016 -4.82421875 3.83984375 C-3 2 -3 2 0 0 Z " fill="#ACF5FF" transform="translate(29,18)"/>
</svg>
