<?xml version="1.0" encoding="UTF-8"?>
<svg version="1.1" xmlns="http://www.w3.org/2000/svg" width="512" height="512">
<path d="M0 0 C1.54970015 -0.00458168 3.09939829 -0.00989298 4.64909363 -0.0158844 C7.87365041 -0.02473835 11.09795853 -0.02248271 14.32250977 -0.01245117 C17.58937197 -0.00326477 20.85551932 -0.01018277 24.12231445 -0.03295898 C60.44740655 -0.28501726 90.76912768 5.79107351 118.10546875 31.68359375 C136.39046129 50.80581122 147.74462127 76.86456936 147.71875 103.3671875 C147.72303513 104.36637711 147.72732025 105.36556671 147.73173523 106.39503479 C147.73743473 108.49162036 147.73801148 110.58822569 147.73364258 112.68481445 C147.73047991 115.85988636 147.75400721 119.03402695 147.77929688 122.20898438 C147.84554661 142.74902416 143.97193468 159.00381394 129.41796875 174.43359375 C115.21229063 188.31901503 99.24951363 192.74675445 79.81713867 192.70825195 C78.35746502 192.71260648 76.89779364 192.71779209 75.43812561 192.72373962 C71.49580377 192.7370626 67.55357819 192.73771571 63.61123824 192.73517632 C60.30890877 192.73410184 57.0065984 192.73900224 53.70427305 192.74378175 C45.90659375 192.75485421 38.10896264 192.75532739 30.3112793 192.74926758 C22.2934162 192.74323199 14.27572878 192.75553342 6.25789565 192.77683765 C-0.64943388 192.79450962 -7.55670778 192.80044613 -14.46405905 192.7971999 C-18.57907785 192.79539548 -22.69397137 192.79793839 -26.8089695 192.81191444 C-30.68245915 192.82457935 -34.55567704 192.82246779 -38.42916298 192.80950356 C-39.84156897 192.80715677 -41.25399461 192.80980339 -42.66637802 192.81812668 C-61.38175186 192.92036727 -76.81666842 187.41761712 -90.58203125 174.43359375 C-103.03049703 161.69801344 -108.87553868 146.54343019 -108.91796875 128.90625 C-108.92462555 127.91846054 -108.93128235 126.93067108 -108.93814087 125.91294861 C-108.94821582 123.82959843 -108.9529595 121.74621631 -108.95263672 119.6628418 C-108.95697625 116.53572728 -108.99325893 113.41006559 -109.03125 110.28320312 C-109.20036056 80.2699486 -99.85903852 54.63737547 -79.58203125 32.43359375 C-78.96457031 31.74523437 -78.34710938 31.056875 -77.7109375 30.34765625 C-57.54083157 8.96831136 -28.58902822 -0.07569984 0 0 Z " fill="#73C34E" transform="translate(236.58203125,255.56640625)"/>
<path d="M0 0 C1.05960937 0.36222656 2.11921875 0.72445312 3.2109375 1.09765625 C23.33696442 8.72899037 39.943231 24.67481469 49.02954102 44.07543945 C58.95074981 66.4708543 59.62351631 90.34740167 51.25 113.3125 C46.89674837 124.58205655 40.30983216 133.30087841 32 142 C31.45988281 142.61488281 30.91976562 143.22976562 30.36328125 143.86328125 C18.1443856 157.25174374 -2.36432532 166.1480456 -20.31201172 167.12597656 C-46.21602467 167.89631988 -68.38487506 162.32604141 -87.72265625 144.1796875 C-88.47417969 143.46039063 -89.22570312 142.74109375 -90 142 C-90.63808594 141.42507812 -91.27617187 140.85015625 -91.93359375 140.2578125 C-106.62574051 126.58004558 -113.97129662 105.11635294 -115.22265625 85.51171875 C-115.80898193 61.37039611 -107.94758861 40.37610949 -92.1875 22.1875 C-68.78933091 -2.36435385 -32.0824212 -11.24728559 0 0 Z " fill="#B1D655" transform="translate(285,68)"/>
<path d="M0 0 C1.95922142 -0.00430527 1.95922142 -0.00430527 3.95802307 -0.00869751 C6.70365227 -0.01308247 9.4489857 -0.00681647 12.19458008 0.00732422 C15.67502941 0.0243972 19.15478334 0.01456294 22.63520718 -0.00339317 C26.00685711 -0.0169805 29.37833047 -0.00740361 32.75 0 C33.97955917 -0.00607269 35.20911835 -0.01214539 36.47593689 -0.0184021 C54.9872861 0.12975244 70.27682349 5.74044513 83.390625 18.78515625 C84.23238281 19.64753906 85.07414063 20.50992188 85.94140625 21.3984375 C86.54597656 21.98238281 87.15054688 22.56632812 87.7734375 23.16796875 C99.2750807 35.15516945 102.4113134 51.95008187 102.375 67.8671875 C102.37957605 69.23759211 102.38488578 70.60799444 102.3908844 71.97839355 C102.39975394 74.83253378 102.39746276 77.68639325 102.38745117 80.54052734 C102.37595548 84.16818036 102.39621242 87.7948607 102.42536831 91.42238617 C102.44385594 94.24686666 102.44341339 97.07111923 102.43773079 99.89564514 C102.43750638 101.87345536 102.45427595 103.85124463 102.47154236 105.82897949 C102.37492755 118.44501681 98.83788893 129.02633532 90.12890625 138.3359375 C79.9016145 147.90340398 68.71092078 150.72389561 55.1015625 150.59375 C53.97946884 150.5909201 52.85737518 150.58809021 51.70127869 150.58517456 C48.13537707 150.57402525 44.56973131 150.54893001 41.00390625 150.5234375 C38.57877968 150.51340093 36.15364916 150.50427626 33.72851562 150.49609375 C27.79939262 150.47410309 21.87041772 150.44067777 15.94140625 150.3984375 C15.88965744 149.78272385 15.83790863 149.16701019 15.78459167 148.53263855 C15.54308689 145.68933467 15.29501479 142.84663847 15.046875 140.00390625 C14.92499817 138.55171692 14.92499817 138.55171692 14.80065918 137.07019043 C11.6934502 101.8428544 -3.67261408 70.71093616 -28.05859375 45.3984375 C-28.70054687 44.69332031 -29.3425 43.98820312 -30.00390625 43.26171875 C-36.97117645 35.82694774 -45.60967928 30.03104715 -54.05859375 24.3984375 C-50.46862581 16.00924926 -42.0164617 11.00269194 -34.18359375 7.0234375 C-33.56081543 6.70213867 -32.93803711 6.38083984 -32.29638672 6.04980469 C-21.91095647 1.04089079 -11.40074811 -0.05621482 0 0 Z " fill="#89CA51" transform="translate(410.05859375,212.6015625)"/>
<path d="M0 0 C1.29998932 -0.00524185 2.59997864 -0.0104837 3.93936157 -0.0158844 C6.67061194 -0.02473541 9.4015687 -0.02248594 12.1328125 -0.01245117 C14.90037262 -0.0032604 17.66708926 -0.01019244 20.43457031 -0.03295898 C45.98123337 -0.24207075 65.65879349 1.72453857 84.74609375 20.2734375 C85.46152344 20.98628906 86.17695313 21.69914062 86.9140625 22.43359375 C85.56992007 26.46602105 83.64993732 27.14377655 80.1015625 29.43359375 C73.04002747 34.13312317 67.01309912 39.5643759 60.9140625 45.43359375 C59.88925781 46.34625 59.88925781 46.34625 58.84375 47.27734375 C33.51343078 70.59395559 20.74047081 106.43484627 17.83984375 139.90625 C17.74981079 140.921427 17.65977783 141.936604 17.5670166 142.98254395 C17.34708983 145.46603594 17.1294947 147.94970853 16.9140625 150.43359375 C9.87073283 150.53577173 2.82759725 150.60538302 -4.21630859 150.65332031 C-6.60798282 150.67332352 -8.99960883 150.70053499 -11.39111328 150.73535156 C-14.84680136 150.78436841 -18.30183783 150.80667637 -21.7578125 150.82421875 C-22.81143982 150.84486389 -23.86506714 150.86550903 -24.95062256 150.88677979 C-38.00890599 150.89064707 -48.52536938 146.40349248 -58.0859375 137.58984375 C-65.20602987 130.10147074 -69.16818957 120.69864961 -69.26293945 110.41845703 C-69.27577469 109.20263947 -69.28860992 107.9868219 -69.30183411 106.73416138 C-69.30922104 105.42067719 -69.31660797 104.10719299 -69.32421875 102.75390625 C-69.32829428 102.07999722 -69.3323698 101.40608818 -69.33656883 100.71175766 C-69.35741203 97.13596661 -69.37171419 93.56021359 -69.38110352 89.984375 C-69.39208885 86.32887822 -69.42640021 82.67400353 -69.46627522 79.01872444 C-69.49271284 76.17700243 -69.50081963 73.33542159 -69.50438499 70.49358749 C-69.51149816 68.50313307 -69.53782881 66.51277621 -69.56477356 64.52249146 C-69.52134253 46.00532381 -63.0486609 31.43967074 -50.0859375 18.43359375 C-49.39757812 17.72203125 -48.70921875 17.01046875 -48 16.27734375 C-34.69637052 3.41881712 -17.92769747 -0.04313349 0 0 Z " fill="#89CA51" transform="translate(69.0859375,212.56640625)"/>
<path d="M0 0 C1.00256836 0.00757324 2.00513672 0.01514648 3.03808594 0.02294922 C20.80499007 0.41541389 34.96614671 7.35377976 47.33007812 19.98193359 C59.64639671 33.18874859 65.5158846 49.7221222 65.03125 67.734375 C63.21749552 87.27345737 55.07528117 102.19934246 40.625 115.30859375 C28.99934622 124.63333689 15.12934931 129.03270682 0.375 128.875 C-1.12885254 128.86364014 -1.12885254 128.86364014 -2.66308594 128.85205078 C-20.55228092 128.45688475 -36.04991915 121.10909676 -48.46875 108.1953125 C-61.87349231 92.47051863 -65.72940452 74.63813877 -64.3125 54.4375 C-62.23164491 37.82815219 -52.42246078 22.75896985 -39.4375 12.5625 C-27.5019733 4.09115025 -14.62899251 -0.1563669 0 0 Z " fill="#B7D856" transform="translate(85.3125,63.5625)"/>
<path d="M0 0 C1.00256836 0.00757324 2.00513672 0.01514648 3.03808594 0.02294922 C20.50199063 0.40872073 35.11945918 7.32786796 47.6875 19.4375 C60.8233558 34.57327848 65.88007486 51.593793 64.84716797 71.32617188 C63.59874199 87.8344102 55.19331509 103.1020315 42.83203125 113.94140625 C30.19795144 123.86234602 16.39987645 129.04624351 0.3125 128.875 C-1.19630737 128.86364014 -1.19630737 128.86364014 -2.7355957 128.85205078 C-10.59844384 128.67823712 -17.05884135 127.62471365 -24.3125 124.4375 C-25.31023437 124.03660156 -26.30796875 123.63570313 -27.3359375 123.22265625 C-42.27583873 116.59763578 -53.57623513 103.71574275 -60.0234375 88.890625 C-66.3456109 71.95486354 -66.22953998 53.77559588 -58.69726562 37.2668457 C-54.96571642 29.58270532 -50.52238241 23.37163275 -44.3125 17.4375 C-43.70019531 16.80585937 -43.08789062 16.17421875 -42.45703125 15.5234375 C-31.19345479 4.62010336 -15.36490895 -0.16423299 0 0 Z " fill="#B7D856" transform="translate(426.3125,63.5625)"/>
</svg>
